<svg width="49" height="48" viewBox="0 0 49 48" fill="none" xmlns="http://www.w3.org/2000/svg">
<rect x="11.8383" y="7.92627" width="24.9673" height="34.4787" fill="white"/>
<path fill-rule="evenodd" clip-rule="evenodd" d="M41.7499 0H7.73349C3.87203 0 0.741699 3.13032 0.741699 6.99178V41.0082C0.741699 44.8697 3.87202 48 7.73348 48H41.7499C45.6114 48 48.7417 44.8697 48.7417 41.0082V6.99178C48.7417 3.13033 45.6114 0 41.7499 0ZM24.7627 23.5433C23.6417 23.5433 22.7448 23.2359 22.0722 22.6211C21.4276 21.9796 21.1053 21.151 21.1053 20.1353C21.1053 19.1196 21.4276 18.3043 22.0722 17.6895C22.7448 17.048 23.6417 16.7273 24.7627 16.7273C25.8837 16.7273 26.7525 17.048 27.3691 17.6895C28.0137 18.3043 28.336 19.1196 28.336 20.1353C28.336 21.151 28.0137 21.9796 27.3691 22.6211C26.7525 23.2359 25.8837 23.5433 24.7627 23.5433ZM25.6035 37.7135C25.1831 38.1946 24.7347 38.4619 24.2582 38.5154C23.7818 38.5956 23.3754 38.5154 23.0391 38.2748C22.7028 38.0343 22.5066 37.6868 22.4506 37.2324C22.4225 36.8047 22.6327 36.337 23.0812 35.8291C23.4455 35.4014 23.7257 34.9738 23.9219 34.5461C24.1461 34.1452 24.3143 33.7442 24.4264 33.3433C23.4175 33.2631 22.6047 32.9156 21.9881 32.3008C21.3996 31.6861 21.1053 30.8842 21.1053 29.8952C21.1053 28.9062 21.4276 28.1043 22.0722 27.4896C22.7168 26.8481 23.5996 26.5273 24.7207 26.5273C25.8417 26.5273 26.7245 26.9015 27.3691 27.6499C28.0417 28.3716 28.3781 29.4007 28.3781 30.7372C28.3781 31.7796 28.1959 32.8622 27.8315 33.9848C27.4952 35.1074 26.7525 36.3503 25.6035 37.7135ZM26.1963 11.6364C26.1963 12.4397 25.545 13.0909 24.7417 13.0909C23.9384 13.0909 23.2872 12.4397 23.2872 11.6364C23.2872 10.8331 23.9384 10.1818 24.7417 10.1818C25.545 10.1818 26.1963 10.8331 26.1963 11.6364ZM30.5599 15.2727C31.3632 15.2727 32.0144 14.6215 32.0144 13.8182C32.0144 13.0149 31.3632 12.3637 30.5599 12.3637C29.7566 12.3637 29.1053 13.0149 29.1053 13.8182C29.1053 14.6215 29.7566 15.2727 30.5599 15.2727ZM16.7417 13.8182C16.7417 14.6215 17.5557 15.2727 18.5599 15.2727C19.564 15.2727 20.3781 14.6215 20.3781 13.8182C20.3781 13.0149 19.564 12.3637 18.5599 12.3637C17.5557 12.3637 16.7417 13.0149 16.7417 13.8182ZM33.1054 21.0909C34.1095 21.0909 34.9235 20.2769 34.9235 19.2727C34.9235 18.2686 34.1095 17.4546 33.1054 17.4546C32.1012 17.4546 31.2872 18.2686 31.2872 19.2727C31.2872 20.2769 32.1012 21.0909 33.1054 21.0909ZM14.5599 19.2727C14.5599 20.2769 15.2111 21.0909 16.0144 21.0909C16.8178 21.0909 17.469 20.2769 17.469 19.2727C17.469 18.2686 16.8178 17.4546 16.0144 17.4546C15.2111 17.4546 14.5599 18.2686 14.5599 19.2727Z" fill="#FF3A44"/>
</svg>
