<svg width="38" height="38" viewBox="0 0 38 38" fill="none" xmlns="http://www.w3.org/2000/svg">
<g clip-path="url(#clip0_5788_630)">
<path d="M26.0733 20.7941L21.5663 18.4555C20.1509 17.7204 18.4462 18.7262 18.4462 20.2967V28.078C14.6323 28.9057 10.1557 28.1499 6.82153 25.9978C1.40731 22.5025 -2.15086 14.5788 1.46942 9.09462C4.87825 3.93106 12.9269 3.54118 18.1204 6.18028C23.4739 8.90033 27.0129 15.4576 26.0733 20.7941Z" fill="url(#paint0_linear_5788_630)"/>
<path d="M18.4463 28.8544V36.3631C14.0324 38.2671 8.26668 37.5586 6.22693 34.1585C5.21664 32.4741 5.22787 30.3064 5.94744 28.2275C7.5762 29.0546 9.33446 29.6102 11.0676 29.8194C13.5111 30.1147 16.1039 29.7449 18.4463 28.8544Z" fill="url(#paint1_linear_5788_630)"/>
<path d="M35.9607 12.592C35.9905 16.6701 33.7789 20.688 30.5677 23.1264L26.7141 21.1265C28.3218 16.6669 27.404 10.8013 24.1934 6.93559C22.6796 5.11251 20.5182 3.56921 18.1356 2.61784C20.1211 1.10951 22.5666 0.187928 25.2565 0.351779C31.6031 0.738414 35.9198 6.96085 35.9607 12.592Z" fill="url(#paint2_linear_5788_630)"/>
<path d="M35.3989 28.0072L21.8038 20.9528C21.2921 20.6874 20.6766 21.0506 20.6766 21.6179V35.7268C20.6766 36.2941 21.2927 36.6573 21.8038 36.3919L35.3989 29.3375C35.9439 29.0547 35.9439 28.2894 35.3989 28.0066V28.0072Z" fill="#303030"/>
</g>
<defs>
<linearGradient id="paint0_linear_5788_630" x1="20.6036" y1="21.4917" x2="2.31142" y2="7.87103" gradientUnits="userSpaceOnUse">
<stop stop-color="#FFD12F"/>
<stop offset="1" stop-color="#FFA24C"/>
</linearGradient>
<linearGradient id="paint1_linear_5788_630" x1="15.6575" y1="34.7384" x2="8.31367" y2="27.6903" gradientUnits="userSpaceOnUse">
<stop stop-color="#FFD12F"/>
<stop offset="1" stop-color="#FFA24C"/>
</linearGradient>
<linearGradient id="paint2_linear_5788_630" x1="32.1405" y1="16.5123" x2="17.0402" y2="8.52273" gradientUnits="userSpaceOnUse">
<stop stop-color="#FFD12F"/>
<stop offset="1" stop-color="#FFA24C"/>
</linearGradient>
<clipPath id="clip0_5788_630">
<rect width="37.3333" height="37.3333" fill="white" transform="translate(-6.10352e-05 0.333008)"/>
</clipPath>
</defs>
</svg>
