<svg width="204" height="48" viewBox="0 0 204 48" fill="none" xmlns="http://www.w3.org/2000/svg">
<rect x="11.935" y="7.92627" width="24.9673" height="34.4787" fill="white"/>
<path fill-rule="evenodd" clip-rule="evenodd" d="M41.8466 0H7.83017C3.96871 0 0.838379 3.13032 0.838379 6.99178V41.0082C0.838379 44.8697 3.9687 48 7.83016 48H41.8466C45.7081 48 48.8384 44.8697 48.8384 41.0082V6.99178C48.8384 3.13033 45.7081 0 41.8466 0ZM24.8594 23.5433C23.7383 23.5433 22.8415 23.2359 22.1689 22.6211C21.5243 21.9796 21.202 21.151 21.202 20.1353C21.202 19.1196 21.5243 18.3043 22.1689 17.6895C22.8415 17.048 23.7383 16.7273 24.8594 16.7273C25.9804 16.7273 26.8492 17.048 27.4658 17.6895C28.1104 18.3043 28.4327 19.1196 28.4327 20.1353C28.4327 21.151 28.1104 21.9796 27.4658 22.6211C26.8492 23.2359 25.9804 23.5433 24.8594 23.5433ZM25.7002 37.7135C25.2798 38.1946 24.8314 38.4619 24.3549 38.5154C23.8785 38.5956 23.4721 38.5154 23.1358 38.2748C22.7995 38.0343 22.6033 37.6868 22.5472 37.2324C22.5192 36.8047 22.7294 36.337 23.1778 35.8291C23.5422 35.4014 23.8224 34.9738 24.0186 34.5461C24.2428 34.1452 24.411 33.7442 24.5231 33.3433C23.5141 33.2631 22.7014 32.9156 22.0848 32.3008C21.4963 31.6861 21.202 30.8842 21.202 29.8952C21.202 28.9062 21.5243 28.1043 22.1689 27.4896C22.8135 26.8481 23.6963 26.5273 24.8173 26.5273C25.9384 26.5273 26.8212 26.9015 27.4658 27.6499C28.1384 28.3716 28.4747 29.4007 28.4747 30.7372C28.4747 31.7796 28.2926 32.8622 27.9282 33.9848C27.5919 35.1074 26.8492 36.3503 25.7002 37.7135ZM26.2929 11.6364C26.2929 12.4397 25.6417 13.0909 24.8384 13.0909C24.0351 13.0909 23.3838 12.4397 23.3838 11.6364C23.3838 10.8331 24.0351 10.1818 24.8384 10.1818C25.6417 10.1818 26.2929 10.8331 26.2929 11.6364ZM30.6566 15.2727C31.4599 15.2727 32.1111 14.6215 32.1111 13.8182C32.1111 13.0149 31.4599 12.3637 30.6566 12.3637C29.8532 12.3637 29.202 13.0149 29.202 13.8182C29.202 14.6215 29.8532 15.2727 30.6566 15.2727ZM16.8384 13.8182C16.8384 14.6215 17.6524 15.2727 18.6566 15.2727C19.6607 15.2727 20.4748 14.6215 20.4748 13.8182C20.4748 13.0149 19.6607 12.3637 18.6566 12.3637C17.6524 12.3637 16.8384 13.0149 16.8384 13.8182ZM33.202 21.0909C34.2062 21.0909 35.0202 20.2769 35.0202 19.2727C35.0202 18.2686 34.2062 17.4546 33.202 17.4546C32.1979 17.4546 31.3839 18.2686 31.3839 19.2727C31.3839 20.2769 32.1979 21.0909 33.202 21.0909ZM14.6566 19.2727C14.6566 20.2769 15.3078 21.0909 16.1111 21.0909C16.9144 21.0909 17.5657 20.2769 17.5657 19.2727C17.5657 18.2686 16.9144 17.4546 16.1111 17.4546C15.3078 17.4546 14.6566 18.2686 14.6566 19.2727Z" fill="#67B31A"/>
<path d="M66.287 24.7273C65.6458 24.7273 64.9893 24.6736 64.3175 24.5662C63.661 24.4742 63.0274 24.3361 62.4167 24.1521C61.8212 23.968 61.2869 23.7379 60.8136 23.4618C60.4777 23.2777 60.241 23.04 60.1036 22.7485C59.9662 22.4418 59.9128 22.135 59.9433 21.8282C59.9891 21.5214 60.1036 21.253 60.2868 21.0229C60.4853 20.7775 60.7296 20.6241 61.0197 20.5627C61.325 20.486 61.6609 20.5397 62.0274 20.7238C62.6533 21.0766 63.3327 21.3373 64.0656 21.5061C64.8137 21.6748 65.5542 21.7592 66.287 21.7592C67.4016 21.7592 68.1955 21.5904 68.6688 21.253C69.1421 20.9002 69.3787 20.463 69.3787 19.9415C69.3787 19.4966 69.2108 19.1438 68.8749 18.8831C68.539 18.6223 67.9512 18.3999 67.1115 18.2158L64.5236 17.6636C63.0579 17.3568 61.9663 16.8353 61.2487 16.099C60.5464 15.3474 60.1952 14.3657 60.1952 13.1539C60.1952 12.387 60.3556 11.689 60.6762 11.0601C60.9968 10.4312 61.4472 9.88671 62.0274 9.42653C62.6075 8.96636 63.2946 8.61356 64.0885 8.36814C64.8977 8.12271 65.7832 8 66.745 8C67.6 8 68.4398 8.10737 69.2642 8.32212C70.0887 8.52153 70.8139 8.82064 71.4398 9.21946C71.7452 9.40353 71.9513 9.64128 72.0582 9.93272C72.1803 10.2088 72.2185 10.4926 72.1727 10.784C72.1421 11.0601 72.0276 11.3056 71.8292 11.5203C71.6459 11.7351 71.4093 11.8731 71.1192 11.9345C70.8291 11.9958 70.478 11.9268 70.0658 11.7274C69.5619 11.4666 69.0276 11.2749 68.4627 11.1522C67.8978 11.0295 67.3176 10.9681 66.7221 10.9681C66.0809 10.9681 65.5313 11.0525 65.0732 11.2212C64.6305 11.3899 64.287 11.6277 64.0427 11.9345C63.8137 12.2413 63.6992 12.5941 63.6992 12.9929C63.6992 13.4377 63.8595 13.7982 64.1801 14.0743C64.5007 14.3504 65.058 14.5728 65.8519 14.7415L68.4398 15.2937C69.936 15.6159 71.0505 16.1374 71.7834 16.8583C72.5162 17.5639 72.8826 18.4996 72.8826 19.6654C72.8826 20.4323 72.7299 21.1303 72.4246 21.7592C72.1192 22.3727 71.6765 22.9019 71.0963 23.3468C70.5161 23.7916 69.8215 24.1367 69.0123 24.3821C68.2031 24.6122 67.2947 24.7273 66.287 24.7273Z" fill="#333333"/>
<path d="M77.4085 24.6813C76.8894 24.6813 76.4925 24.5355 76.2176 24.2441C75.9428 23.9527 75.8054 23.5462 75.8054 23.0246V9.70264C75.8054 9.18111 75.9505 8.77462 76.2405 8.48318C76.5459 8.19174 76.9581 8.04602 77.4772 8.04602C77.9352 8.04602 78.294 8.13805 78.5536 8.32212C78.8284 8.49085 79.0803 8.78996 79.3093 9.21946L84.5996 18.9291H83.8209L89.1111 9.21946C89.3402 8.78996 89.5844 8.49085 89.844 8.32212C90.1188 8.13805 90.4776 8.04602 90.9204 8.04602C91.4395 8.04602 91.8364 8.19174 92.1112 8.48318C92.4013 8.77462 92.5464 9.18111 92.5464 9.70264V23.0246C92.5464 23.5462 92.4089 23.9527 92.1341 24.2441C91.8593 24.5355 91.4624 24.6813 90.9433 24.6813C90.4242 24.6813 90.0196 24.5355 89.7295 24.2441C89.4547 23.9527 89.3173 23.5462 89.3173 23.0246V13.7061H89.8211L85.5614 21.368C85.3782 21.6595 85.1797 21.8819 84.966 22.0353C84.7675 22.1733 84.5003 22.2423 84.1644 22.2423C83.8285 22.2423 83.5537 22.1656 83.34 22.0123C83.1262 21.8589 82.9354 21.6441 82.7674 21.368L78.462 13.6831H79.0116V23.0246C79.0116 23.5462 78.8742 23.9527 78.5994 24.2441C78.3398 24.5355 77.9429 24.6813 77.4085 24.6813Z" fill="#333333"/>
<path d="M96.8513 24.6813C96.4238 24.6813 96.0726 24.5816 95.7978 24.3821C95.5383 24.1827 95.3703 23.9143 95.294 23.5768C95.2329 23.2394 95.3016 22.8636 95.5001 22.4494L101.363 9.54158C101.607 9.02005 101.897 8.64424 102.233 8.41416C102.569 8.16873 102.958 8.04602 103.401 8.04602C103.844 8.04602 104.233 8.16873 104.569 8.41416C104.905 8.64424 105.187 9.02005 105.416 9.54158L111.325 22.4494C111.523 22.8636 111.592 23.2471 111.531 23.5999C111.485 23.9373 111.333 24.2057 111.073 24.4052C110.814 24.5892 110.478 24.6813 110.065 24.6813C109.546 24.6813 109.142 24.5585 108.852 24.3131C108.577 24.0677 108.333 23.6842 108.119 23.1627L106.745 19.9645L108.165 20.9539H98.6147L100.035 19.9645L98.6834 23.1627C98.4544 23.6996 98.2101 24.0907 97.9506 24.3361C97.7063 24.5662 97.3398 24.6813 96.8513 24.6813ZM103.355 12.0495L100.424 19.0672L99.8056 18.1698H106.974L106.355 19.0672L103.401 12.0495H103.355Z" fill="#333333"/>
<path d="M115.995 24.6813C115.415 24.6813 114.972 24.5202 114.667 24.1981C114.362 23.876 114.209 23.4235 114.209 22.8406V10.0708C114.209 9.47255 114.362 9.02005 114.667 8.71327C114.988 8.40648 115.438 8.25309 116.018 8.25309H121.583C123.385 8.25309 124.774 8.69026 125.751 9.56459C126.728 10.4389 127.217 11.6584 127.217 13.223C127.217 14.2353 126.996 15.1097 126.553 15.8459C126.11 16.5822 125.469 17.1498 124.629 17.5486C123.805 17.9474 122.789 18.1468 121.583 18.1468L121.766 17.7557H122.705C123.347 17.7557 123.904 17.9167 124.377 18.2388C124.866 18.5456 125.286 19.0211 125.637 19.6654L127.057 22.3114C127.27 22.6948 127.37 23.0707 127.354 23.4388C127.339 23.8069 127.202 24.106 126.942 24.3361C126.683 24.5662 126.301 24.6813 125.797 24.6813C125.293 24.6813 124.881 24.5739 124.56 24.3591C124.255 24.1444 123.98 23.8146 123.736 23.3698L121.537 19.2972C121.308 18.8677 121.026 18.5763 120.69 18.4229C120.369 18.2695 119.972 18.1928 119.499 18.1928H117.759V22.8406C117.759 23.4235 117.606 23.876 117.301 24.1981C117.011 24.5202 116.575 24.6813 115.995 24.6813ZM117.759 15.6159H120.942C121.889 15.6159 122.598 15.4241 123.072 15.0406C123.56 14.6572 123.805 14.0819 123.805 13.315C123.805 12.5634 123.56 11.9958 123.072 11.6124C122.598 11.2289 121.889 11.0371 120.942 11.0371H117.759V15.6159Z" fill="#333333"/>
<path d="M135.914 24.6813C135.334 24.6813 134.891 24.5202 134.586 24.1981C134.28 23.876 134.128 23.4235 134.128 22.8406V11.1982H130.074C129.601 11.1982 129.234 11.0678 128.975 10.8071C128.715 10.5463 128.585 10.1858 128.585 9.72565C128.585 9.25013 128.715 8.88967 128.975 8.64424C129.234 8.38348 129.601 8.25309 130.074 8.25309H141.731C142.204 8.25309 142.571 8.38348 142.83 8.64424C143.09 8.88967 143.219 9.25013 143.219 9.72565C143.219 10.1858 143.09 10.5463 142.83 10.8071C142.571 11.0678 142.204 11.1982 141.731 11.1982H137.677V22.8406C137.677 23.4235 137.525 23.876 137.219 24.1981C136.929 24.5202 136.494 24.6813 135.914 24.6813Z" fill="#333333"/>
<path d="M151.27 24.6813C150.689 24.6813 150.247 24.5202 149.941 24.1981C149.636 23.876 149.483 23.4235 149.483 22.8406V11.1982H145.43C144.956 11.1982 144.59 11.0678 144.33 10.8071C144.071 10.5463 143.941 10.1858 143.941 9.72565C143.941 9.25013 144.071 8.88967 144.33 8.64424C144.59 8.38348 144.956 8.25309 145.43 8.25309H157.086C157.56 8.25309 157.926 8.38348 158.186 8.64424C158.445 8.88967 158.575 9.25013 158.575 9.72565C158.575 10.1858 158.445 10.5463 158.186 10.8071C157.926 11.0678 157.56 11.1982 157.086 11.1982H153.033V22.8406C153.033 23.4235 152.88 23.876 152.575 24.1981C152.285 24.5202 151.85 24.6813 151.27 24.6813Z" fill="#333333"/>
<path d="M162.533 24.4742C161.938 24.4742 161.48 24.3131 161.159 23.991C160.839 23.6689 160.678 23.2087 160.678 22.6105V10.1168C160.678 9.51857 160.839 9.0584 161.159 8.73628C161.48 8.41416 161.938 8.25309 162.533 8.25309H170.526C170.984 8.25309 171.327 8.37581 171.556 8.62123C171.801 8.85132 171.923 9.18878 171.923 9.63361C171.923 10.0938 171.801 10.4466 171.556 10.692C171.327 10.9221 170.984 11.0371 170.526 11.0371H164.068V14.8336H169.999C170.472 14.8336 170.824 14.9563 171.053 15.2017C171.297 15.4318 171.419 15.7769 171.419 16.2371C171.419 16.6973 171.297 17.0501 171.053 17.2955C170.824 17.5256 170.472 17.6406 169.999 17.6406H164.068V21.6901H170.526C170.984 21.6901 171.327 21.8128 171.556 22.0583C171.801 22.2884 171.923 22.6258 171.923 23.0707C171.923 23.5308 171.801 23.8836 171.556 24.129C171.327 24.3591 170.984 24.4742 170.526 24.4742H162.533Z" fill="#333333"/>
<path d="M176.903 24.6813C176.323 24.6813 175.88 24.5202 175.575 24.1981C175.27 23.876 175.117 23.4235 175.117 22.8406V10.0708C175.117 9.47255 175.27 9.02005 175.575 8.71327C175.896 8.40648 176.346 8.25309 176.926 8.25309H182.491C184.293 8.25309 185.682 8.69026 186.659 9.56459C187.636 10.4389 188.125 11.6584 188.125 13.223C188.125 14.2353 187.903 15.1097 187.461 15.8459C187.018 16.5822 186.377 17.1498 185.537 17.5486C184.713 17.9474 183.697 18.1468 182.491 18.1468L182.674 17.7557H183.613C184.255 17.7557 184.812 17.9167 185.285 18.2388C185.774 18.5456 186.194 19.0211 186.545 19.6654L187.965 22.3114C188.178 22.6948 188.278 23.0707 188.262 23.4388C188.247 23.8069 188.11 24.106 187.85 24.3361C187.59 24.5662 187.209 24.6813 186.705 24.6813C186.201 24.6813 185.789 24.5739 185.468 24.3591C185.163 24.1444 184.888 23.8146 184.644 23.3698L182.445 19.2972C182.216 18.8677 181.934 18.5763 181.598 18.4229C181.277 18.2695 180.88 18.1928 180.407 18.1928H178.667V22.8406C178.667 23.4235 178.514 23.876 178.209 24.1981C177.918 24.5202 177.483 24.6813 176.903 24.6813ZM178.667 15.6159H181.85C182.796 15.6159 183.506 15.4241 183.98 15.0406C184.468 14.6572 184.713 14.0819 184.713 13.315C184.713 12.5634 184.468 11.9958 183.98 11.6124C183.506 11.2289 182.796 11.0371 181.85 11.0371H178.667V15.6159Z" fill="#333333"/>
<path d="M197.339 24.7273C196.698 24.7273 196.042 24.6736 195.37 24.5662C194.713 24.4742 194.08 24.3361 193.469 24.1521C192.874 23.968 192.339 23.7379 191.866 23.4618C191.53 23.2777 191.294 23.04 191.156 22.7485C191.019 22.4418 190.965 22.135 190.996 21.8282C191.042 21.5214 191.156 21.253 191.339 21.0229C191.538 20.7775 191.782 20.6241 192.072 20.5627C192.378 20.486 192.713 20.5397 193.08 20.7238C193.706 21.0766 194.385 21.3373 195.118 21.5061C195.866 21.6748 196.607 21.7592 197.339 21.7592C198.454 21.7592 199.248 21.5904 199.721 21.253C200.195 20.9002 200.431 20.463 200.431 19.9415C200.431 19.4966 200.263 19.1438 199.927 18.8831C199.591 18.6223 199.004 18.3999 198.164 18.2158L195.576 17.6636C194.11 17.3568 193.019 16.8353 192.301 16.099C191.599 15.3474 191.248 14.3657 191.248 13.1539C191.248 12.387 191.408 11.689 191.729 11.0601C192.049 10.4312 192.5 9.88671 193.08 9.42653C193.66 8.96636 194.347 8.61356 195.141 8.36814C195.95 8.12271 196.836 8 197.798 8C198.652 8 199.492 8.10737 200.317 8.32212C201.141 8.52153 201.866 8.82064 202.492 9.21946C202.798 9.40353 203.004 9.64128 203.111 9.93272C203.233 10.2088 203.271 10.4926 203.225 10.784C203.195 11.0601 203.08 11.3056 202.882 11.5203C202.698 11.7351 202.462 11.8731 202.172 11.9345C201.882 11.9958 201.53 11.9268 201.118 11.7274C200.614 11.4666 200.08 11.2749 199.515 11.1522C198.95 11.0295 198.37 10.9681 197.775 10.9681C197.133 10.9681 196.584 11.0525 196.126 11.2212C195.683 11.3899 195.339 11.6277 195.095 11.9345C194.866 12.2413 194.752 12.5941 194.752 12.9929C194.752 13.4377 194.912 13.7982 195.233 14.0743C195.553 14.3504 196.11 14.5728 196.904 14.7415L199.492 15.2937C200.988 15.6159 202.103 16.1374 202.836 16.8583C203.569 17.5639 203.935 18.4996 203.935 19.6654C203.935 20.4323 203.782 21.1303 203.477 21.7592C203.172 22.3727 202.729 22.9019 202.149 23.3468C201.569 23.7916 200.874 24.1367 200.065 24.3821C199.256 24.6122 198.347 24.7273 197.339 24.7273Z" fill="#333333"/>
<path d="M61.3705 39.8995C61.1413 39.8995 60.9643 39.8426 60.8393 39.7289C60.7213 39.6086 60.6622 39.438 60.6622 39.2173V33.5095C60.6622 33.2888 60.7213 33.1216 60.8393 33.0079C60.9643 32.8876 61.1413 32.8274 61.3705 32.8274H63.8702C64.3841 32.8274 64.8215 32.9009 65.1826 33.0481C65.5437 33.1952 65.818 33.4058 66.0054 33.68C66.1999 33.9542 66.2971 34.2819 66.2971 34.6631C66.2971 35.0911 66.1686 35.4522 65.9117 35.7465C65.6548 36.0407 65.3041 36.238 64.8597 36.3383V36.1879C65.3736 36.2614 65.7728 36.4487 66.0575 36.7496C66.3422 37.0506 66.4846 37.4418 66.4846 37.9233C66.4846 38.5519 66.2624 39.0401 65.818 39.3879C65.3805 39.7289 64.7695 39.8995 63.9848 39.8995H61.3705ZM61.9434 38.9264H63.8182C64.2903 38.9264 64.6375 38.8395 64.8597 38.6656C65.0819 38.485 65.193 38.2175 65.193 37.8631C65.193 37.502 65.0819 37.2345 64.8597 37.0606C64.6375 36.8867 64.2903 36.7998 63.8182 36.7998H61.9434V38.9264ZM61.9434 35.8267H63.6411C64.0994 35.8267 64.4396 35.7431 64.6618 35.576C64.891 35.4021 65.0055 35.1479 65.0055 34.8136C65.0055 34.4792 64.891 34.2284 64.6618 34.0612C64.4396 33.8873 64.0994 33.8004 63.6411 33.8004H61.9434V35.8267Z" fill="#333333"/>
<path d="M71.3849 39.9998C70.6766 39.9998 70.0551 39.8493 69.5205 39.5484C68.9927 39.2474 68.5831 38.8261 68.2914 38.2844C67.9998 37.736 67.854 37.094 67.854 36.3584C67.854 35.8033 67.9373 35.3051 68.1039 34.8637C68.2706 34.4157 68.5067 34.0345 68.8122 33.7202C69.1247 33.3992 69.4962 33.1551 69.9267 32.9879C70.3641 32.814 70.8502 32.7271 71.3849 32.7271C72.1001 32.7271 72.7215 32.8775 73.2493 33.1785C73.777 33.4727 74.1867 33.8907 74.4783 34.4324C74.7699 34.9741 74.9158 35.6127 74.9158 36.3484C74.9158 36.9034 74.8324 37.405 74.6658 37.8531C74.4991 38.3011 74.2596 38.6857 73.9471 39.0067C73.6416 39.3277 73.2701 39.5751 72.8326 39.749C72.4021 39.9162 71.9195 39.9998 71.3849 39.9998ZM71.3849 38.8963C71.8362 38.8963 72.2181 38.796 72.5306 38.5954C72.85 38.3948 73.093 38.1039 73.2597 37.7227C73.4333 37.3415 73.5201 36.8867 73.5201 36.3584C73.5201 35.5559 73.3326 34.9339 72.9576 34.4926C72.5896 34.0512 72.0654 33.8305 71.3849 33.8305C70.9405 33.8305 70.5586 33.9308 70.2392 34.1314C69.9197 34.3254 69.6732 34.6129 69.4996 34.9941C69.333 35.3686 69.2497 35.8234 69.2497 36.3584C69.2497 37.1542 69.4371 37.7762 69.8121 38.2242C70.1871 38.6723 70.7113 38.8963 71.3849 38.8963Z" fill="#333333"/>
<path d="M79.5836 39.9998C79.0767 39.9998 78.6288 39.9362 78.24 39.8092C77.8581 39.6821 77.5352 39.4949 77.2713 39.2474C77.0075 38.9933 76.8096 38.679 76.6776 38.3045C76.5457 37.93 76.4797 37.4953 76.4797 37.0004V33.3992C76.4797 33.1785 76.5353 33.0146 76.6464 32.9076C76.7644 32.8006 76.9311 32.7471 77.1463 32.7471C77.3616 32.7471 77.5248 32.8006 77.6359 32.9076C77.7539 33.0146 77.8129 33.1785 77.8129 33.3992V36.9904C77.8129 37.6257 77.9622 38.1039 78.2608 38.4249C78.5663 38.7392 79.0073 38.8963 79.5836 38.8963C80.1599 38.8963 80.5974 38.7392 80.896 38.4249C81.1945 38.1039 81.3438 37.6257 81.3438 36.9904V33.3992C81.3438 33.1785 81.3994 33.0146 81.5105 32.9076C81.6285 32.8006 81.7952 32.7471 82.0104 32.7471C82.2187 32.7471 82.3784 32.8006 82.4895 32.9076C82.6076 33.0146 82.6666 33.1785 82.6666 33.3992V37.0004C82.6666 37.6558 82.5486 38.2075 82.3125 38.6556C82.0833 39.1036 81.7396 39.4414 81.2813 39.6687C80.823 39.8894 80.2571 39.9998 79.5836 39.9998Z" fill="#333333"/>
<path d="M85.1068 39.9797C84.9054 39.9797 84.7492 39.9262 84.6381 39.8192C84.5339 39.7122 84.4819 39.5584 84.4819 39.3578V33.3891C84.4819 33.1818 84.5339 33.0246 84.6381 32.9176C84.7492 32.804 84.8915 32.7471 85.0651 32.7471C85.2248 32.7471 85.3429 32.7772 85.4193 32.8374C85.5026 32.8909 85.5998 32.9845 85.7109 33.1183L89.7001 38.1039H89.4293V33.359C89.4293 33.1651 89.4814 33.0146 89.5855 32.9076C89.6966 32.8006 89.8528 32.7471 90.0542 32.7471C90.2556 32.7471 90.4083 32.8006 90.5125 32.9076C90.6167 33.0146 90.6687 33.1651 90.6687 33.359V39.3778C90.6687 39.5651 90.6201 39.7122 90.5229 39.8192C90.4257 39.9262 90.2938 39.9797 90.1271 39.9797C89.9674 39.9797 89.839 39.9496 89.7417 39.8894C89.6515 39.8292 89.5508 39.7323 89.4397 39.5985L85.4609 34.6129H85.7213V39.3578C85.7213 39.5584 85.6692 39.7122 85.5651 39.8192C85.4609 39.9262 85.3082 39.9797 85.1068 39.9797Z" fill="#333333"/>
<path d="M93.2419 39.8995C93.0127 39.8995 92.8357 39.8426 92.7107 39.7289C92.5926 39.6086 92.5336 39.438 92.5336 39.2173V33.5095C92.5336 33.2888 92.5926 33.1216 92.7107 33.0079C92.8357 32.8876 93.0127 32.8274 93.2419 32.8274H95.2625C96.4916 32.8274 97.4394 33.1316 98.106 33.7402C98.7795 34.3488 99.1163 35.2215 99.1163 36.3584C99.1163 36.9268 99.0295 37.4318 98.8559 37.8731C98.6893 38.3078 98.4393 38.6756 98.106 38.9766C97.7796 39.2775 97.3769 39.5082 96.8978 39.6687C96.4256 39.8226 95.8805 39.8995 95.2625 39.8995H93.2419ZM93.8668 38.8361H95.1792C95.6097 38.8361 95.9812 38.786 96.2937 38.6857C96.6131 38.5787 96.8769 38.4249 97.0852 38.2242C97.3005 38.0169 97.4602 37.7594 97.5644 37.4518C97.6685 37.1375 97.7206 36.773 97.7206 36.3584C97.7206 35.5291 97.5088 34.9105 97.0852 34.5026C96.6617 34.0947 96.0263 33.8907 95.1792 33.8907H93.8668V38.8361Z" fill="#333333"/>
<path d="M101.405 39.8995C101.19 39.8995 101.023 39.8426 100.905 39.7289C100.787 39.6086 100.728 39.4447 100.728 39.2374V33.4493C100.728 33.2353 100.783 33.0748 100.894 32.9678C101.012 32.8541 101.179 32.7973 101.394 32.7973C101.61 32.7973 101.773 32.8541 101.884 32.9678C102.002 33.0748 102.061 33.2353 102.061 33.4493V38.806H105.082C105.269 38.806 105.411 38.8529 105.509 38.9465C105.613 39.0401 105.665 39.1739 105.665 39.3477C105.665 39.5216 105.613 39.6587 105.509 39.759C105.411 39.8527 105.269 39.8995 105.082 39.8995H101.405Z" fill="#333333"/>
<path d="M107.545 39.8995C107.316 39.8995 107.139 39.8426 107.014 39.7289C106.896 39.6086 106.837 39.438 106.837 39.2173V33.5095C106.837 33.2888 106.896 33.1216 107.014 33.0079C107.139 32.8876 107.316 32.8274 107.545 32.8274H111.263C111.437 32.8274 111.569 32.8708 111.659 32.9578C111.756 33.0447 111.805 33.1684 111.805 33.3289C111.805 33.4961 111.756 33.6265 111.659 33.7202C111.569 33.8071 111.437 33.8506 111.263 33.8506H108.118V35.7966H111.034C111.215 35.7966 111.35 35.8401 111.44 35.9271C111.531 36.014 111.576 36.1411 111.576 36.3082C111.576 36.4754 111.531 36.6025 111.44 36.6894C111.35 36.7764 111.215 36.8198 111.034 36.8198H108.118V38.8763H111.263C111.437 38.8763 111.569 38.9197 111.659 39.0067C111.756 39.0936 111.805 39.2207 111.805 39.3879C111.805 39.5551 111.756 39.6821 111.659 39.7691C111.569 39.856 111.437 39.8995 111.263 39.8995H107.545Z" fill="#333333"/>
<path d="M115.741 39.9998C115.436 39.9998 115.13 39.9764 114.825 39.9296C114.519 39.8894 114.231 39.8259 113.96 39.739C113.689 39.6453 113.446 39.5316 113.231 39.3979C113.106 39.3176 113.019 39.2207 112.971 39.107C112.922 38.9933 112.905 38.883 112.919 38.776C112.939 38.6623 112.985 38.5653 113.054 38.485C113.13 38.3981 113.224 38.3446 113.335 38.3245C113.446 38.3045 113.568 38.3346 113.7 38.4148C114.005 38.5887 114.328 38.7158 114.668 38.796C115.009 38.8763 115.366 38.9164 115.741 38.9164C116.29 38.9164 116.689 38.8295 116.939 38.6556C117.189 38.475 117.314 38.2443 117.314 37.9634C117.314 37.7294 117.224 37.5454 117.043 37.4117C116.87 37.2779 116.568 37.1676 116.137 37.0807L114.991 36.8499C114.332 36.7162 113.839 36.4922 113.512 36.1778C113.193 35.8568 113.033 35.4355 113.033 34.9139C113.033 34.5862 113.103 34.2886 113.241 34.0211C113.38 33.7536 113.575 33.5229 113.825 33.3289C114.082 33.135 114.384 32.9879 114.731 32.8876C115.085 32.7806 115.474 32.7271 115.897 32.7271C116.314 32.7271 116.71 32.7772 117.085 32.8775C117.46 32.9778 117.797 33.125 118.095 33.3189C118.206 33.3925 118.279 33.4827 118.314 33.5897C118.356 33.6967 118.366 33.8037 118.345 33.9108C118.324 34.0111 118.276 34.098 118.199 34.1716C118.123 34.2451 118.026 34.2886 117.908 34.302C117.797 34.3153 117.668 34.2819 117.522 34.2017C117.265 34.0612 117.005 33.9609 116.741 33.9007C116.477 33.8405 116.193 33.8104 115.887 33.8104C115.568 33.8104 115.293 33.8539 115.064 33.9408C114.835 34.0278 114.658 34.1515 114.533 34.312C114.415 34.4658 114.356 34.6497 114.356 34.8637C114.356 35.1045 114.439 35.2984 114.606 35.4455C114.773 35.586 115.057 35.6963 115.46 35.7766L116.595 36.0073C117.283 36.1477 117.793 36.3684 118.126 36.6694C118.467 36.9703 118.637 37.3716 118.637 37.8731C118.637 38.1941 118.567 38.485 118.428 38.7459C118.297 39.0067 118.102 39.2307 117.845 39.418C117.595 39.6052 117.293 39.749 116.939 39.8493C116.585 39.9496 116.186 39.9998 115.741 39.9998Z" fill="#333333"/>
<path d="M122.572 39.9998C122.267 39.9998 121.961 39.9764 121.656 39.9296C121.35 39.8894 121.062 39.8259 120.791 39.739C120.521 39.6453 120.278 39.5316 120.062 39.3979C119.937 39.3176 119.85 39.2207 119.802 39.107C119.753 38.9933 119.736 38.883 119.75 38.776C119.771 38.6623 119.816 38.5653 119.885 38.485C119.962 38.3981 120.055 38.3446 120.166 38.3245C120.278 38.3045 120.399 38.3346 120.531 38.4148C120.836 38.5887 121.159 38.7158 121.5 38.796C121.84 38.8763 122.197 38.9164 122.572 38.9164C123.121 38.9164 123.52 38.8295 123.77 38.6556C124.02 38.475 124.145 38.2443 124.145 37.9634C124.145 37.7294 124.055 37.5454 123.874 37.4117C123.701 37.2779 123.399 37.1676 122.968 37.0807L121.823 36.8499C121.163 36.7162 120.67 36.4922 120.343 36.1778C120.024 35.8568 119.864 35.4355 119.864 34.9139C119.864 34.5862 119.934 34.2886 120.073 34.0211C120.212 33.7536 120.406 33.5229 120.656 33.3289C120.913 33.135 121.215 32.9879 121.562 32.8876C121.916 32.7806 122.305 32.7271 122.729 32.7271C123.145 32.7271 123.541 32.7772 123.916 32.8775C124.291 32.9778 124.628 33.125 124.926 33.3189C125.037 33.3925 125.11 33.4827 125.145 33.5897C125.187 33.6967 125.197 33.8037 125.176 33.9108C125.156 34.0111 125.107 34.098 125.031 34.1716C124.954 34.2451 124.857 34.2886 124.739 34.302C124.628 34.3153 124.499 34.2819 124.353 34.2017C124.097 34.0612 123.836 33.9609 123.572 33.9007C123.308 33.8405 123.024 33.8104 122.718 33.8104C122.399 33.8104 122.125 33.8539 121.895 33.9408C121.666 34.0278 121.489 34.1515 121.364 34.312C121.246 34.4658 121.187 34.6497 121.187 34.8637C121.187 35.1045 121.27 35.2984 121.437 35.4455C121.604 35.586 121.888 35.6963 122.291 35.7766L123.427 36.0073C124.114 36.1477 124.624 36.3684 124.958 36.6694C125.298 36.9703 125.468 37.3716 125.468 37.8731C125.468 38.1941 125.399 38.485 125.26 38.7459C125.128 39.0067 124.933 39.2307 124.676 39.418C124.426 39.6052 124.124 39.749 123.77 39.8493C123.416 39.9496 123.017 39.9998 122.572 39.9998Z" fill="#333333"/>
<path d="M130.627 39.9797C130.412 39.9797 130.245 39.9229 130.127 39.8092C130.016 39.6888 129.961 39.525 129.961 39.3176V33.4794C129.961 33.2654 130.02 33.1049 130.138 32.9979C130.256 32.8842 130.422 32.8274 130.638 32.8274H133.148C133.953 32.8274 134.575 33.0213 135.012 33.4092C135.45 33.7971 135.668 34.3388 135.668 35.0343C135.668 35.7298 135.45 36.2748 135.012 36.6694C134.575 37.0572 133.953 37.2512 133.148 37.2512H131.294V39.3176C131.294 39.525 131.238 39.6888 131.127 39.8092C131.016 39.9229 130.849 39.9797 130.627 39.9797ZM131.294 36.238H132.94C133.412 36.238 133.769 36.1377 134.012 35.9371C134.255 35.7298 134.377 35.4288 134.377 35.0343C134.377 34.6397 134.255 34.3421 134.012 34.1415C133.769 33.9408 133.412 33.8405 132.94 33.8405H131.294V36.238Z" fill="#333333"/>
<path d="M140.256 39.9998C139.548 39.9998 138.926 39.8493 138.392 39.5484C137.864 39.2474 137.454 38.8261 137.163 38.2844C136.871 37.736 136.725 37.094 136.725 36.3584C136.725 35.8033 136.809 35.3051 136.975 34.8637C137.142 34.4157 137.378 34.0345 137.683 33.7202C137.996 33.3992 138.367 33.1551 138.798 32.9879C139.235 32.814 139.721 32.7271 140.256 32.7271C140.971 32.7271 141.593 32.8775 142.121 33.1785C142.648 33.4727 143.058 33.8907 143.35 34.4324C143.641 34.9741 143.787 35.6127 143.787 36.3484C143.787 36.9034 143.704 37.405 143.537 37.8531C143.37 38.3011 143.131 38.6857 142.818 39.0067C142.513 39.3277 142.141 39.5751 141.704 39.749C141.273 39.9162 140.791 39.9998 140.256 39.9998ZM140.256 38.8963C140.707 38.8963 141.089 38.796 141.402 38.5954C141.721 38.3948 141.964 38.1039 142.131 37.7227C142.305 37.3415 142.391 36.8867 142.391 36.3584C142.391 35.5559 142.204 34.9339 141.829 34.4926C141.461 34.0512 140.937 33.8305 140.256 33.8305C139.812 33.8305 139.43 33.9308 139.11 34.1314C138.791 34.3254 138.544 34.6129 138.371 34.9941C138.204 35.3686 138.121 35.8234 138.121 36.3584C138.121 37.1542 138.308 37.7762 138.683 38.2242C139.058 38.6723 139.583 38.8963 140.256 38.8963Z" fill="#333333"/>
<path d="M147.934 39.9998C147.629 39.9998 147.323 39.9764 147.017 39.9296C146.712 39.8894 146.424 39.8259 146.153 39.739C145.882 39.6453 145.639 39.5316 145.424 39.3979C145.299 39.3176 145.212 39.2207 145.163 39.107C145.115 38.9933 145.098 38.883 145.111 38.776C145.132 38.6623 145.177 38.5653 145.247 38.485C145.323 38.3981 145.417 38.3446 145.528 38.3245C145.639 38.3045 145.761 38.3346 145.893 38.4148C146.198 38.5887 146.521 38.7158 146.861 38.796C147.201 38.8763 147.559 38.9164 147.934 38.9164C148.483 38.9164 148.882 38.8295 149.132 38.6556C149.382 38.475 149.507 38.2443 149.507 37.9634C149.507 37.7294 149.417 37.5454 149.236 37.4117C149.062 37.2779 148.76 37.1676 148.33 37.0807L147.184 36.8499C146.524 36.7162 146.031 36.4922 145.705 36.1778C145.386 35.8568 145.226 35.4355 145.226 34.9139C145.226 34.5862 145.295 34.2886 145.434 34.0211C145.573 33.7536 145.768 33.5229 146.018 33.3289C146.274 33.135 146.577 32.9879 146.924 32.8876C147.278 32.7806 147.667 32.7271 148.09 32.7271C148.507 32.7271 148.903 32.7772 149.278 32.8775C149.653 32.9778 149.989 33.125 150.288 33.3189C150.399 33.3925 150.472 33.4827 150.507 33.5897C150.548 33.6967 150.559 33.8037 150.538 33.9108C150.517 34.0111 150.469 34.098 150.392 34.1716C150.316 34.2451 150.219 34.2886 150.101 34.302C149.989 34.3153 149.861 34.2819 149.715 34.2017C149.458 34.0612 149.198 33.9609 148.934 33.9007C148.67 33.8405 148.385 33.8104 148.08 33.8104C147.76 33.8104 147.486 33.8539 147.257 33.9408C147.028 34.0278 146.851 34.1515 146.726 34.312C146.608 34.4658 146.549 34.6497 146.549 34.8637C146.549 35.1045 146.632 35.2984 146.799 35.4455C146.965 35.586 147.25 35.6963 147.653 35.7766L148.788 36.0073C149.476 36.1477 149.986 36.3684 150.319 36.6694C150.659 36.9703 150.83 37.3716 150.83 37.8731C150.83 38.1941 150.76 38.485 150.621 38.7459C150.489 39.0067 150.295 39.2307 150.038 39.418C149.788 39.6052 149.486 39.749 149.132 39.8493C148.778 39.9496 148.378 39.9998 147.934 39.9998Z" fill="#333333"/>
<path d="M154.765 39.9998C154.46 39.9998 154.154 39.9764 153.849 39.9296C153.543 39.8894 153.255 39.8259 152.984 39.739C152.713 39.6453 152.47 39.5316 152.255 39.3979C152.13 39.3176 152.043 39.2207 151.995 39.107C151.946 38.9933 151.929 38.883 151.943 38.776C151.963 38.6623 152.009 38.5653 152.078 38.485C152.154 38.3981 152.248 38.3446 152.359 38.3245C152.47 38.3045 152.592 38.3346 152.724 38.4148C153.029 38.5887 153.352 38.7158 153.692 38.796C154.033 38.8763 154.39 38.9164 154.765 38.9164C155.314 38.9164 155.713 38.8295 155.963 38.6556C156.213 38.475 156.338 38.2443 156.338 37.9634C156.338 37.7294 156.248 37.5454 156.067 37.4117C155.894 37.2779 155.592 37.1676 155.161 37.0807L154.015 36.8499C153.356 36.7162 152.863 36.4922 152.536 36.1778C152.217 35.8568 152.057 35.4355 152.057 34.9139C152.057 34.5862 152.127 34.2886 152.265 34.0211C152.404 33.7536 152.599 33.5229 152.849 33.3289C153.106 33.135 153.408 32.9879 153.755 32.8876C154.109 32.7806 154.498 32.7271 154.921 32.7271C155.338 32.7271 155.734 32.7772 156.109 32.8775C156.484 32.9778 156.821 33.125 157.119 33.3189C157.23 33.3925 157.303 33.4827 157.338 33.5897C157.38 33.6967 157.39 33.8037 157.369 33.9108C157.348 34.0111 157.3 34.098 157.223 34.1716C157.147 34.2451 157.05 34.2886 156.932 34.302C156.821 34.3153 156.692 34.2819 156.546 34.2017C156.289 34.0612 156.029 33.9609 155.765 33.9007C155.501 33.8405 155.217 33.8104 154.911 33.8104C154.592 33.8104 154.317 33.8539 154.088 33.9408C153.859 34.0278 153.682 34.1515 153.557 34.312C153.439 34.4658 153.38 34.6497 153.38 34.8637C153.38 35.1045 153.463 35.2984 153.63 35.4455C153.797 35.586 154.081 35.6963 154.484 35.7766L155.619 36.0073C156.307 36.1477 156.817 36.3684 157.15 36.6694C157.491 36.9703 157.661 37.3716 157.661 37.8731C157.661 38.1941 157.591 38.485 157.452 38.7459C157.321 39.0067 157.126 39.2307 156.869 39.418C156.619 39.6052 156.317 39.749 155.963 39.8493C155.609 39.9496 155.21 39.9998 154.765 39.9998Z" fill="#333333"/>
<path d="M159.732 39.9797C159.517 39.9797 159.35 39.9229 159.232 39.8092C159.121 39.6888 159.065 39.525 159.065 39.3176V33.4092C159.065 33.1952 159.121 33.0313 159.232 32.9176C159.35 32.804 159.517 32.7471 159.732 32.7471C159.947 32.7471 160.11 32.804 160.222 32.9176C160.34 33.0313 160.399 33.1952 160.399 33.4092V39.3176C160.399 39.525 160.343 39.6888 160.232 39.8092C160.121 39.9229 159.954 39.9797 159.732 39.9797Z" fill="#333333"/>
<path d="M162.974 39.8995C162.744 39.8995 162.567 39.8426 162.442 39.7289C162.324 39.6086 162.265 39.438 162.265 39.2173V33.5095C162.265 33.2888 162.324 33.1216 162.442 33.0079C162.567 32.8876 162.744 32.8274 162.974 32.8274H165.473C165.987 32.8274 166.425 32.9009 166.786 33.0481C167.147 33.1952 167.421 33.4058 167.609 33.68C167.803 33.9542 167.9 34.2819 167.9 34.6631C167.9 35.0911 167.772 35.4522 167.515 35.7465C167.258 36.0407 166.907 36.238 166.463 36.3383V36.1879C166.977 36.2614 167.376 36.4487 167.661 36.7496C167.945 37.0506 168.088 37.4418 168.088 37.9233C168.088 38.5519 167.866 39.0401 167.421 39.3879C166.984 39.7289 166.373 39.8995 165.588 39.8995H162.974ZM163.546 38.9264H165.421C165.893 38.9264 166.241 38.8395 166.463 38.6656C166.685 38.485 166.796 38.2175 166.796 37.8631C166.796 37.502 166.685 37.2345 166.463 37.0606C166.241 36.8867 165.893 36.7998 165.421 36.7998H163.546V38.9264ZM163.546 35.8267H165.244C165.703 35.8267 166.043 35.7431 166.265 35.576C166.494 35.4021 166.609 35.1479 166.609 34.8136C166.609 34.4792 166.494 34.2284 166.265 34.0612C166.043 33.8873 165.703 33.8004 165.244 33.8004H163.546V35.8267Z" fill="#333333"/>
<path d="M170.363 39.9797C170.148 39.9797 169.981 39.9229 169.863 39.8092C169.752 39.6888 169.697 39.525 169.697 39.3176V33.4092C169.697 33.1952 169.752 33.0313 169.863 32.9176C169.981 32.804 170.148 32.7471 170.363 32.7471C170.579 32.7471 170.742 32.804 170.853 32.9176C170.971 33.0313 171.03 33.1952 171.03 33.4092V39.3176C171.03 39.525 170.974 39.6888 170.863 39.8092C170.752 39.9229 170.585 39.9797 170.363 39.9797Z" fill="#333333"/>
<path d="M173.574 39.8995C173.358 39.8995 173.192 39.8426 173.074 39.7289C172.956 39.6086 172.897 39.4447 172.897 39.2374V33.4493C172.897 33.2353 172.952 33.0748 173.063 32.9678C173.181 32.8541 173.348 32.7973 173.563 32.7973C173.778 32.7973 173.942 32.8541 174.053 32.9678C174.171 33.0748 174.23 33.2353 174.23 33.4493V38.806H177.25C177.438 38.806 177.58 38.8529 177.677 38.9465C177.782 39.0401 177.834 39.1739 177.834 39.3477C177.834 39.5216 177.782 39.6587 177.677 39.759C177.58 39.8527 177.438 39.8995 177.25 39.8995H173.574Z" fill="#333333"/>
<path d="M179.672 39.9797C179.457 39.9797 179.29 39.9229 179.172 39.8092C179.061 39.6888 179.006 39.525 179.006 39.3176V33.4092C179.006 33.1952 179.061 33.0313 179.172 32.9176C179.29 32.804 179.457 32.7471 179.672 32.7471C179.887 32.7471 180.051 32.804 180.162 32.9176C180.28 33.0313 180.339 33.1952 180.339 33.4092V39.3176C180.339 39.525 180.283 39.6888 180.172 39.8092C180.061 39.9229 179.894 39.9797 179.672 39.9797Z" fill="#333333"/>
<path d="M184.643 39.9797C184.428 39.9797 184.261 39.9229 184.143 39.8092C184.032 39.6888 183.976 39.525 183.976 39.3176V33.9007H181.945C181.765 33.9007 181.622 33.8539 181.518 33.7603C181.421 33.66 181.372 33.5262 181.372 33.359C181.372 33.1851 181.421 33.0547 181.518 32.9678C181.622 32.8742 181.765 32.8274 181.945 32.8274H187.34C187.521 32.8274 187.66 32.8742 187.757 32.9678C187.861 33.0547 187.913 33.1851 187.913 33.359C187.913 33.5262 187.861 33.66 187.757 33.7603C187.66 33.8539 187.521 33.9007 187.34 33.9007H185.309V39.3176C185.309 39.525 185.254 39.6888 185.143 39.8092C185.032 39.9229 184.865 39.9797 184.643 39.9797Z" fill="#333333"/>
<path d="M189.602 39.9797C189.386 39.9797 189.22 39.9229 189.102 39.8092C188.991 39.6888 188.935 39.525 188.935 39.3176V33.4092C188.935 33.1952 188.991 33.0313 189.102 32.9176C189.22 32.804 189.386 32.7471 189.602 32.7471C189.817 32.7471 189.98 32.804 190.091 32.9176C190.209 33.0313 190.268 33.1952 190.268 33.4092V39.3176C190.268 39.525 190.213 39.6888 190.102 39.8092C189.991 39.9229 189.824 39.9797 189.602 39.9797Z" fill="#333333"/>
<path d="M192.843 39.8995C192.614 39.8995 192.437 39.8426 192.312 39.7289C192.194 39.6086 192.135 39.438 192.135 39.2173V33.5095C192.135 33.2888 192.194 33.1216 192.312 33.0079C192.437 32.8876 192.614 32.8274 192.843 32.8274H196.562C196.735 32.8274 196.867 32.8708 196.957 32.9578C197.055 33.0447 197.103 33.1684 197.103 33.3289C197.103 33.4961 197.055 33.6265 196.957 33.7202C196.867 33.8071 196.735 33.8506 196.562 33.8506H193.416V35.7966H196.333C196.513 35.7966 196.648 35.8401 196.739 35.9271C196.829 36.014 196.874 36.1411 196.874 36.3082C196.874 36.4754 196.829 36.6025 196.739 36.6894C196.648 36.7764 196.513 36.8198 196.333 36.8198H193.416V38.8763H196.562C196.735 38.8763 196.867 38.9197 196.957 39.0067C197.055 39.0936 197.103 39.2207 197.103 39.3879C197.103 39.5551 197.055 39.6821 196.957 39.7691C196.867 39.856 196.735 39.8995 196.562 39.8995H192.843Z" fill="#333333"/>
<path d="M201.039 39.9998C200.734 39.9998 200.428 39.9764 200.123 39.9296C199.817 39.8894 199.529 39.8259 199.258 39.739C198.988 39.6453 198.745 39.5316 198.529 39.3979C198.404 39.3176 198.318 39.2207 198.269 39.107C198.22 38.9933 198.203 38.883 198.217 38.776C198.238 38.6623 198.283 38.5653 198.352 38.485C198.429 38.3981 198.522 38.3446 198.633 38.3245C198.745 38.3045 198.866 38.3346 198.998 38.4148C199.304 38.5887 199.626 38.7158 199.967 38.796C200.307 38.8763 200.665 38.9164 201.039 38.9164C201.588 38.9164 201.987 38.8295 202.237 38.6556C202.487 38.475 202.612 38.2443 202.612 37.9634C202.612 37.7294 202.522 37.5454 202.341 37.4117C202.168 37.2779 201.866 37.1676 201.435 37.0807L200.29 36.8499C199.63 36.7162 199.137 36.4922 198.811 36.1778C198.491 35.8568 198.331 35.4355 198.331 34.9139C198.331 34.5862 198.401 34.2886 198.54 34.0211C198.679 33.7536 198.873 33.5229 199.123 33.3289C199.38 33.135 199.682 32.9879 200.029 32.8876C200.383 32.7806 200.772 32.7271 201.196 32.7271C201.612 32.7271 202.008 32.7772 202.383 32.8775C202.758 32.9778 203.095 33.125 203.393 33.3189C203.505 33.3925 203.577 33.4827 203.612 33.5897C203.654 33.6967 203.664 33.8037 203.643 33.9108C203.623 34.0111 203.574 34.098 203.498 34.1716C203.421 34.2451 203.324 34.2886 203.206 34.302C203.095 34.3153 202.966 34.2819 202.821 34.2017C202.564 34.0612 202.303 33.9609 202.039 33.9007C201.776 33.8405 201.491 33.8104 201.185 33.8104C200.866 33.8104 200.592 33.8539 200.362 33.9408C200.133 34.0278 199.956 34.1515 199.831 34.312C199.713 34.4658 199.654 34.6497 199.654 34.8637C199.654 35.1045 199.738 35.2984 199.904 35.4455C200.071 35.586 200.356 35.6963 200.758 35.7766L201.894 36.0073C202.581 36.1477 203.091 36.3684 203.425 36.6694C203.765 36.9703 203.935 37.3716 203.935 37.8731C203.935 38.1941 203.866 38.485 203.727 38.7459C203.595 39.0067 203.4 39.2307 203.143 39.418C202.893 39.6052 202.591 39.749 202.237 39.8493C201.883 39.9496 201.484 39.9998 201.039 39.9998Z" fill="#333333"/>
</svg>
