<svg width="204" height="48" viewBox="0 0 204 48" fill="none" xmlns="http://www.w3.org/2000/svg">
<rect x="11.7416" y="7.92627" width="24.9673" height="34.4787" fill="white"/>
<path fill-rule="evenodd" clip-rule="evenodd" d="M41.6533 0H7.63681C3.77535 0 0.64502 3.13032 0.64502 6.99178V41.0082C0.64502 44.8697 3.77534 48 7.6368 48H41.6533C45.5147 48 48.645 44.8697 48.645 41.0082V6.99178C48.645 3.13033 45.5147 0 41.6533 0ZM24.666 23.5433C23.545 23.5433 22.6482 23.2359 21.9755 22.6211C21.3309 21.9796 21.0086 21.151 21.0086 20.1353C21.0086 19.1196 21.3309 18.3043 21.9755 17.6895C22.6482 17.048 23.545 16.7273 24.666 16.7273C25.7871 16.7273 26.6559 17.048 27.2724 17.6895C27.917 18.3043 28.2393 19.1196 28.2393 20.1353C28.2393 21.151 27.917 21.9796 27.2724 22.6211C26.6559 23.2359 25.7871 23.5433 24.666 23.5433ZM25.5068 37.7135C25.0864 38.1946 24.638 38.4619 24.1616 38.5154C23.6851 38.5956 23.2787 38.5154 22.9424 38.2748C22.6061 38.0343 22.4099 37.6868 22.3539 37.2324C22.3259 36.8047 22.5361 36.337 22.9845 35.8291C23.3488 35.4014 23.6291 34.9738 23.8253 34.5461C24.0495 34.1452 24.2176 33.7442 24.3297 33.3433C23.3208 33.2631 22.508 32.9156 21.8915 32.3008C21.3029 31.6861 21.0086 30.8842 21.0086 29.8952C21.0086 28.9062 21.3309 28.1043 21.9755 27.4896C22.6201 26.8481 23.503 26.5273 24.624 26.5273C25.745 26.5273 26.6278 26.9015 27.2724 27.6499C27.9451 28.3716 28.2814 29.4007 28.2814 30.7372C28.2814 31.7796 28.0992 32.8622 27.7349 33.9848C27.3986 35.1074 26.6559 36.3503 25.5068 37.7135ZM26.0996 11.6364C26.0996 12.4397 25.4484 13.0909 24.645 13.0909C23.8417 13.0909 23.1905 12.4397 23.1905 11.6364C23.1905 10.8331 23.8417 10.1818 24.645 10.1818C25.4484 10.1818 26.0996 10.8331 26.0996 11.6364ZM30.4632 15.2727C31.2665 15.2727 31.9177 14.6215 31.9177 13.8182C31.9177 13.0149 31.2665 12.3637 30.4632 12.3637C29.6599 12.3637 29.0087 13.0149 29.0087 13.8182C29.0087 14.6215 29.6599 15.2727 30.4632 15.2727ZM16.645 13.8182C16.645 14.6215 17.4591 15.2727 18.4632 15.2727C19.4674 15.2727 20.2814 14.6215 20.2814 13.8182C20.2814 13.0149 19.4674 12.3637 18.4632 12.3637C17.4591 12.3637 16.645 13.0149 16.645 13.8182ZM33.0087 21.0909C34.0128 21.0909 34.8269 20.2769 34.8269 19.2727C34.8269 18.2686 34.0128 17.4546 33.0087 17.4546C32.0045 17.4546 31.1905 18.2686 31.1905 19.2727C31.1905 20.2769 32.0045 21.0909 33.0087 21.0909ZM14.4632 19.2727C14.4632 20.2769 15.1144 21.0909 15.9178 21.0909C16.7211 21.0909 17.3723 20.2769 17.3723 19.2727C17.3723 18.2686 16.7211 17.4546 15.9178 17.4546C15.1144 17.4546 14.4632 18.2686 14.4632 19.2727Z" fill="#9563FF"/>
<path d="M66.0937 24.7273C65.4524 24.7273 64.7959 24.6736 64.1241 24.5662C63.4676 24.4742 62.834 24.3361 62.2233 24.1521C61.6279 23.968 61.0935 23.7379 60.6202 23.4618C60.2843 23.2777 60.0477 23.04 59.9103 22.7485C59.7729 22.4418 59.7194 22.135 59.75 21.8282C59.7958 21.5214 59.9103 21.253 60.0935 21.0229C60.292 20.7775 60.5362 20.6241 60.8263 20.5627C61.1317 20.486 61.4676 20.5397 61.834 20.7238C62.46 21.0766 63.1394 21.3373 63.8722 21.5061C64.6203 21.6748 65.3608 21.7592 66.0937 21.7592C67.2082 21.7592 68.0021 21.5904 68.4754 21.253C68.9487 20.9002 69.1853 20.463 69.1853 19.9415C69.1853 19.4966 69.0174 19.1438 68.6815 18.8831C68.3456 18.6223 67.7578 18.3999 66.9181 18.2158L64.3302 17.6636C62.8646 17.3568 61.7729 16.8353 61.0553 16.099C60.353 15.3474 60.0019 14.3657 60.0019 13.1539C60.0019 12.387 60.1622 11.689 60.4828 11.0601C60.8034 10.4312 61.2538 9.88671 61.834 9.42653C62.4142 8.96636 63.1012 8.61356 63.8951 8.36814C64.7043 8.12271 65.5898 8 66.5517 8C67.4067 8 68.2464 8.10737 69.0708 8.32212C69.8953 8.52153 70.6205 8.82064 71.2465 9.21946C71.5518 9.40353 71.7579 9.64128 71.8648 9.93272C71.987 10.2088 72.0251 10.4926 71.9793 10.784C71.9488 11.0601 71.8343 11.3056 71.6358 11.5203C71.4526 11.7351 71.2159 11.8731 70.9259 11.9345C70.6358 11.9958 70.2846 11.9268 69.8724 11.7274C69.3686 11.4666 68.8342 11.2749 68.2693 11.1522C67.7044 11.0295 67.1242 10.9681 66.5288 10.9681C65.8875 10.9681 65.3379 11.0525 64.8799 11.2212C64.4371 11.3899 64.0936 11.6277 63.8493 11.9345C63.6203 12.2413 63.5058 12.5941 63.5058 12.9929C63.5058 13.4377 63.6661 13.7982 63.9867 14.0743C64.3073 14.3504 64.8646 14.5728 65.6585 14.7415L68.2464 15.2937C69.7426 15.6159 70.8572 16.1374 71.59 16.8583C72.3228 17.5639 72.6893 18.4996 72.6893 19.6654C72.6893 20.4323 72.5366 21.1303 72.2312 21.7592C71.9259 22.3727 71.4831 22.9019 70.903 23.3468C70.3228 23.7916 69.6281 24.1367 68.8189 24.3821C68.0097 24.6122 67.1013 24.7273 66.0937 24.7273Z" fill="#333333"/>
<path d="M77.2152 24.6813C76.6961 24.6813 76.2991 24.5355 76.0243 24.2441C75.7495 23.9527 75.6121 23.5462 75.6121 23.0246V9.70264C75.6121 9.18111 75.7571 8.77462 76.0472 8.48318C76.3525 8.19174 76.7648 8.04602 77.2839 8.04602C77.7419 8.04602 78.1007 8.13805 78.3602 8.32212C78.635 8.49085 78.887 8.78996 79.116 9.21946L84.4062 18.9291H83.6276L88.9178 9.21946C89.1468 8.78996 89.3911 8.49085 89.6506 8.32212C89.9254 8.13805 90.2842 8.04602 90.727 8.04602C91.2461 8.04602 91.643 8.19174 91.9179 8.48318C92.208 8.77462 92.353 9.18111 92.353 9.70264V23.0246C92.353 23.5462 92.2156 23.9527 91.9408 24.2441C91.666 24.5355 91.269 24.6813 90.7499 24.6813C90.2308 24.6813 89.8262 24.5355 89.5361 24.2441C89.2613 23.9527 89.1239 23.5462 89.1239 23.0246V13.7061H89.6277L85.3681 21.368C85.1849 21.6595 84.9864 21.8819 84.7726 22.0353C84.5741 22.1733 84.307 22.2423 83.9711 22.2423C83.6352 22.2423 83.3604 22.1656 83.1466 22.0123C82.9329 21.8589 82.742 21.6441 82.5741 21.368L78.2686 13.6831H78.8183V23.0246C78.8183 23.5462 78.6808 23.9527 78.406 24.2441C78.1465 24.5355 77.7495 24.6813 77.2152 24.6813Z" fill="#333333"/>
<path d="M96.6579 24.6813C96.2304 24.6813 95.8793 24.5816 95.6045 24.3821C95.3449 24.1827 95.177 23.9143 95.1006 23.5768C95.0396 23.2394 95.1083 22.8636 95.3067 22.4494L101.17 9.54158C101.414 9.02005 101.704 8.64424 102.04 8.41416C102.376 8.16873 102.765 8.04602 103.208 8.04602C103.65 8.04602 104.04 8.16873 104.376 8.41416C104.712 8.64424 104.994 9.02005 105.223 9.54158L111.132 22.4494C111.33 22.8636 111.399 23.2471 111.338 23.5999C111.292 23.9373 111.139 24.2057 110.88 24.4052C110.62 24.5892 110.284 24.6813 109.872 24.6813C109.353 24.6813 108.948 24.5585 108.658 24.3131C108.383 24.0677 108.139 23.6842 107.925 23.1627L106.551 19.9645L107.971 20.9539H98.4213L99.8412 19.9645L98.49 23.1627C98.261 23.6996 98.0167 24.0907 97.7572 24.3361C97.5129 24.5662 97.1465 24.6813 96.6579 24.6813ZM103.162 12.0495L100.231 19.0672L99.6122 18.1698H106.78L106.162 19.0672L103.208 12.0495H103.162Z" fill="#333333"/>
<path d="M115.802 24.6813C115.222 24.6813 114.779 24.5202 114.474 24.1981C114.168 23.876 114.016 23.4235 114.016 22.8406V10.0708C114.016 9.47255 114.168 9.02005 114.474 8.71327C114.794 8.40648 115.245 8.25309 115.825 8.25309H121.39C123.191 8.25309 124.581 8.69026 125.558 9.56459C126.535 10.4389 127.024 11.6584 127.024 13.223C127.024 14.2353 126.802 15.1097 126.359 15.8459C125.917 16.5822 125.275 17.1498 124.436 17.5486C123.611 17.9474 122.596 18.1468 121.39 18.1468L121.573 17.7557H122.512C123.153 17.7557 123.711 17.9167 124.184 18.2388C124.672 18.5456 125.092 19.0211 125.443 19.6654L126.863 22.3114C127.077 22.6948 127.176 23.0707 127.161 23.4388C127.146 23.8069 127.008 24.106 126.749 24.3361C126.489 24.5662 126.108 24.6813 125.604 24.6813C125.1 24.6813 124.688 24.5739 124.367 24.3591C124.062 24.1444 123.787 23.8146 123.543 23.3698L121.344 19.2972C121.115 18.8677 120.833 18.5763 120.497 18.4229C120.176 18.2695 119.779 18.1928 119.306 18.1928H117.565V22.8406C117.565 23.4235 117.413 23.876 117.107 24.1981C116.817 24.5202 116.382 24.6813 115.802 24.6813ZM117.565 15.6159H120.749C121.695 15.6159 122.405 15.4241 122.878 15.0406C123.367 14.6572 123.611 14.0819 123.611 13.315C123.611 12.5634 123.367 11.9958 122.878 11.6124C122.405 11.2289 121.695 11.0371 120.749 11.0371H117.565V15.6159Z" fill="#333333"/>
<path d="M135.721 24.6813C135.14 24.6813 134.698 24.5202 134.392 24.1981C134.087 23.876 133.934 23.4235 133.934 22.8406V11.1982H129.881C129.407 11.1982 129.041 11.0678 128.781 10.8071C128.522 10.5463 128.392 10.1858 128.392 9.72565C128.392 9.25013 128.522 8.88967 128.781 8.64424C129.041 8.38348 129.407 8.25309 129.881 8.25309H141.538C142.011 8.25309 142.377 8.38348 142.637 8.64424C142.896 8.88967 143.026 9.25013 143.026 9.72565C143.026 10.1858 142.896 10.5463 142.637 10.8071C142.377 11.0678 142.011 11.1982 141.538 11.1982H137.484V22.8406C137.484 23.4235 137.331 23.876 137.026 24.1981C136.736 24.5202 136.301 24.6813 135.721 24.6813Z" fill="#333333"/>
<path d="M151.076 24.6813C150.496 24.6813 150.053 24.5202 149.748 24.1981C149.443 23.876 149.29 23.4235 149.29 22.8406V11.1982H145.236C144.763 11.1982 144.397 11.0678 144.137 10.8071C143.877 10.5463 143.748 10.1858 143.748 9.72565C143.748 9.25013 143.877 8.88967 144.137 8.64424C144.397 8.38348 144.763 8.25309 145.236 8.25309H156.893C157.366 8.25309 157.733 8.38348 157.992 8.64424C158.252 8.88967 158.382 9.25013 158.382 9.72565C158.382 10.1858 158.252 10.5463 157.992 10.8071C157.733 11.0678 157.366 11.1982 156.893 11.1982H152.84V22.8406C152.84 23.4235 152.687 23.876 152.382 24.1981C152.091 24.5202 151.656 24.6813 151.076 24.6813Z" fill="#333333"/>
<path d="M162.34 24.4742C161.744 24.4742 161.286 24.3131 160.966 23.991C160.645 23.6689 160.485 23.2087 160.485 22.6105V10.1168C160.485 9.51857 160.645 9.0584 160.966 8.73628C161.286 8.41416 161.744 8.25309 162.34 8.25309H170.332C170.791 8.25309 171.134 8.37581 171.363 8.62123C171.607 8.85132 171.729 9.18878 171.729 9.63361C171.729 10.0938 171.607 10.4466 171.363 10.692C171.134 10.9221 170.791 11.0371 170.332 11.0371H163.874V14.8336H169.806C170.279 14.8336 170.63 14.9563 170.859 15.2017C171.104 15.4318 171.226 15.7769 171.226 16.2371C171.226 16.6973 171.104 17.0501 170.859 17.2955C170.63 17.5256 170.279 17.6406 169.806 17.6406H163.874V21.6901H170.332C170.791 21.6901 171.134 21.8128 171.363 22.0583C171.607 22.2884 171.729 22.6258 171.729 23.0707C171.729 23.5308 171.607 23.8836 171.363 24.129C171.134 24.3591 170.791 24.4742 170.332 24.4742H162.34Z" fill="#333333"/>
<path d="M176.71 24.6813C176.13 24.6813 175.687 24.5202 175.382 24.1981C175.076 23.876 174.924 23.4235 174.924 22.8406V10.0708C174.924 9.47255 175.076 9.02005 175.382 8.71327C175.702 8.40648 176.153 8.25309 176.733 8.25309H182.298C184.099 8.25309 185.489 8.69026 186.466 9.56459C187.443 10.4389 187.932 11.6584 187.932 13.223C187.932 14.2353 187.71 15.1097 187.267 15.8459C186.825 16.5822 186.183 17.1498 185.344 17.5486C184.519 17.9474 183.504 18.1468 182.298 18.1468L182.481 17.7557H183.42C184.061 17.7557 184.618 17.9167 185.092 18.2388C185.58 18.5456 186 19.0211 186.351 19.6654L187.771 22.3114C187.985 22.6948 188.084 23.0707 188.069 23.4388C188.054 23.8069 187.916 24.106 187.657 24.3361C187.397 24.5662 187.015 24.6813 186.512 24.6813C186.008 24.6813 185.596 24.5739 185.275 24.3591C184.97 24.1444 184.695 23.8146 184.451 23.3698L182.252 19.2972C182.023 18.8677 181.741 18.5763 181.405 18.4229C181.084 18.2695 180.687 18.1928 180.214 18.1928H178.473V22.8406C178.473 23.4235 178.321 23.876 178.015 24.1981C177.725 24.5202 177.29 24.6813 176.71 24.6813ZM178.473 15.6159H181.657C182.603 15.6159 183.313 15.4241 183.786 15.0406C184.275 14.6572 184.519 14.0819 184.519 13.315C184.519 12.5634 184.275 11.9958 183.786 11.6124C183.313 11.2289 182.603 11.0371 181.657 11.0371H178.473V15.6159Z" fill="#333333"/>
<path d="M197.146 24.7273C196.505 24.7273 195.848 24.6736 195.177 24.5662C194.52 24.4742 193.886 24.3361 193.276 24.1521C192.68 23.968 192.146 23.7379 191.673 23.4618C191.337 23.2777 191.1 23.04 190.963 22.7485C190.825 22.4418 190.772 22.135 190.802 21.8282C190.848 21.5214 190.963 21.253 191.146 21.0229C191.344 20.7775 191.589 20.6241 191.879 20.5627C192.184 20.486 192.52 20.5397 192.886 20.7238C193.512 21.0766 194.192 21.3373 194.925 21.5061C195.673 21.6748 196.413 21.7592 197.146 21.7592C198.261 21.7592 199.055 21.5904 199.528 21.253C200.001 20.9002 200.238 20.463 200.238 19.9415C200.238 19.4966 200.07 19.1438 199.734 18.8831C199.398 18.6223 198.81 18.3999 197.971 18.2158L195.383 17.6636C193.917 17.3568 192.825 16.8353 192.108 16.099C191.405 15.3474 191.054 14.3657 191.054 13.1539C191.054 12.387 191.215 11.689 191.535 11.0601C191.856 10.4312 192.306 9.88671 192.886 9.42653C193.467 8.96636 194.154 8.61356 194.948 8.36814C195.757 8.12271 196.642 8 197.604 8C198.459 8 199.299 8.10737 200.123 8.32212C200.948 8.52153 201.673 8.82064 202.299 9.21946C202.604 9.40353 202.81 9.64128 202.917 9.93272C203.039 10.2088 203.078 10.4926 203.032 10.784C203.001 11.0601 202.887 11.3056 202.688 11.5203C202.505 11.7351 202.268 11.8731 201.978 11.9345C201.688 11.9958 201.337 11.9268 200.925 11.7274C200.421 11.4666 199.887 11.2749 199.322 11.1522C198.757 11.0295 198.177 10.9681 197.581 10.9681C196.94 10.9681 196.39 11.0525 195.932 11.2212C195.49 11.3899 195.146 11.6277 194.902 11.9345C194.673 12.2413 194.558 12.5941 194.558 12.9929C194.558 13.4377 194.719 13.7982 195.039 14.0743C195.36 14.3504 195.917 14.5728 196.711 14.7415L199.299 15.2937C200.795 15.6159 201.91 16.1374 202.642 16.8583C203.375 17.5639 203.742 18.4996 203.742 19.6654C203.742 20.4323 203.589 21.1303 203.284 21.7592C202.978 22.3727 202.536 22.9019 201.955 23.3468C201.375 23.7916 200.681 24.1367 199.871 24.3821C199.062 24.6122 198.154 24.7273 197.146 24.7273Z" fill="#333333"/>
<path d="M61.1771 39.8995C60.948 39.8995 60.7709 39.8426 60.6459 39.7289C60.5279 39.6086 60.4689 39.438 60.4689 39.2173V33.5095C60.4689 33.2888 60.5279 33.1216 60.6459 33.0079C60.7709 32.8876 60.948 32.8274 61.1771 32.8274H63.6769C64.1907 32.8274 64.6282 32.9009 64.9893 33.0481C65.3503 33.1952 65.6246 33.4058 65.8121 33.68C66.0065 33.9542 66.1037 34.2819 66.1037 34.6631C66.1037 35.0911 65.9753 35.4522 65.7183 35.7465C65.4614 36.0407 65.1108 36.238 64.6664 36.3383V36.1879C65.1802 36.2614 65.5795 36.4487 65.8642 36.7496C66.1489 37.0506 66.2912 37.4418 66.2912 37.9233C66.2912 38.5519 66.069 39.0401 65.6246 39.3879C65.1871 39.7289 64.5761 39.8995 63.7915 39.8995H61.1771ZM61.75 38.9264H63.6248C64.097 38.9264 64.4442 38.8395 64.6664 38.6656C64.8886 38.485 64.9997 38.2175 64.9997 37.8631C64.9997 37.502 64.8886 37.2345 64.6664 37.0606C64.4442 36.8867 64.097 36.7998 63.6248 36.7998H61.75V38.9264ZM61.75 35.8267H63.4477C63.906 35.8267 64.2463 35.7431 64.4685 35.576C64.6976 35.4021 64.8122 35.1479 64.8122 34.8136C64.8122 34.4792 64.6976 34.2284 64.4685 34.0612C64.2463 33.8873 63.906 33.8004 63.4477 33.8004H61.75V35.8267Z" fill="#333333"/>
<path d="M71.1915 39.9998C70.4832 39.9998 69.8618 39.8493 69.3271 39.5484C68.7994 39.2474 68.3897 38.8261 68.0981 38.2844C67.8064 37.736 67.6606 37.094 67.6606 36.3584C67.6606 35.8033 67.7439 35.3051 67.9106 34.8637C68.0772 34.4157 68.3133 34.0345 68.6188 33.7202C68.9313 33.3992 69.3028 33.1551 69.7333 32.9879C70.1708 32.814 70.6568 32.7271 71.1915 32.7271C71.9067 32.7271 72.5282 32.8775 73.0559 33.1785C73.5836 33.4727 73.9933 33.8907 74.2849 34.4324C74.5766 34.9741 74.7224 35.6127 74.7224 36.3484C74.7224 36.9034 74.6391 37.405 74.4724 37.8531C74.3058 38.3011 74.0662 38.6857 73.7538 39.0067C73.4482 39.3277 73.0767 39.5751 72.6393 39.749C72.2088 39.9162 71.7262 39.9998 71.1915 39.9998ZM71.1915 38.8963C71.6429 38.8963 72.0248 38.796 72.3372 38.5954C72.6566 38.3948 72.8997 38.1039 73.0663 37.7227C73.2399 37.3415 73.3267 36.8867 73.3267 36.3584C73.3267 35.5559 73.1392 34.9339 72.7643 34.4926C72.3962 34.0512 71.872 33.8305 71.1915 33.8305C70.7471 33.8305 70.3652 33.9308 70.0458 34.1314C69.7264 34.3254 69.4799 34.6129 69.3063 34.9941C69.1396 35.3686 69.0563 35.8234 69.0563 36.3584C69.0563 37.1542 69.2438 37.7762 69.6187 38.2242C69.9937 38.6723 70.518 38.8963 71.1915 38.8963Z" fill="#333333"/>
<path d="M79.3902 39.9998C78.8833 39.9998 78.4355 39.9362 78.0466 39.8092C77.6647 39.6821 77.3418 39.4949 77.078 39.2474C76.8141 38.9933 76.6162 38.679 76.4843 38.3045C76.3523 37.93 76.2864 37.4953 76.2864 37.0004V33.3992C76.2864 33.1785 76.3419 33.0146 76.453 32.9076C76.5711 32.8006 76.7377 32.7471 76.953 32.7471C77.1682 32.7471 77.3314 32.8006 77.4425 32.9076C77.5606 33.0146 77.6196 33.1785 77.6196 33.3992V36.9904C77.6196 37.6257 77.7689 38.1039 78.0674 38.4249C78.373 38.7392 78.8139 38.8963 79.3902 38.8963C79.9666 38.8963 80.404 38.7392 80.7026 38.4249C81.0012 38.1039 81.1505 37.6257 81.1505 36.9904V33.3992C81.1505 33.1785 81.206 33.0146 81.3171 32.9076C81.4352 32.8006 81.6018 32.7471 81.8171 32.7471C82.0254 32.7471 82.1851 32.8006 82.2962 32.9076C82.4142 33.0146 82.4733 33.1785 82.4733 33.3992V37.0004C82.4733 37.6558 82.3552 38.2075 82.1191 38.6556C81.89 39.1036 81.5463 39.4414 81.088 39.6687C80.6297 39.8894 80.0638 39.9998 79.3902 39.9998Z" fill="#333333"/>
<path d="M84.9134 39.9797C84.7121 39.9797 84.5558 39.9262 84.4447 39.8192C84.3406 39.7122 84.2885 39.5584 84.2885 39.3578V33.3891C84.2885 33.1818 84.3406 33.0246 84.4447 32.9176C84.5558 32.804 84.6982 32.7471 84.8718 32.7471C85.0315 32.7471 85.1495 32.7772 85.2259 32.8374C85.3092 32.8909 85.4064 32.9845 85.5175 33.1183L89.5067 38.1039H89.2359V33.359C89.2359 33.1651 89.288 33.0146 89.3922 32.9076C89.5033 32.8006 89.6595 32.7471 89.8609 32.7471C90.0622 32.7471 90.215 32.8006 90.3191 32.9076C90.4233 33.0146 90.4754 33.1651 90.4754 33.359V39.3778C90.4754 39.5651 90.4268 39.7122 90.3296 39.8192C90.2323 39.9262 90.1004 39.9797 89.9338 39.9797C89.7741 39.9797 89.6456 39.9496 89.5484 39.8894C89.4581 39.8292 89.3574 39.7323 89.2463 39.5985L85.2676 34.6129H85.528V39.3578C85.528 39.5584 85.4759 39.7122 85.3717 39.8192C85.2676 39.9262 85.1148 39.9797 84.9134 39.9797Z" fill="#333333"/>
<path d="M93.0485 39.8995C92.8194 39.8995 92.6423 39.8426 92.5173 39.7289C92.3993 39.6086 92.3403 39.438 92.3403 39.2173V33.5095C92.3403 33.2888 92.3993 33.1216 92.5173 33.0079C92.6423 32.8876 92.8194 32.8274 93.0485 32.8274H95.0692C96.2982 32.8274 97.246 33.1316 97.9126 33.7402C98.5862 34.3488 98.9229 35.2215 98.9229 36.3584C98.9229 36.9268 98.8361 37.4318 98.6625 37.8731C98.4959 38.3078 98.2459 38.6756 97.9126 38.9766C97.5863 39.2775 97.1835 39.5082 96.7044 39.6687C96.2322 39.8226 95.6871 39.8995 95.0692 39.8995H93.0485ZM93.6735 38.8361H94.9858C95.4163 38.8361 95.7878 38.786 96.1003 38.6857C96.4197 38.5787 96.6836 38.4249 96.8919 38.2242C97.1071 38.0169 97.2668 37.7594 97.371 37.4518C97.4752 37.1375 97.5272 36.773 97.5272 36.3584C97.5272 35.5291 97.3155 34.9105 96.8919 34.5026C96.4683 34.0947 95.833 33.8907 94.9858 33.8907H93.6735V38.8361Z" fill="#333333"/>
<path d="M101.211 39.8995C100.996 39.8995 100.83 39.8426 100.711 39.7289C100.593 39.6086 100.534 39.4447 100.534 39.2374V33.4493C100.534 33.2353 100.59 33.0748 100.701 32.9678C100.819 32.8541 100.986 32.7973 101.201 32.7973C101.416 32.7973 101.579 32.8541 101.691 32.9678C101.809 33.0748 101.868 33.2353 101.868 33.4493V38.806H104.888C105.076 38.806 105.218 38.8529 105.315 38.9465C105.419 39.0401 105.471 39.1739 105.471 39.3477C105.471 39.5216 105.419 39.6587 105.315 39.759C105.218 39.8527 105.076 39.8995 104.888 39.8995H101.211Z" fill="#333333"/>
<path d="M107.352 39.8995C107.123 39.8995 106.945 39.8426 106.82 39.7289C106.702 39.6086 106.643 39.438 106.643 39.2173V33.5095C106.643 33.2888 106.702 33.1216 106.82 33.0079C106.945 32.8876 107.123 32.8274 107.352 32.8274H111.07C111.244 32.8274 111.376 32.8708 111.466 32.9578C111.563 33.0447 111.612 33.1684 111.612 33.3289C111.612 33.4961 111.563 33.6265 111.466 33.7202C111.376 33.8071 111.244 33.8506 111.07 33.8506H107.925V35.7966H110.841C111.021 35.7966 111.157 35.8401 111.247 35.9271C111.337 36.014 111.383 36.1411 111.383 36.3082C111.383 36.4754 111.337 36.6025 111.247 36.6894C111.157 36.7764 111.021 36.8198 110.841 36.8198H107.925V38.8763H111.07C111.244 38.8763 111.376 38.9197 111.466 39.0067C111.563 39.0936 111.612 39.2207 111.612 39.3879C111.612 39.5551 111.563 39.6821 111.466 39.7691C111.376 39.856 111.244 39.8995 111.07 39.8995H107.352Z" fill="#333333"/>
<path d="M115.548 39.9998C115.242 39.9998 114.937 39.9764 114.631 39.9296C114.326 39.8894 114.038 39.8259 113.767 39.739C113.496 39.6453 113.253 39.5316 113.038 39.3979C112.913 39.3176 112.826 39.2207 112.777 39.107C112.729 38.9933 112.711 38.883 112.725 38.776C112.746 38.6623 112.791 38.5653 112.861 38.485C112.937 38.3981 113.031 38.3446 113.142 38.3245C113.253 38.3045 113.374 38.3346 113.506 38.4148C113.812 38.5887 114.135 38.7158 114.475 38.796C114.815 38.8763 115.173 38.9164 115.548 38.9164C116.096 38.9164 116.496 38.8295 116.746 38.6556C116.996 38.475 117.121 38.2443 117.121 37.9634C117.121 37.7294 117.03 37.5454 116.85 37.4117C116.676 37.2779 116.374 37.1676 115.944 37.0807L114.798 36.8499C114.138 36.7162 113.645 36.4922 113.319 36.1778C113 35.8568 112.84 35.4355 112.84 34.9139C112.84 34.5862 112.909 34.2886 113.048 34.0211C113.187 33.7536 113.381 33.5229 113.631 33.3289C113.888 33.135 114.19 32.9879 114.538 32.8876C114.892 32.7806 115.281 32.7271 115.704 32.7271C116.121 32.7271 116.517 32.7772 116.891 32.8775C117.266 32.9778 117.603 33.125 117.902 33.3189C118.013 33.3925 118.086 33.4827 118.121 33.5897C118.162 33.6967 118.173 33.8037 118.152 33.9108C118.131 34.0111 118.082 34.098 118.006 34.1716C117.93 34.2451 117.832 34.2886 117.714 34.302C117.603 34.3153 117.475 34.2819 117.329 34.2017C117.072 34.0612 116.812 33.9609 116.548 33.9007C116.284 33.8405 115.999 33.8104 115.694 33.8104C115.374 33.8104 115.1 33.8539 114.871 33.9408C114.642 34.0278 114.465 34.1515 114.34 34.312C114.222 34.4658 114.163 34.6497 114.163 34.8637C114.163 35.1045 114.246 35.2984 114.413 35.4455C114.579 35.586 114.864 35.6963 115.267 35.7766L116.402 36.0073C117.089 36.1477 117.6 36.3684 117.933 36.6694C118.273 36.9703 118.443 37.3716 118.443 37.8731C118.443 38.1941 118.374 38.485 118.235 38.7459C118.103 39.0067 117.909 39.2307 117.652 39.418C117.402 39.6052 117.1 39.749 116.746 39.8493C116.392 39.9496 115.992 39.9998 115.548 39.9998Z" fill="#333333"/>
<path d="M122.379 39.9998C122.074 39.9998 121.768 39.9764 121.462 39.9296C121.157 39.8894 120.869 39.8259 120.598 39.739C120.327 39.6453 120.084 39.5316 119.869 39.3979C119.744 39.3176 119.657 39.2207 119.609 39.107C119.56 38.9933 119.543 38.883 119.556 38.776C119.577 38.6623 119.622 38.5653 119.692 38.485C119.768 38.3981 119.862 38.3446 119.973 38.3245C120.084 38.3045 120.206 38.3346 120.338 38.4148C120.643 38.5887 120.966 38.7158 121.306 38.796C121.647 38.8763 122.004 38.9164 122.379 38.9164C122.928 38.9164 123.327 38.8295 123.577 38.6556C123.827 38.475 123.952 38.2443 123.952 37.9634C123.952 37.7294 123.862 37.5454 123.681 37.4117C123.507 37.2779 123.205 37.1676 122.775 37.0807L121.629 36.8499C120.969 36.7162 120.476 36.4922 120.15 36.1778C119.831 35.8568 119.671 35.4355 119.671 34.9139C119.671 34.5862 119.74 34.2886 119.879 34.0211C120.018 33.7536 120.213 33.5229 120.463 33.3289C120.72 33.135 121.022 32.9879 121.369 32.8876C121.723 32.7806 122.112 32.7271 122.535 32.7271C122.952 32.7271 123.348 32.7772 123.723 32.8775C124.098 32.9778 124.434 33.125 124.733 33.3189C124.844 33.3925 124.917 33.4827 124.952 33.5897C124.993 33.6967 125.004 33.8037 124.983 33.9108C124.962 34.0111 124.914 34.098 124.837 34.1716C124.761 34.2451 124.664 34.2886 124.546 34.302C124.434 34.3153 124.306 34.2819 124.16 34.2017C123.903 34.0612 123.643 33.9609 123.379 33.9007C123.115 33.8405 122.83 33.8104 122.525 33.8104C122.205 33.8104 121.931 33.8539 121.702 33.9408C121.473 34.0278 121.296 34.1515 121.171 34.312C121.053 34.4658 120.994 34.6497 120.994 34.8637C120.994 35.1045 121.077 35.2984 121.244 35.4455C121.41 35.586 121.695 35.6963 122.098 35.7766L123.233 36.0073C123.921 36.1477 124.431 36.3684 124.764 36.6694C125.104 36.9703 125.275 37.3716 125.275 37.8731C125.275 38.1941 125.205 38.485 125.066 38.7459C124.934 39.0067 124.74 39.2307 124.483 39.418C124.233 39.6052 123.931 39.749 123.577 39.8493C123.223 39.9496 122.823 39.9998 122.379 39.9998Z" fill="#333333"/>
<path d="M130.434 39.9797C130.219 39.9797 130.052 39.9229 129.934 39.8092C129.823 39.6888 129.767 39.525 129.767 39.3176V33.4794C129.767 33.2654 129.826 33.1049 129.944 32.9979C130.062 32.8842 130.229 32.8274 130.444 32.8274H132.955C133.76 32.8274 134.381 33.0213 134.819 33.4092C135.256 33.7971 135.475 34.3388 135.475 35.0343C135.475 35.7298 135.256 36.2748 134.819 36.6694C134.381 37.0572 133.76 37.2512 132.955 37.2512H131.101V39.3176C131.101 39.525 131.045 39.6888 130.934 39.8092C130.823 39.9229 130.656 39.9797 130.434 39.9797ZM131.101 36.238H132.746C133.218 36.238 133.576 36.1377 133.819 35.9371C134.062 35.7298 134.184 35.4288 134.184 35.0343C134.184 34.6397 134.062 34.3421 133.819 34.1415C133.576 33.9408 133.218 33.8405 132.746 33.8405H131.101V36.238Z" fill="#333333"/>
<path d="M140.063 39.9998C139.354 39.9998 138.733 39.8493 138.198 39.5484C137.671 39.2474 137.261 38.8261 136.969 38.2844C136.678 37.736 136.532 37.094 136.532 36.3584C136.532 35.8033 136.615 35.3051 136.782 34.8637C136.948 34.4157 137.185 34.0345 137.49 33.7202C137.803 33.3992 138.174 33.1551 138.605 32.9879C139.042 32.814 139.528 32.7271 140.063 32.7271C140.778 32.7271 141.399 32.8775 141.927 33.1785C142.455 33.4727 142.865 33.8907 143.156 34.4324C143.448 34.9741 143.594 35.6127 143.594 36.3484C143.594 36.9034 143.51 37.405 143.344 37.8531C143.177 38.3011 142.937 38.6857 142.625 39.0067C142.319 39.3277 141.948 39.5751 141.511 39.749C141.08 39.9162 140.597 39.9998 140.063 39.9998ZM140.063 38.8963C140.514 38.8963 140.896 38.796 141.208 38.5954C141.528 38.3948 141.771 38.1039 141.938 37.7227C142.111 37.3415 142.198 36.8867 142.198 36.3584C142.198 35.5559 142.01 34.9339 141.636 34.4926C141.268 34.0512 140.743 33.8305 140.063 33.8305C139.618 33.8305 139.236 33.9308 138.917 34.1314C138.598 34.3254 138.351 34.6129 138.178 34.9941C138.011 35.3686 137.928 35.8234 137.928 36.3584C137.928 37.1542 138.115 37.7762 138.49 38.2242C138.865 38.6723 139.389 38.8963 140.063 38.8963Z" fill="#333333"/>
<path d="M147.741 39.9998C147.435 39.9998 147.13 39.9764 146.824 39.9296C146.519 39.8894 146.23 39.8259 145.96 39.739C145.689 39.6453 145.446 39.5316 145.231 39.3979C145.106 39.3176 145.019 39.2207 144.97 39.107C144.922 38.9933 144.904 38.883 144.918 38.776C144.939 38.6623 144.984 38.5653 145.053 38.485C145.13 38.3981 145.224 38.3446 145.335 38.3245C145.446 38.3045 145.567 38.3346 145.699 38.4148C146.005 38.5887 146.328 38.7158 146.668 38.796C147.008 38.8763 147.366 38.9164 147.741 38.9164C148.289 38.9164 148.689 38.8295 148.938 38.6556C149.188 38.475 149.313 38.2443 149.313 37.9634C149.313 37.7294 149.223 37.5454 149.043 37.4117C148.869 37.2779 148.567 37.1676 148.136 37.0807L146.991 36.8499C146.331 36.7162 145.838 36.4922 145.512 36.1778C145.192 35.8568 145.033 35.4355 145.033 34.9139C145.033 34.5862 145.102 34.2886 145.241 34.0211C145.38 33.7536 145.574 33.5229 145.824 33.3289C146.081 33.135 146.383 32.9879 146.73 32.8876C147.085 32.7806 147.473 32.7271 147.897 32.7271C148.314 32.7271 148.709 32.7772 149.084 32.8775C149.459 32.9778 149.796 33.125 150.095 33.3189C150.206 33.3925 150.279 33.4827 150.313 33.5897C150.355 33.6967 150.365 33.8037 150.345 33.9108C150.324 34.0111 150.275 34.098 150.199 34.1716C150.122 34.2451 150.025 34.2886 149.907 34.302C149.796 34.3153 149.668 34.2819 149.522 34.2017C149.265 34.0612 149.004 33.9609 148.741 33.9007C148.477 33.8405 148.192 33.8104 147.887 33.8104C147.567 33.8104 147.293 33.8539 147.064 33.9408C146.835 34.0278 146.657 34.1515 146.532 34.312C146.414 34.4658 146.355 34.6497 146.355 34.8637C146.355 35.1045 146.439 35.2984 146.605 35.4455C146.772 35.586 147.057 35.6963 147.459 35.7766L148.595 36.0073C149.282 36.1477 149.793 36.3684 150.126 36.6694C150.466 36.9703 150.636 37.3716 150.636 37.8731C150.636 38.1941 150.567 38.485 150.428 38.7459C150.296 39.0067 150.102 39.2307 149.845 39.418C149.595 39.6052 149.293 39.749 148.938 39.8493C148.584 39.9496 148.185 39.9998 147.741 39.9998Z" fill="#333333"/>
<path d="M154.572 39.9998C154.266 39.9998 153.961 39.9764 153.655 39.9296C153.35 39.8894 153.062 39.8259 152.791 39.739C152.52 39.6453 152.277 39.5316 152.062 39.3979C151.937 39.3176 151.85 39.2207 151.801 39.107C151.753 38.9933 151.735 38.883 151.749 38.776C151.77 38.6623 151.815 38.5653 151.885 38.485C151.961 38.3981 152.055 38.3446 152.166 38.3245C152.277 38.3045 152.398 38.3346 152.53 38.4148C152.836 38.5887 153.159 38.7158 153.499 38.796C153.839 38.8763 154.197 38.9164 154.572 38.9164C155.12 38.9164 155.52 38.8295 155.77 38.6556C156.02 38.475 156.145 38.2443 156.145 37.9634C156.145 37.7294 156.054 37.5454 155.874 37.4117C155.7 37.2779 155.398 37.1676 154.968 37.0807L153.822 36.8499C153.162 36.7162 152.669 36.4922 152.343 36.1778C152.024 35.8568 151.864 35.4355 151.864 34.9139C151.864 34.5862 151.933 34.2886 152.072 34.0211C152.211 33.7536 152.405 33.5229 152.655 33.3289C152.912 33.135 153.214 32.9879 153.562 32.8876C153.916 32.7806 154.305 32.7271 154.728 32.7271C155.145 32.7271 155.541 32.7772 155.915 32.8775C156.29 32.9778 156.627 33.125 156.926 33.3189C157.037 33.3925 157.11 33.4827 157.145 33.5897C157.186 33.6967 157.197 33.8037 157.176 33.9108C157.155 34.0111 157.106 34.098 157.03 34.1716C156.954 34.2451 156.856 34.2886 156.738 34.302C156.627 34.3153 156.499 34.2819 156.353 34.2017C156.096 34.0612 155.836 33.9609 155.572 33.9007C155.308 33.8405 155.023 33.8104 154.718 33.8104C154.398 33.8104 154.124 33.8539 153.895 33.9408C153.666 34.0278 153.489 34.1515 153.364 34.312C153.246 34.4658 153.187 34.6497 153.187 34.8637C153.187 35.1045 153.27 35.2984 153.437 35.4455C153.603 35.586 153.888 35.6963 154.291 35.7766L155.426 36.0073C156.113 36.1477 156.624 36.3684 156.957 36.6694C157.297 36.9703 157.467 37.3716 157.467 37.8731C157.467 38.1941 157.398 38.485 157.259 38.7459C157.127 39.0067 156.933 39.2307 156.676 39.418C156.426 39.6052 156.124 39.749 155.77 39.8493C155.416 39.9496 155.016 39.9998 154.572 39.9998Z" fill="#333333"/>
<path d="M159.539 39.9797C159.323 39.9797 159.157 39.9229 159.039 39.8092C158.928 39.6888 158.872 39.525 158.872 39.3176V33.4092C158.872 33.1952 158.928 33.0313 159.039 32.9176C159.157 32.804 159.323 32.7471 159.539 32.7471C159.754 32.7471 159.917 32.804 160.028 32.9176C160.146 33.0313 160.205 33.1952 160.205 33.4092V39.3176C160.205 39.525 160.15 39.6888 160.039 39.8092C159.928 39.9229 159.761 39.9797 159.539 39.9797Z" fill="#333333"/>
<path d="M162.78 39.8995C162.551 39.8995 162.374 39.8426 162.249 39.7289C162.131 39.6086 162.072 39.438 162.072 39.2173V33.5095C162.072 33.2888 162.131 33.1216 162.249 33.0079C162.374 32.8876 162.551 32.8274 162.78 32.8274H165.28C165.794 32.8274 166.231 32.9009 166.592 33.0481C166.953 33.1952 167.228 33.4058 167.415 33.68C167.61 33.9542 167.707 34.2819 167.707 34.6631C167.707 35.0911 167.578 35.4522 167.321 35.7465C167.065 36.0407 166.714 36.238 166.27 36.3383V36.1879C166.783 36.2614 167.183 36.4487 167.467 36.7496C167.752 37.0506 167.894 37.4418 167.894 37.9233C167.894 38.5519 167.672 39.0401 167.228 39.3879C166.79 39.7289 166.179 39.8995 165.395 39.8995H162.78ZM163.353 38.9264H165.228C165.7 38.9264 166.047 38.8395 166.27 38.6656C166.492 38.485 166.603 38.2175 166.603 37.8631C166.603 37.502 166.492 37.2345 166.27 37.0606C166.047 36.8867 165.7 36.7998 165.228 36.7998H163.353V38.9264ZM163.353 35.8267H165.051C165.509 35.8267 165.849 35.7431 166.072 35.576C166.301 35.4021 166.415 35.1479 166.415 34.8136C166.415 34.4792 166.301 34.2284 166.072 34.0612C165.849 33.8873 165.509 33.8004 165.051 33.8004H163.353V35.8267Z" fill="#333333"/>
<path d="M170.17 39.9797C169.955 39.9797 169.788 39.9229 169.67 39.8092C169.559 39.6888 169.503 39.525 169.503 39.3176V33.4092C169.503 33.1952 169.559 33.0313 169.67 32.9176C169.788 32.804 169.955 32.7471 170.17 32.7471C170.385 32.7471 170.548 32.804 170.659 32.9176C170.777 33.0313 170.837 33.1952 170.837 33.4092V39.3176C170.837 39.525 170.781 39.6888 170.67 39.8092C170.559 39.9229 170.392 39.9797 170.17 39.9797Z" fill="#333333"/>
<path d="M173.38 39.8995C173.165 39.8995 172.998 39.8426 172.88 39.7289C172.762 39.6086 172.703 39.4447 172.703 39.2374V33.4493C172.703 33.2353 172.759 33.0748 172.87 32.9678C172.988 32.8541 173.155 32.7973 173.37 32.7973C173.585 32.7973 173.748 32.8541 173.859 32.9678C173.977 33.0748 174.036 33.2353 174.036 33.4493V38.806H177.057C177.244 38.806 177.387 38.8529 177.484 38.9465C177.588 39.0401 177.64 39.1739 177.64 39.3477C177.64 39.5216 177.588 39.6587 177.484 39.759C177.387 39.8527 177.244 39.8995 177.057 39.8995H173.38Z" fill="#333333"/>
<path d="M179.479 39.9797C179.264 39.9797 179.097 39.9229 178.979 39.8092C178.868 39.6888 178.812 39.525 178.812 39.3176V33.4092C178.812 33.1952 178.868 33.0313 178.979 32.9176C179.097 32.804 179.264 32.7471 179.479 32.7471C179.694 32.7471 179.857 32.804 179.968 32.9176C180.086 33.0313 180.145 33.1952 180.145 33.4092V39.3176C180.145 39.525 180.09 39.6888 179.979 39.8092C179.868 39.9229 179.701 39.9797 179.479 39.9797Z" fill="#333333"/>
<path d="M184.449 39.9797C184.234 39.9797 184.068 39.9229 183.95 39.8092C183.838 39.6888 183.783 39.525 183.783 39.3176V33.9007H181.752C181.571 33.9007 181.429 33.8539 181.325 33.7603C181.228 33.66 181.179 33.5262 181.179 33.359C181.179 33.1851 181.228 33.0547 181.325 32.9678C181.429 32.8742 181.571 32.8274 181.752 32.8274H187.147C187.328 32.8274 187.467 32.8742 187.564 32.9678C187.668 33.0547 187.72 33.1851 187.72 33.359C187.72 33.5262 187.668 33.66 187.564 33.7603C187.467 33.8539 187.328 33.9007 187.147 33.9007H185.116V39.3176C185.116 39.525 185.061 39.6888 184.949 39.8092C184.838 39.9229 184.672 39.9797 184.449 39.9797Z" fill="#333333"/>
<path d="M189.408 39.9797C189.193 39.9797 189.026 39.9229 188.908 39.8092C188.797 39.6888 188.742 39.525 188.742 39.3176V33.4092C188.742 33.1952 188.797 33.0313 188.908 32.9176C189.026 32.804 189.193 32.7471 189.408 32.7471C189.624 32.7471 189.787 32.804 189.898 32.9176C190.016 33.0313 190.075 33.1952 190.075 33.4092V39.3176C190.075 39.525 190.019 39.6888 189.908 39.8092C189.797 39.9229 189.631 39.9797 189.408 39.9797Z" fill="#333333"/>
<path d="M192.65 39.8995C192.421 39.8995 192.244 39.8426 192.119 39.7289C192.001 39.6086 191.942 39.438 191.942 39.2173V33.5095C191.942 33.2888 192.001 33.1216 192.119 33.0079C192.244 32.8876 192.421 32.8274 192.65 32.8274H196.368C196.542 32.8274 196.674 32.8708 196.764 32.9578C196.861 33.0447 196.91 33.1684 196.91 33.3289C196.91 33.4961 196.861 33.6265 196.764 33.7202C196.674 33.8071 196.542 33.8506 196.368 33.8506H193.223V35.7966H196.139C196.32 35.7966 196.455 35.8401 196.545 35.9271C196.636 36.014 196.681 36.1411 196.681 36.3082C196.681 36.4754 196.636 36.6025 196.545 36.6894C196.455 36.7764 196.32 36.8198 196.139 36.8198H193.223V38.8763H196.368C196.542 38.8763 196.674 38.9197 196.764 39.0067C196.861 39.0936 196.91 39.2207 196.91 39.3879C196.91 39.5551 196.861 39.6821 196.764 39.7691C196.674 39.856 196.542 39.8995 196.368 39.8995H192.65Z" fill="#333333"/>
<path d="M200.846 39.9998C200.541 39.9998 200.235 39.9764 199.93 39.9296C199.624 39.8894 199.336 39.8259 199.065 39.739C198.794 39.6453 198.551 39.5316 198.336 39.3979C198.211 39.3176 198.124 39.2207 198.076 39.107C198.027 38.9933 198.01 38.883 198.023 38.776C198.044 38.6623 198.089 38.5653 198.159 38.485C198.235 38.3981 198.329 38.3446 198.44 38.3245C198.551 38.3045 198.673 38.3346 198.805 38.4148C199.11 38.5887 199.433 38.7158 199.773 38.796C200.114 38.8763 200.471 38.9164 200.846 38.9164C201.395 38.9164 201.794 38.8295 202.044 38.6556C202.294 38.475 202.419 38.2443 202.419 37.9634C202.419 37.7294 202.329 37.5454 202.148 37.4117C201.974 37.2779 201.672 37.1676 201.242 37.0807L200.096 36.8499C199.437 36.7162 198.944 36.4922 198.617 36.1778C198.298 35.8568 198.138 35.4355 198.138 34.9139C198.138 34.5862 198.207 34.2886 198.346 34.0211C198.485 33.7536 198.68 33.5229 198.93 33.3289C199.187 33.135 199.489 32.9879 199.836 32.8876C200.19 32.7806 200.579 32.7271 201.002 32.7271C201.419 32.7271 201.815 32.7772 202.19 32.8775C202.565 32.9778 202.901 33.125 203.2 33.3189C203.311 33.3925 203.384 33.4827 203.419 33.5897C203.46 33.6967 203.471 33.8037 203.45 33.9108C203.429 34.0111 203.381 34.098 203.304 34.1716C203.228 34.2451 203.131 34.2886 203.013 34.302C202.901 34.3153 202.773 34.2819 202.627 34.2017C202.37 34.0612 202.11 33.9609 201.846 33.9007C201.582 33.8405 201.297 33.8104 200.992 33.8104C200.673 33.8104 200.398 33.8539 200.169 33.9408C199.94 34.0278 199.763 34.1515 199.638 34.312C199.52 34.4658 199.461 34.6497 199.461 34.8637C199.461 35.1045 199.544 35.2984 199.711 35.4455C199.877 35.586 200.162 35.6963 200.565 35.7766L201.7 36.0073C202.388 36.1477 202.898 36.3684 203.231 36.6694C203.572 36.9703 203.742 37.3716 203.742 37.8731C203.742 38.1941 203.672 38.485 203.533 38.7459C203.401 39.0067 203.207 39.2307 202.95 39.418C202.7 39.6052 202.398 39.749 202.044 39.8493C201.69 39.9496 201.291 39.9998 200.846 39.9998Z" fill="#333333"/>
</svg>
