<svg width="204" height="48" viewBox="0 0 204 48" fill="none" xmlns="http://www.w3.org/2000/svg">
<rect x="11.8383" y="7.92627" width="24.9673" height="34.4787" fill="white"/>
<path fill-rule="evenodd" clip-rule="evenodd" d="M41.7499 0H7.73349C3.87203 0 0.741699 3.13032 0.741699 6.99178V41.0082C0.741699 44.8697 3.87202 48 7.73348 48H41.7499C45.6114 48 48.7417 44.8697 48.7417 41.0082V6.99178C48.7417 3.13033 45.6114 0 41.7499 0ZM24.7627 23.5433C23.6417 23.5433 22.7448 23.2359 22.0722 22.6211C21.4276 21.9796 21.1053 21.151 21.1053 20.1353C21.1053 19.1196 21.4276 18.3043 22.0722 17.6895C22.7448 17.048 23.6417 16.7273 24.7627 16.7273C25.8837 16.7273 26.7525 17.048 27.3691 17.6895C28.0137 18.3043 28.336 19.1196 28.336 20.1353C28.336 21.151 28.0137 21.9796 27.3691 22.6211C26.7525 23.2359 25.8837 23.5433 24.7627 23.5433ZM25.6035 37.7135C25.1831 38.1946 24.7347 38.4619 24.2582 38.5154C23.7818 38.5956 23.3754 38.5154 23.0391 38.2748C22.7028 38.0343 22.5066 37.6868 22.4506 37.2324C22.4225 36.8047 22.6327 36.337 23.0812 35.8291C23.4455 35.4014 23.7257 34.9738 23.9219 34.5461C24.1461 34.1452 24.3143 33.7442 24.4264 33.3433C23.4175 33.2631 22.6047 32.9156 21.9881 32.3008C21.3996 31.6861 21.1053 30.8842 21.1053 29.8952C21.1053 28.9062 21.4276 28.1043 22.0722 27.4896C22.7168 26.8481 23.5996 26.5273 24.7207 26.5273C25.8417 26.5273 26.7245 26.9015 27.3691 27.6499C28.0417 28.3716 28.3781 29.4007 28.3781 30.7372C28.3781 31.7796 28.1959 32.8622 27.8315 33.9848C27.4952 35.1074 26.7525 36.3503 25.6035 37.7135ZM26.1963 11.6364C26.1963 12.4397 25.545 13.0909 24.7417 13.0909C23.9384 13.0909 23.2872 12.4397 23.2872 11.6364C23.2872 10.8331 23.9384 10.1818 24.7417 10.1818C25.545 10.1818 26.1963 10.8331 26.1963 11.6364ZM30.5599 15.2727C31.3632 15.2727 32.0144 14.6215 32.0144 13.8182C32.0144 13.0149 31.3632 12.3637 30.5599 12.3637C29.7566 12.3637 29.1053 13.0149 29.1053 13.8182C29.1053 14.6215 29.7566 15.2727 30.5599 15.2727ZM16.7417 13.8182C16.7417 14.6215 17.5557 15.2727 18.5599 15.2727C19.564 15.2727 20.3781 14.6215 20.3781 13.8182C20.3781 13.0149 19.564 12.3637 18.5599 12.3637C17.5557 12.3637 16.7417 13.0149 16.7417 13.8182ZM33.1054 21.0909C34.1095 21.0909 34.9235 20.2769 34.9235 19.2727C34.9235 18.2686 34.1095 17.4546 33.1054 17.4546C32.1012 17.4546 31.2872 18.2686 31.2872 19.2727C31.2872 20.2769 32.1012 21.0909 33.1054 21.0909ZM14.5599 19.2727C14.5599 20.2769 15.2111 21.0909 16.0144 21.0909C16.8178 21.0909 17.469 20.2769 17.469 19.2727C17.469 18.2686 16.8178 17.4546 16.0144 17.4546C15.2111 17.4546 14.5599 18.2686 14.5599 19.2727Z" fill="#FF3A44"/>
<path d="M66.1903 24.7273C65.5491 24.7273 64.8926 24.6736 64.2208 24.5662C63.5643 24.4742 62.9307 24.3361 62.32 24.1521C61.7246 23.968 61.1902 23.7379 60.7169 23.4618C60.381 23.2777 60.1444 23.04 60.007 22.7485C59.8695 22.4418 59.8161 22.135 59.8466 21.8282C59.8924 21.5214 60.007 21.253 60.1902 21.0229C60.3886 20.7775 60.6329 20.6241 60.923 20.5627C61.2284 20.486 61.5643 20.5397 61.9307 20.7238C62.5566 21.0766 63.2361 21.3373 63.9689 21.5061C64.717 21.6748 65.4575 21.7592 66.1903 21.7592C67.3049 21.7592 68.0988 21.5904 68.5721 21.253C69.0454 20.9002 69.282 20.463 69.282 19.9415C69.282 19.4966 69.1141 19.1438 68.7782 18.8831C68.4423 18.6223 67.8545 18.3999 67.0148 18.2158L64.4269 17.6636C62.9612 17.3568 61.8696 16.8353 61.152 16.099C60.4497 15.3474 60.0986 14.3657 60.0986 13.1539C60.0986 12.387 60.2589 11.689 60.5795 11.0601C60.9001 10.4312 61.3505 9.88671 61.9307 9.42653C62.5108 8.96636 63.1979 8.61356 63.9918 8.36814C64.801 8.12271 65.6865 8 66.6484 8C67.5034 8 68.3431 8.10737 69.1675 8.32212C69.992 8.52153 70.7172 8.82064 71.3432 9.21946C71.6485 9.40353 71.8546 9.64128 71.9615 9.93272C72.0836 10.2088 72.1218 10.4926 72.076 10.784C72.0455 11.0601 71.931 11.3056 71.7325 11.5203C71.5493 11.7351 71.3126 11.8731 71.0225 11.9345C70.7325 11.9958 70.3813 11.9268 69.9691 11.7274C69.4652 11.4666 68.9309 11.2749 68.366 11.1522C67.8011 11.0295 67.2209 10.9681 66.6255 10.9681C65.9842 10.9681 65.4346 11.0525 64.9766 11.2212C64.5338 11.3899 64.1903 11.6277 63.946 11.9345C63.717 12.2413 63.6025 12.5941 63.6025 12.9929C63.6025 13.4377 63.7628 13.7982 64.0834 14.0743C64.404 14.3504 64.9613 14.5728 65.7552 14.7415L68.3431 15.2937C69.8393 15.6159 70.9538 16.1374 71.6867 16.8583C72.4195 17.5639 72.7859 18.4996 72.7859 19.6654C72.7859 20.4323 72.6333 21.1303 72.3279 21.7592C72.0226 22.3727 71.5798 22.9019 70.9996 23.3468C70.4195 23.7916 69.7248 24.1367 68.9156 24.3821C68.1064 24.6122 67.198 24.7273 66.1903 24.7273Z" fill="#333333"/>
<path d="M77.3118 24.6813C76.7927 24.6813 76.3958 24.5355 76.121 24.2441C75.8461 23.9527 75.7087 23.5462 75.7087 23.0246V9.70264C75.7087 9.18111 75.8538 8.77462 76.1439 8.48318C76.4492 8.19174 76.8614 8.04602 77.3805 8.04602C77.8386 8.04602 78.1974 8.13805 78.4569 8.32212C78.7317 8.49085 78.9836 8.78996 79.2127 9.21946L84.5029 18.9291H83.7242L89.0145 9.21946C89.2435 8.78996 89.4878 8.49085 89.7473 8.32212C90.0221 8.13805 90.3809 8.04602 90.8237 8.04602C91.3428 8.04602 91.7397 8.19174 92.0145 8.48318C92.3046 8.77462 92.4497 9.18111 92.4497 9.70264V23.0246C92.4497 23.5462 92.3123 23.9527 92.0374 24.2441C91.7626 24.5355 91.3657 24.6813 90.8466 24.6813C90.3275 24.6813 89.9229 24.5355 89.6328 24.2441C89.358 23.9527 89.2206 23.5462 89.2206 23.0246V13.7061H89.7244L85.4647 21.368C85.2815 21.6595 85.0831 21.8819 84.8693 22.0353C84.6708 22.1733 84.4036 22.2423 84.0678 22.2423C83.7319 22.2423 83.4571 22.1656 83.2433 22.0123C83.0296 21.8589 82.8387 21.6441 82.6708 21.368L78.3653 13.6831H78.9149V23.0246C78.9149 23.5462 78.7775 23.9527 78.5027 24.2441C78.2432 24.5355 77.8462 24.6813 77.3118 24.6813Z" fill="#333333"/>
<path d="M96.7546 24.6813C96.3271 24.6813 95.976 24.5816 95.7011 24.3821C95.4416 24.1827 95.2736 23.9143 95.1973 23.5768C95.1362 23.2394 95.2049 22.8636 95.4034 22.4494L101.266 9.54158C101.51 9.02005 101.801 8.64424 102.136 8.41416C102.472 8.16873 102.862 8.04602 103.304 8.04602C103.747 8.04602 104.136 8.16873 104.472 8.41416C104.808 8.64424 105.091 9.02005 105.32 9.54158L111.228 22.4494C111.427 22.8636 111.495 23.2471 111.434 23.5999C111.389 23.9373 111.236 24.2057 110.976 24.4052C110.717 24.5892 110.381 24.6813 109.969 24.6813C109.45 24.6813 109.045 24.5585 108.755 24.3131C108.48 24.0677 108.236 23.6842 108.022 23.1627L106.648 19.9645L108.068 20.9539H98.518L99.9379 19.9645L98.5867 23.1627C98.3577 23.6996 98.1134 24.0907 97.8539 24.3361C97.6096 24.5662 97.2432 24.6813 96.7546 24.6813ZM103.259 12.0495L100.327 19.0672L99.7089 18.1698H106.877L106.259 19.0672L103.304 12.0495H103.259Z" fill="#333333"/>
<path d="M115.899 24.6813C115.318 24.6813 114.876 24.5202 114.57 24.1981C114.265 23.876 114.112 23.4235 114.112 22.8406V10.0708C114.112 9.47255 114.265 9.02005 114.57 8.71327C114.891 8.40648 115.341 8.25309 115.921 8.25309H121.487C123.288 8.25309 124.677 8.69026 125.655 9.56459C126.632 10.4389 127.12 11.6584 127.12 13.223C127.12 14.2353 126.899 15.1097 126.456 15.8459C126.013 16.5822 125.372 17.1498 124.532 17.5486C123.708 17.9474 122.693 18.1468 121.487 18.1468L121.67 17.7557H122.609C123.25 17.7557 123.807 17.9167 124.28 18.2388C124.769 18.5456 125.189 19.0211 125.54 19.6654L126.96 22.3114C127.174 22.6948 127.273 23.0707 127.258 23.4388C127.242 23.8069 127.105 24.106 126.845 24.3361C126.586 24.5662 126.204 24.6813 125.7 24.6813C125.197 24.6813 124.784 24.5739 124.464 24.3591C124.158 24.1444 123.884 23.8146 123.639 23.3698L121.441 19.2972C121.212 18.8677 120.929 18.5763 120.593 18.4229C120.273 18.2695 119.876 18.1928 119.402 18.1928H117.662V22.8406C117.662 23.4235 117.509 23.876 117.204 24.1981C116.914 24.5202 116.479 24.6813 115.899 24.6813ZM117.662 15.6159H120.845C121.792 15.6159 122.502 15.4241 122.975 15.0406C123.464 14.6572 123.708 14.0819 123.708 13.315C123.708 12.5634 123.464 11.9958 122.975 11.6124C122.502 11.2289 121.792 11.0371 120.845 11.0371H117.662V15.6159Z" fill="#333333"/>
<path d="M135.817 24.6813C135.237 24.6813 134.794 24.5202 134.489 24.1981C134.184 23.876 134.031 23.4235 134.031 22.8406V11.1982H129.977C129.504 11.1982 129.138 11.0678 128.878 10.8071C128.619 10.5463 128.489 10.1858 128.489 9.72565C128.489 9.25013 128.619 8.88967 128.878 8.64424C129.138 8.38348 129.504 8.25309 129.977 8.25309H141.634C142.108 8.25309 142.474 8.38348 142.733 8.64424C142.993 8.88967 143.123 9.25013 143.123 9.72565C143.123 10.1858 142.993 10.5463 142.733 10.8071C142.474 11.0678 142.108 11.1982 141.634 11.1982H137.581V22.8406C137.581 23.4235 137.428 23.876 137.123 24.1981C136.833 24.5202 136.397 24.6813 135.817 24.6813Z" fill="#333333"/>
<path d="M151.173 24.6813C150.593 24.6813 150.15 24.5202 149.845 24.1981C149.539 23.876 149.387 23.4235 149.387 22.8406V11.1982H145.333C144.86 11.1982 144.493 11.0678 144.234 10.8071C143.974 10.5463 143.844 10.1858 143.844 9.72565C143.844 9.25013 143.974 8.88967 144.234 8.64424C144.493 8.38348 144.86 8.25309 145.333 8.25309H156.99C157.463 8.25309 157.83 8.38348 158.089 8.64424C158.349 8.88967 158.478 9.25013 158.478 9.72565C158.478 10.1858 158.349 10.5463 158.089 10.8071C157.83 11.0678 157.463 11.1982 156.99 11.1982H152.936V22.8406C152.936 23.4235 152.784 23.876 152.478 24.1981C152.188 24.5202 151.753 24.6813 151.173 24.6813Z" fill="#333333"/>
<path d="M162.437 24.4742C161.841 24.4742 161.383 24.3131 161.062 23.991C160.742 23.6689 160.582 23.2087 160.582 22.6105V10.1168C160.582 9.51857 160.742 9.0584 161.062 8.73628C161.383 8.41416 161.841 8.25309 162.437 8.25309H170.429C170.887 8.25309 171.231 8.37581 171.46 8.62123C171.704 8.85132 171.826 9.18878 171.826 9.63361C171.826 10.0938 171.704 10.4466 171.46 10.692C171.231 10.9221 170.887 11.0371 170.429 11.0371H163.971V14.8336H169.902C170.376 14.8336 170.727 14.9563 170.956 15.2017C171.2 15.4318 171.322 15.7769 171.322 16.2371C171.322 16.6973 171.2 17.0501 170.956 17.2955C170.727 17.5256 170.376 17.6406 169.902 17.6406H163.971V21.6901H170.429C170.887 21.6901 171.231 21.8128 171.46 22.0583C171.704 22.2884 171.826 22.6258 171.826 23.0707C171.826 23.5308 171.704 23.8836 171.46 24.129C171.231 24.3591 170.887 24.4742 170.429 24.4742H162.437Z" fill="#333333"/>
<path d="M176.806 24.6813C176.226 24.6813 175.784 24.5202 175.478 24.1981C175.173 23.876 175.02 23.4235 175.02 22.8406V10.0708C175.02 9.47255 175.173 9.02005 175.478 8.71327C175.799 8.40648 176.249 8.25309 176.829 8.25309H182.394C184.196 8.25309 185.585 8.69026 186.563 9.56459C187.54 10.4389 188.028 11.6584 188.028 13.223C188.028 14.2353 187.807 15.1097 187.364 15.8459C186.921 16.5822 186.28 17.1498 185.44 17.5486C184.616 17.9474 183.601 18.1468 182.394 18.1468L182.578 17.7557H183.517C184.158 17.7557 184.715 17.9167 185.188 18.2388C185.677 18.5456 186.097 19.0211 186.448 19.6654L187.868 22.3114C188.082 22.6948 188.181 23.0707 188.166 23.4388C188.15 23.8069 188.013 24.106 187.753 24.3361C187.494 24.5662 187.112 24.6813 186.608 24.6813C186.104 24.6813 185.692 24.5739 185.372 24.3591C185.066 24.1444 184.791 23.8146 184.547 23.3698L182.349 19.2972C182.12 18.8677 181.837 18.5763 181.501 18.4229C181.181 18.2695 180.784 18.1928 180.31 18.1928H178.57V22.8406C178.57 23.4235 178.417 23.876 178.112 24.1981C177.822 24.5202 177.387 24.6813 176.806 24.6813ZM178.57 15.6159H181.753C182.7 15.6159 183.41 15.4241 183.883 15.0406C184.372 14.6572 184.616 14.0819 184.616 13.315C184.616 12.5634 184.372 11.9958 183.883 11.6124C183.41 11.2289 182.7 11.0371 181.753 11.0371H178.57V15.6159Z" fill="#333333"/>
<path d="M197.243 24.7273C196.602 24.7273 195.945 24.6736 195.273 24.5662C194.617 24.4742 193.983 24.3361 193.372 24.1521C192.777 23.968 192.243 23.7379 191.769 23.4618C191.433 23.2777 191.197 23.04 191.059 22.7485C190.922 22.4418 190.869 22.135 190.899 21.8282C190.945 21.5214 191.059 21.253 191.243 21.0229C191.441 20.7775 191.685 20.6241 191.975 20.5627C192.281 20.486 192.617 20.5397 192.983 20.7238C193.609 21.0766 194.289 21.3373 195.021 21.5061C195.769 21.6748 196.51 21.7592 197.243 21.7592C198.357 21.7592 199.151 21.5904 199.625 21.253C200.098 20.9002 200.334 20.463 200.334 19.9415C200.334 19.4966 200.167 19.1438 199.831 18.8831C199.495 18.6223 198.907 18.3999 198.067 18.2158L195.479 17.6636C194.014 17.3568 192.922 16.8353 192.204 16.099C191.502 15.3474 191.151 14.3657 191.151 13.1539C191.151 12.387 191.311 11.689 191.632 11.0601C191.953 10.4312 192.403 9.88671 192.983 9.42653C193.563 8.96636 194.25 8.61356 195.044 8.36814C195.853 8.12271 196.739 8 197.701 8C198.556 8 199.396 8.10737 200.22 8.32212C201.044 8.52153 201.77 8.82064 202.396 9.21946C202.701 9.40353 202.907 9.64128 203.014 9.93272C203.136 10.2088 203.174 10.4926 203.128 10.784C203.098 11.0601 202.983 11.3056 202.785 11.5203C202.602 11.7351 202.365 11.8731 202.075 11.9345C201.785 11.9958 201.434 11.9268 201.022 11.7274C200.518 11.4666 199.983 11.2749 199.418 11.1522C198.854 11.0295 198.273 10.9681 197.678 10.9681C197.037 10.9681 196.487 11.0525 196.029 11.2212C195.586 11.3899 195.243 11.6277 194.998 11.9345C194.769 12.2413 194.655 12.5941 194.655 12.9929C194.655 13.4377 194.815 13.7982 195.136 14.0743C195.456 14.3504 196.014 14.5728 196.808 14.7415L199.396 15.2937C200.892 15.6159 202.006 16.1374 202.739 16.8583C203.472 17.5639 203.838 18.4996 203.838 19.6654C203.838 20.4323 203.686 21.1303 203.38 21.7592C203.075 22.3727 202.632 22.9019 202.052 23.3468C201.472 23.7916 200.777 24.1367 199.968 24.3821C199.159 24.6122 198.25 24.7273 197.243 24.7273Z" fill="#333333"/>
<path d="M61.2738 39.8995C61.0447 39.8995 60.8676 39.8426 60.7426 39.7289C60.6246 39.6086 60.5656 39.438 60.5656 39.2173V33.5095C60.5656 33.2888 60.6246 33.1216 60.7426 33.0079C60.8676 32.8876 61.0447 32.8274 61.2738 32.8274H63.7736C64.2874 32.8274 64.7249 32.9009 65.0859 33.0481C65.447 33.1952 65.7213 33.4058 65.9088 33.68C66.1032 33.9542 66.2004 34.2819 66.2004 34.6631C66.2004 35.0911 66.072 35.4522 65.815 35.7465C65.5581 36.0407 65.2075 36.238 64.7631 36.3383V36.1879C65.2769 36.2614 65.6762 36.4487 65.9609 36.7496C66.2455 37.0506 66.3879 37.4418 66.3879 37.9233C66.3879 38.5519 66.1657 39.0401 65.7213 39.3879C65.2838 39.7289 64.6728 39.8995 63.8881 39.8995H61.2738ZM61.8467 38.9264H63.7215C64.1937 38.9264 64.5409 38.8395 64.7631 38.6656C64.9853 38.485 65.0964 38.2175 65.0964 37.8631C65.0964 37.502 64.9853 37.2345 64.7631 37.0606C64.5409 36.8867 64.1937 36.7998 63.7215 36.7998H61.8467V38.9264ZM61.8467 35.8267H63.5444C64.0027 35.8267 64.343 35.7431 64.5652 35.576C64.7943 35.4021 64.9089 35.1479 64.9089 34.8136C64.9089 34.4792 64.7943 34.2284 64.5652 34.0612C64.343 33.8873 64.0027 33.8004 63.5444 33.8004H61.8467V35.8267Z" fill="#333333"/>
<path d="M71.2882 39.9998C70.5799 39.9998 69.9585 39.8493 69.4238 39.5484C68.8961 39.2474 68.4864 38.8261 68.1948 38.2844C67.9031 37.736 67.7573 37.094 67.7573 36.3584C67.7573 35.8033 67.8406 35.3051 68.0073 34.8637C68.1739 34.4157 68.41 34.0345 68.7155 33.7202C69.028 33.3992 69.3995 33.1551 69.83 32.9879C70.2675 32.814 70.7535 32.7271 71.2882 32.7271C72.0034 32.7271 72.6249 32.8775 73.1526 33.1785C73.6803 33.4727 74.09 33.8907 74.3816 34.4324C74.6733 34.9741 74.8191 35.6127 74.8191 36.3484C74.8191 36.9034 74.7358 37.405 74.5691 37.8531C74.4025 38.3011 74.1629 38.6857 73.8504 39.0067C73.5449 39.3277 73.1734 39.5751 72.736 39.749C72.3055 39.9162 71.8229 39.9998 71.2882 39.9998ZM71.2882 38.8963C71.7395 38.8963 72.1214 38.796 72.4339 38.5954C72.7533 38.3948 72.9964 38.1039 73.163 37.7227C73.3366 37.3415 73.4234 36.8867 73.4234 36.3584C73.4234 35.5559 73.2359 34.9339 72.861 34.4926C72.4929 34.0512 71.9687 33.8305 71.2882 33.8305C70.8438 33.8305 70.4619 33.9308 70.1425 34.1314C69.8231 34.3254 69.5766 34.6129 69.403 34.9941C69.2363 35.3686 69.153 35.8234 69.153 36.3584C69.153 37.1542 69.3405 37.7762 69.7154 38.2242C70.0904 38.6723 70.6147 38.8963 71.2882 38.8963Z" fill="#333333"/>
<path d="M79.4869 39.9998C78.98 39.9998 78.5322 39.9362 78.1433 39.8092C77.7614 39.6821 77.4385 39.4949 77.1746 39.2474C76.9108 38.9933 76.7129 38.679 76.581 38.3045C76.449 37.93 76.3831 37.4953 76.3831 37.0004V33.3992C76.3831 33.1785 76.4386 33.0146 76.5497 32.9076C76.6678 32.8006 76.8344 32.7471 77.0497 32.7471C77.2649 32.7471 77.4281 32.8006 77.5392 32.9076C77.6572 33.0146 77.7163 33.1785 77.7163 33.3992V36.9904C77.7163 37.6257 77.8656 38.1039 78.1641 38.4249C78.4697 38.7392 78.9106 38.8963 79.4869 38.8963C80.0632 38.8963 80.5007 38.7392 80.7993 38.4249C81.0979 38.1039 81.2472 37.6257 81.2472 36.9904V33.3992C81.2472 33.1785 81.3027 33.0146 81.4138 32.9076C81.5319 32.8006 81.6985 32.7471 81.9138 32.7471C82.1221 32.7471 82.2818 32.8006 82.3929 32.9076C82.5109 33.0146 82.5699 33.1785 82.5699 33.3992V37.0004C82.5699 37.6558 82.4519 38.2075 82.2158 38.6556C81.9867 39.1036 81.643 39.4414 81.1847 39.6687C80.7264 39.8894 80.1605 39.9998 79.4869 39.9998Z" fill="#333333"/>
<path d="M85.0101 39.9797C84.8088 39.9797 84.6525 39.9262 84.5414 39.8192C84.4373 39.7122 84.3852 39.5584 84.3852 39.3578V33.3891C84.3852 33.1818 84.4373 33.0246 84.5414 32.9176C84.6525 32.804 84.7949 32.7471 84.9685 32.7471C85.1282 32.7471 85.2462 32.7772 85.3226 32.8374C85.4059 32.8909 85.5031 32.9845 85.6142 33.1183L89.6034 38.1039H89.3326V33.359C89.3326 33.1651 89.3847 33.0146 89.4888 32.9076C89.5999 32.8006 89.7562 32.7471 89.9575 32.7471C90.1589 32.7471 90.3117 32.8006 90.4158 32.9076C90.52 33.0146 90.5721 33.1651 90.5721 33.359V39.3778C90.5721 39.5651 90.5235 39.7122 90.4262 39.8192C90.329 39.9262 90.1971 39.9797 90.0305 39.9797C89.8707 39.9797 89.7423 39.9496 89.6451 39.8894C89.5548 39.8292 89.4541 39.7323 89.343 39.5985L85.3643 34.6129H85.6246V39.3578C85.6246 39.5584 85.5726 39.7122 85.4684 39.8192C85.3643 39.9262 85.2115 39.9797 85.0101 39.9797Z" fill="#333333"/>
<path d="M93.1452 39.8995C92.9161 39.8995 92.739 39.8426 92.614 39.7289C92.496 39.6086 92.4369 39.438 92.4369 39.2173V33.5095C92.4369 33.2888 92.496 33.1216 92.614 33.0079C92.739 32.8876 92.9161 32.8274 93.1452 32.8274H95.1658C96.3949 32.8274 97.3427 33.1316 98.0093 33.7402C98.6828 34.3488 99.0196 35.2215 99.0196 36.3584C99.0196 36.9268 98.9328 37.4318 98.7592 37.8731C98.5926 38.3078 98.3426 38.6756 98.0093 38.9766C97.6829 39.2775 97.2802 39.5082 96.8011 39.6687C96.3289 39.8226 95.7838 39.8995 95.1658 39.8995H93.1452ZM93.7701 38.8361H95.0825C95.513 38.8361 95.8845 38.786 96.197 38.6857C96.5164 38.5787 96.7803 38.4249 96.9886 38.2242C97.2038 38.0169 97.3635 37.7594 97.4677 37.4518C97.5718 37.1375 97.6239 36.773 97.6239 36.3584C97.6239 35.5291 97.4121 34.9105 96.9886 34.5026C96.565 34.0947 95.9297 33.8907 95.0825 33.8907H93.7701V38.8361Z" fill="#333333"/>
<path d="M101.308 39.8995C101.093 39.8995 100.926 39.8426 100.808 39.7289C100.69 39.6086 100.631 39.4447 100.631 39.2374V33.4493C100.631 33.2353 100.687 33.0748 100.798 32.9678C100.916 32.8541 101.082 32.7973 101.298 32.7973C101.513 32.7973 101.676 32.8541 101.787 32.9678C101.905 33.0748 101.964 33.2353 101.964 33.4493V38.806H104.985C105.172 38.806 105.315 38.8529 105.412 38.9465C105.516 39.0401 105.568 39.1739 105.568 39.3477C105.568 39.5216 105.516 39.6587 105.412 39.759C105.315 39.8527 105.172 39.8995 104.985 39.8995H101.308Z" fill="#333333"/>
<path d="M107.448 39.8995C107.219 39.8995 107.042 39.8426 106.917 39.7289C106.799 39.6086 106.74 39.438 106.74 39.2173V33.5095C106.74 33.2888 106.799 33.1216 106.917 33.0079C107.042 32.8876 107.219 32.8274 107.448 32.8274H111.167C111.34 32.8274 111.472 32.8708 111.563 32.9578C111.66 33.0447 111.708 33.1684 111.708 33.3289C111.708 33.4961 111.66 33.6265 111.563 33.7202C111.472 33.8071 111.34 33.8506 111.167 33.8506H108.021V35.7966H110.938C111.118 35.7966 111.254 35.8401 111.344 35.9271C111.434 36.014 111.479 36.1411 111.479 36.3082C111.479 36.4754 111.434 36.6025 111.344 36.6894C111.254 36.7764 111.118 36.8198 110.938 36.8198H108.021V38.8763H111.167C111.34 38.8763 111.472 38.9197 111.563 39.0067C111.66 39.0936 111.708 39.2207 111.708 39.3879C111.708 39.5551 111.66 39.6821 111.563 39.7691C111.472 39.856 111.34 39.8995 111.167 39.8995H107.448Z" fill="#333333"/>
<path d="M115.645 39.9998C115.339 39.9998 115.034 39.9764 114.728 39.9296C114.422 39.8894 114.134 39.8259 113.864 39.739C113.593 39.6453 113.35 39.5316 113.134 39.3979C113.009 39.3176 112.923 39.2207 112.874 39.107C112.825 38.9933 112.808 38.883 112.822 38.776C112.843 38.6623 112.888 38.5653 112.957 38.485C113.034 38.3981 113.127 38.3446 113.239 38.3245C113.35 38.3045 113.471 38.3346 113.603 38.4148C113.909 38.5887 114.232 38.7158 114.572 38.796C114.912 38.8763 115.27 38.9164 115.645 38.9164C116.193 38.9164 116.592 38.8295 116.842 38.6556C117.092 38.475 117.217 38.2443 117.217 37.9634C117.217 37.7294 117.127 37.5454 116.947 37.4117C116.773 37.2779 116.471 37.1676 116.04 37.0807L114.895 36.8499C114.235 36.7162 113.742 36.4922 113.416 36.1778C113.096 35.8568 112.937 35.4355 112.937 34.9139C112.937 34.5862 113.006 34.2886 113.145 34.0211C113.284 33.7536 113.478 33.5229 113.728 33.3289C113.985 33.135 114.287 32.9879 114.634 32.8876C114.988 32.7806 115.377 32.7271 115.801 32.7271C116.217 32.7271 116.613 32.7772 116.988 32.8775C117.363 32.9778 117.7 33.125 117.999 33.3189C118.11 33.3925 118.183 33.4827 118.217 33.5897C118.259 33.6967 118.269 33.8037 118.248 33.9108C118.228 34.0111 118.179 34.098 118.103 34.1716C118.026 34.2451 117.929 34.2886 117.811 34.302C117.7 34.3153 117.571 34.2819 117.426 34.2017C117.169 34.0612 116.908 33.9609 116.644 33.9007C116.381 33.8405 116.096 33.8104 115.79 33.8104C115.471 33.8104 115.197 33.8539 114.968 33.9408C114.738 34.0278 114.561 34.1515 114.436 34.312C114.318 34.4658 114.259 34.6497 114.259 34.8637C114.259 35.1045 114.343 35.2984 114.509 35.4455C114.676 35.586 114.961 35.6963 115.363 35.7766L116.499 36.0073C117.186 36.1477 117.696 36.3684 118.03 36.6694C118.37 36.9703 118.54 37.3716 118.54 37.8731C118.54 38.1941 118.471 38.485 118.332 38.7459C118.2 39.0067 118.005 39.2307 117.749 39.418C117.499 39.6052 117.196 39.749 116.842 39.8493C116.488 39.9496 116.089 39.9998 115.645 39.9998Z" fill="#333333"/>
<path d="M122.476 39.9998C122.17 39.9998 121.865 39.9764 121.559 39.9296C121.254 39.8894 120.965 39.8259 120.695 39.739C120.424 39.6453 120.181 39.5316 119.966 39.3979C119.841 39.3176 119.754 39.2207 119.705 39.107C119.657 38.9933 119.639 38.883 119.653 38.776C119.674 38.6623 119.719 38.5653 119.789 38.485C119.865 38.3981 119.959 38.3446 120.07 38.3245C120.181 38.3045 120.302 38.3346 120.434 38.4148C120.74 38.5887 121.063 38.7158 121.403 38.796C121.743 38.8763 122.101 38.9164 122.476 38.9164C123.024 38.9164 123.424 38.8295 123.674 38.6556C123.924 38.475 124.049 38.2443 124.049 37.9634C124.049 37.7294 123.958 37.5454 123.778 37.4117C123.604 37.2779 123.302 37.1676 122.872 37.0807L121.726 36.8499C121.066 36.7162 120.573 36.4922 120.247 36.1778C119.927 35.8568 119.768 35.4355 119.768 34.9139C119.768 34.5862 119.837 34.2886 119.976 34.0211C120.115 33.7536 120.309 33.5229 120.559 33.3289C120.816 33.135 121.118 32.9879 121.465 32.8876C121.82 32.7806 122.208 32.7271 122.632 32.7271C123.049 32.7271 123.444 32.7772 123.819 32.8775C124.194 32.9778 124.531 33.125 124.83 33.3189C124.941 33.3925 125.014 33.4827 125.048 33.5897C125.09 33.6967 125.1 33.8037 125.08 33.9108C125.059 34.0111 125.01 34.098 124.934 34.1716C124.857 34.2451 124.76 34.2886 124.642 34.302C124.531 34.3153 124.403 34.2819 124.257 34.2017C124 34.0612 123.74 33.9609 123.476 33.9007C123.212 33.8405 122.927 33.8104 122.622 33.8104C122.302 33.8104 122.028 33.8539 121.799 33.9408C121.57 34.0278 121.393 34.1515 121.268 34.312C121.149 34.4658 121.09 34.6497 121.09 34.8637C121.09 35.1045 121.174 35.2984 121.34 35.4455C121.507 35.586 121.792 35.6963 122.195 35.7766L123.33 36.0073C124.017 36.1477 124.528 36.3684 124.861 36.6694C125.201 36.9703 125.371 37.3716 125.371 37.8731C125.371 38.1941 125.302 38.485 125.163 38.7459C125.031 39.0067 124.837 39.2307 124.58 39.418C124.33 39.6052 124.028 39.749 123.674 39.8493C123.319 39.9496 122.92 39.9998 122.476 39.9998Z" fill="#333333"/>
<path d="M130.531 39.9797C130.315 39.9797 130.149 39.9229 130.031 39.8092C129.92 39.6888 129.864 39.525 129.864 39.3176V33.4794C129.864 33.2654 129.923 33.1049 130.041 32.9979C130.159 32.8842 130.326 32.8274 130.541 32.8274H133.051C133.857 32.8274 134.478 33.0213 134.916 33.4092C135.353 33.7971 135.572 34.3388 135.572 35.0343C135.572 35.7298 135.353 36.2748 134.916 36.6694C134.478 37.0572 133.857 37.2512 133.051 37.2512H131.197V39.3176C131.197 39.525 131.142 39.6888 131.031 39.8092C130.919 39.9229 130.753 39.9797 130.531 39.9797ZM131.197 36.238H132.843C133.315 36.238 133.673 36.1377 133.916 35.9371C134.159 35.7298 134.28 35.4288 134.28 35.0343C134.28 34.6397 134.159 34.3421 133.916 34.1415C133.673 33.9408 133.315 33.8405 132.843 33.8405H131.197V36.238Z" fill="#333333"/>
<path d="M140.159 39.9998C139.451 39.9998 138.83 39.8493 138.295 39.5484C137.767 39.2474 137.358 38.8261 137.066 38.2844C136.774 37.736 136.629 37.094 136.629 36.3584C136.629 35.8033 136.712 35.3051 136.879 34.8637C137.045 34.4157 137.281 34.0345 137.587 33.7202C137.899 33.3992 138.271 33.1551 138.701 32.9879C139.139 32.814 139.625 32.7271 140.159 32.7271C140.875 32.7271 141.496 32.8775 142.024 33.1785C142.552 33.4727 142.961 33.8907 143.253 34.4324C143.545 34.9741 143.69 35.6127 143.69 36.3484C143.69 36.9034 143.607 37.405 143.44 37.8531C143.274 38.3011 143.034 38.6857 142.722 39.0067C142.416 39.3277 142.045 39.5751 141.607 39.749C141.177 39.9162 140.694 39.9998 140.159 39.9998ZM140.159 38.8963C140.611 38.8963 140.993 38.796 141.305 38.5954C141.625 38.3948 141.868 38.1039 142.034 37.7227C142.208 37.3415 142.295 36.8867 142.295 36.3584C142.295 35.5559 142.107 34.9339 141.732 34.4926C141.364 34.0512 140.84 33.8305 140.159 33.8305C139.715 33.8305 139.333 33.9308 139.014 34.1314C138.694 34.3254 138.448 34.6129 138.274 34.9941C138.108 35.3686 138.024 35.8234 138.024 36.3584C138.024 37.1542 138.212 37.7762 138.587 38.2242C138.962 38.6723 139.486 38.8963 140.159 38.8963Z" fill="#333333"/>
<path d="M147.837 39.9998C147.532 39.9998 147.226 39.9764 146.921 39.9296C146.615 39.8894 146.327 39.8259 146.056 39.739C145.785 39.6453 145.542 39.5316 145.327 39.3979C145.202 39.3176 145.115 39.2207 145.067 39.107C145.018 38.9933 145.001 38.883 145.015 38.776C145.036 38.6623 145.081 38.5653 145.15 38.485C145.227 38.3981 145.32 38.3446 145.431 38.3245C145.542 38.3045 145.664 38.3346 145.796 38.4148C146.101 38.5887 146.424 38.7158 146.765 38.796C147.105 38.8763 147.462 38.9164 147.837 38.9164C148.386 38.9164 148.785 38.8295 149.035 38.6556C149.285 38.475 149.41 38.2443 149.41 37.9634C149.41 37.7294 149.32 37.5454 149.139 37.4117C148.966 37.2779 148.664 37.1676 148.233 37.0807L147.087 36.8499C146.428 36.7162 145.935 36.4922 145.608 36.1778C145.289 35.8568 145.129 35.4355 145.129 34.9139C145.129 34.5862 145.199 34.2886 145.338 34.0211C145.477 33.7536 145.671 33.5229 145.921 33.3289C146.178 33.135 146.48 32.9879 146.827 32.8876C147.181 32.7806 147.57 32.7271 147.994 32.7271C148.41 32.7271 148.806 32.7772 149.181 32.8775C149.556 32.9778 149.893 33.125 150.191 33.3189C150.302 33.3925 150.375 33.4827 150.41 33.5897C150.452 33.6967 150.462 33.8037 150.441 33.9108C150.42 34.0111 150.372 34.098 150.295 34.1716C150.219 34.2451 150.122 34.2886 150.004 34.302C149.893 34.3153 149.764 34.2819 149.618 34.2017C149.362 34.0612 149.101 33.9609 148.837 33.9007C148.573 33.8405 148.289 33.8104 147.983 33.8104C147.664 33.8104 147.39 33.8539 147.16 33.9408C146.931 34.0278 146.754 34.1515 146.629 34.312C146.511 34.4658 146.452 34.6497 146.452 34.8637C146.452 35.1045 146.535 35.2984 146.702 35.4455C146.869 35.586 147.153 35.6963 147.556 35.7766L148.691 36.0073C149.379 36.1477 149.889 36.3684 150.223 36.6694C150.563 36.9703 150.733 37.3716 150.733 37.8731C150.733 38.1941 150.663 38.485 150.525 38.7459C150.393 39.0067 150.198 39.2307 149.941 39.418C149.691 39.6052 149.389 39.749 149.035 39.8493C148.681 39.9496 148.282 39.9998 147.837 39.9998Z" fill="#333333"/>
<path d="M154.669 39.9998C154.363 39.9998 154.058 39.9764 153.752 39.9296C153.446 39.8894 153.158 39.8259 152.887 39.739C152.617 39.6453 152.374 39.5316 152.158 39.3979C152.033 39.3176 151.947 39.2207 151.898 39.107C151.849 38.9933 151.832 38.883 151.846 38.776C151.867 38.6623 151.912 38.5653 151.981 38.485C152.058 38.3981 152.151 38.3446 152.263 38.3245C152.374 38.3045 152.495 38.3346 152.627 38.4148C152.933 38.5887 153.256 38.7158 153.596 38.796C153.936 38.8763 154.294 38.9164 154.669 38.9164C155.217 38.9164 155.616 38.8295 155.866 38.6556C156.116 38.475 156.241 38.2443 156.241 37.9634C156.241 37.7294 156.151 37.5454 155.971 37.4117C155.797 37.2779 155.495 37.1676 155.064 37.0807L153.919 36.8499C153.259 36.7162 152.766 36.4922 152.44 36.1778C152.12 35.8568 151.961 35.4355 151.961 34.9139C151.961 34.5862 152.03 34.2886 152.169 34.0211C152.308 33.7536 152.502 33.5229 152.752 33.3289C153.009 33.135 153.311 32.9879 153.658 32.8876C154.012 32.7806 154.401 32.7271 154.825 32.7271C155.241 32.7271 155.637 32.7772 156.012 32.8775C156.387 32.9778 156.724 33.125 157.022 33.3189C157.134 33.3925 157.207 33.4827 157.241 33.5897C157.283 33.6967 157.293 33.8037 157.272 33.9108C157.252 34.0111 157.203 34.098 157.127 34.1716C157.05 34.2451 156.953 34.2886 156.835 34.302C156.724 34.3153 156.595 34.2819 156.45 34.2017C156.193 34.0612 155.932 33.9609 155.668 33.9007C155.405 33.8405 155.12 33.8104 154.814 33.8104C154.495 33.8104 154.221 33.8539 153.992 33.9408C153.762 34.0278 153.585 34.1515 153.46 34.312C153.342 34.4658 153.283 34.6497 153.283 34.8637C153.283 35.1045 153.367 35.2984 153.533 35.4455C153.7 35.586 153.985 35.6963 154.387 35.7766L155.523 36.0073C156.21 36.1477 156.72 36.3684 157.054 36.6694C157.394 36.9703 157.564 37.3716 157.564 37.8731C157.564 38.1941 157.495 38.485 157.356 38.7459C157.224 39.0067 157.029 39.2307 156.773 39.418C156.523 39.6052 156.22 39.749 155.866 39.8493C155.512 39.9496 155.113 39.9998 154.669 39.9998Z" fill="#333333"/>
<path d="M159.635 39.9797C159.42 39.9797 159.253 39.9229 159.135 39.8092C159.024 39.6888 158.969 39.525 158.969 39.3176V33.4092C158.969 33.1952 159.024 33.0313 159.135 32.9176C159.253 32.804 159.42 32.7471 159.635 32.7471C159.851 32.7471 160.014 32.804 160.125 32.9176C160.243 33.0313 160.302 33.1952 160.302 33.4092V39.3176C160.302 39.525 160.246 39.6888 160.135 39.8092C160.024 39.9229 159.858 39.9797 159.635 39.9797Z" fill="#333333"/>
<path d="M162.877 39.8995C162.648 39.8995 162.471 39.8426 162.346 39.7289C162.228 39.6086 162.169 39.438 162.169 39.2173V33.5095C162.169 33.2888 162.228 33.1216 162.346 33.0079C162.471 32.8876 162.648 32.8274 162.877 32.8274H165.377C165.891 32.8274 166.328 32.9009 166.689 33.0481C167.05 33.1952 167.324 33.4058 167.512 33.68C167.706 33.9542 167.804 34.2819 167.804 34.6631C167.804 35.0911 167.675 35.4522 167.418 35.7465C167.161 36.0407 166.811 36.238 166.366 36.3383V36.1879C166.88 36.2614 167.279 36.4487 167.564 36.7496C167.849 37.0506 167.991 37.4418 167.991 37.9233C167.991 38.5519 167.769 39.0401 167.324 39.3879C166.887 39.7289 166.276 39.8995 165.491 39.8995H162.877ZM163.45 38.9264H165.325C165.797 38.9264 166.144 38.8395 166.366 38.6656C166.588 38.485 166.699 38.2175 166.699 37.8631C166.699 37.502 166.588 37.2345 166.366 37.0606C166.144 36.8867 165.797 36.7998 165.325 36.7998H163.45V38.9264ZM163.45 35.8267H165.148C165.606 35.8267 165.946 35.7431 166.168 35.576C166.397 35.4021 166.512 35.1479 166.512 34.8136C166.512 34.4792 166.397 34.2284 166.168 34.0612C165.946 33.8873 165.606 33.8004 165.148 33.8004H163.45V35.8267Z" fill="#333333"/>
<path d="M170.267 39.9797C170.051 39.9797 169.885 39.9229 169.767 39.8092C169.656 39.6888 169.6 39.525 169.6 39.3176V33.4092C169.6 33.1952 169.656 33.0313 169.767 32.9176C169.885 32.804 170.051 32.7471 170.267 32.7471C170.482 32.7471 170.645 32.804 170.756 32.9176C170.874 33.0313 170.933 33.1952 170.933 33.4092V39.3176C170.933 39.525 170.878 39.6888 170.767 39.8092C170.655 39.9229 170.489 39.9797 170.267 39.9797Z" fill="#333333"/>
<path d="M173.477 39.8995C173.262 39.8995 173.095 39.8426 172.977 39.7289C172.859 39.6086 172.8 39.4447 172.8 39.2374V33.4493C172.8 33.2353 172.856 33.0748 172.967 32.9678C173.085 32.8541 173.251 32.7973 173.467 32.7973C173.682 32.7973 173.845 32.8541 173.956 32.9678C174.074 33.0748 174.133 33.2353 174.133 33.4493V38.806H177.154C177.341 38.806 177.484 38.8529 177.581 38.9465C177.685 39.0401 177.737 39.1739 177.737 39.3477C177.737 39.5216 177.685 39.6587 177.581 39.759C177.484 39.8527 177.341 39.8995 177.154 39.8995H173.477Z" fill="#333333"/>
<path d="M179.576 39.9797C179.36 39.9797 179.194 39.9229 179.076 39.8092C178.965 39.6888 178.909 39.525 178.909 39.3176V33.4092C178.909 33.1952 178.965 33.0313 179.076 32.9176C179.194 32.804 179.36 32.7471 179.576 32.7471C179.791 32.7471 179.954 32.804 180.065 32.9176C180.183 33.0313 180.242 33.1952 180.242 33.4092V39.3176C180.242 39.525 180.187 39.6888 180.076 39.8092C179.964 39.9229 179.798 39.9797 179.576 39.9797Z" fill="#333333"/>
<path d="M184.546 39.9797C184.331 39.9797 184.164 39.9229 184.046 39.8092C183.935 39.6888 183.88 39.525 183.88 39.3176V33.9007H181.849C181.668 33.9007 181.526 33.8539 181.421 33.7603C181.324 33.66 181.276 33.5262 181.276 33.359C181.276 33.1851 181.324 33.0547 181.421 32.9678C181.526 32.8742 181.668 32.8274 181.849 32.8274H187.244C187.424 32.8274 187.563 32.8742 187.66 32.9678C187.765 33.0547 187.817 33.1851 187.817 33.359C187.817 33.5262 187.765 33.66 187.66 33.7603C187.563 33.8539 187.424 33.9007 187.244 33.9007H185.213V39.3176C185.213 39.525 185.157 39.6888 185.046 39.8092C184.935 39.9229 184.768 39.9797 184.546 39.9797Z" fill="#333333"/>
<path d="M189.505 39.9797C189.29 39.9797 189.123 39.9229 189.005 39.8092C188.894 39.6888 188.838 39.525 188.838 39.3176V33.4092C188.838 33.1952 188.894 33.0313 189.005 32.9176C189.123 32.804 189.29 32.7471 189.505 32.7471C189.72 32.7471 189.883 32.804 189.995 32.9176C190.113 33.0313 190.172 33.1952 190.172 33.4092V39.3176C190.172 39.525 190.116 39.6888 190.005 39.8092C189.894 39.9229 189.727 39.9797 189.505 39.9797Z" fill="#333333"/>
<path d="M192.747 39.8995C192.517 39.8995 192.34 39.8426 192.215 39.7289C192.097 39.6086 192.038 39.438 192.038 39.2173V33.5095C192.038 33.2888 192.097 33.1216 192.215 33.0079C192.34 32.8876 192.517 32.8274 192.747 32.8274H196.465C196.639 32.8274 196.771 32.8708 196.861 32.9578C196.958 33.0447 197.007 33.1684 197.007 33.3289C197.007 33.4961 196.958 33.6265 196.861 33.7202C196.771 33.8071 196.639 33.8506 196.465 33.8506H193.319V35.7966H196.236C196.416 35.7966 196.552 35.8401 196.642 35.9271C196.732 36.014 196.777 36.1411 196.777 36.3082C196.777 36.4754 196.732 36.6025 196.642 36.6894C196.552 36.7764 196.416 36.8198 196.236 36.8198H193.319V38.8763H196.465C196.639 38.8763 196.771 38.9197 196.861 39.0067C196.958 39.0936 197.007 39.2207 197.007 39.3879C197.007 39.5551 196.958 39.6821 196.861 39.7691C196.771 39.856 196.639 39.8995 196.465 39.8995H192.747Z" fill="#333333"/>
<path d="M200.943 39.9998C200.637 39.9998 200.332 39.9764 200.026 39.9296C199.721 39.8894 199.433 39.8259 199.162 39.739C198.891 39.6453 198.648 39.5316 198.433 39.3979C198.308 39.3176 198.221 39.2207 198.172 39.107C198.124 38.9933 198.106 38.883 198.12 38.776C198.141 38.6623 198.186 38.5653 198.256 38.485C198.332 38.3981 198.426 38.3446 198.537 38.3245C198.648 38.3045 198.769 38.3346 198.901 38.4148C199.207 38.5887 199.53 38.7158 199.87 38.796C200.21 38.8763 200.568 38.9164 200.943 38.9164C201.491 38.9164 201.891 38.8295 202.141 38.6556C202.391 38.475 202.516 38.2443 202.516 37.9634C202.516 37.7294 202.425 37.5454 202.245 37.4117C202.071 37.2779 201.769 37.1676 201.339 37.0807L200.193 36.8499C199.533 36.7162 199.04 36.4922 198.714 36.1778C198.394 35.8568 198.235 35.4355 198.235 34.9139C198.235 34.5862 198.304 34.2886 198.443 34.0211C198.582 33.7536 198.776 33.5229 199.026 33.3289C199.283 33.135 199.585 32.9879 199.932 32.8876C200.287 32.7806 200.675 32.7271 201.099 32.7271C201.516 32.7271 201.911 32.7772 202.286 32.8775C202.661 32.9778 202.998 33.125 203.297 33.3189C203.408 33.3925 203.481 33.4827 203.515 33.5897C203.557 33.6967 203.568 33.8037 203.547 33.9108C203.526 34.0111 203.477 34.098 203.401 34.1716C203.325 34.2451 203.227 34.2886 203.109 34.302C202.998 34.3153 202.87 34.2819 202.724 34.2017C202.467 34.0612 202.207 33.9609 201.943 33.9007C201.679 33.8405 201.394 33.8104 201.089 33.8104C200.769 33.8104 200.495 33.8539 200.266 33.9408C200.037 34.0278 199.86 34.1515 199.735 34.312C199.617 34.4658 199.558 34.6497 199.558 34.8637C199.558 35.1045 199.641 35.2984 199.808 35.4455C199.974 35.586 200.259 35.6963 200.662 35.7766L201.797 36.0073C202.484 36.1477 202.995 36.3684 203.328 36.6694C203.668 36.9703 203.838 37.3716 203.838 37.8731C203.838 38.1941 203.769 38.485 203.63 38.7459C203.498 39.0067 203.304 39.2307 203.047 39.418C202.797 39.6052 202.495 39.749 202.141 39.8493C201.786 39.9496 201.387 39.9998 200.943 39.9998Z" fill="#333333"/>
</svg>
