<svg width="16" height="16" viewBox="0 0 16 16" fill="none" xmlns="http://www.w3.org/2000/svg">
<path d="M10.5 1.3335C10.8801 1.33345 11.246 1.47769 11.5238 1.73708C11.8016 1.99646 11.9706 2.35164 11.9966 2.73083L12 2.8335V3.33283L13.1666 3.3335C13.5467 3.33345 13.9127 3.47769 14.1905 3.73708C14.4683 3.99646 14.6373 4.35164 14.6633 4.73083L14.6666 4.8335V11.1668C14.6667 11.5469 14.5224 11.9128 14.2631 12.1907C14.0037 12.4685 13.6485 12.6375 13.2693 12.6635L13.1666 12.6668H12V13.1668C12 13.5469 11.8558 13.9128 11.5964 14.1907C11.337 14.4685 10.9818 14.6375 10.6026 14.6635L10.5 14.6668H5.49998C5.11989 14.6669 4.75397 14.5226 4.47614 14.2632C4.19832 14.0039 4.02933 13.6487 4.00331 13.2695L3.99998 13.1668V12.6668H2.83331C2.45323 12.6669 2.0873 12.5226 1.80948 12.2632C1.53166 12.0039 1.36266 11.6487 1.33665 11.2695L1.33331 11.1668V4.8335C1.33327 4.45341 1.47751 4.08748 1.73689 3.80966C1.99628 3.53184 2.35145 3.36284 2.73065 3.33683L2.83331 3.3335L3.99998 3.33283V2.8335C3.99993 2.45341 4.14418 2.08748 4.40356 1.80966C4.66294 1.53184 5.01812 1.36284 5.39731 1.33683L5.49998 1.3335H10.5ZM10.5 2.3335H5.49998C5.37915 2.3335 5.26242 2.37726 5.17136 2.45667C5.0803 2.53609 5.02108 2.64579 5.00465 2.7655L4.99998 2.8335V13.1668C4.99998 13.4202 5.18798 13.6295 5.43198 13.6622L5.49998 13.6668H10.5C10.6208 13.6668 10.7375 13.6231 10.8286 13.5437C10.9197 13.4642 10.9789 13.3545 10.9953 13.2348L11 13.1668V2.8335C11 2.71267 10.9562 2.59593 10.8768 2.50488C10.7974 2.41382 10.6877 2.35459 10.568 2.33816L10.5 2.3335ZM3.99998 4.33283L2.83331 4.3335C2.71249 4.3335 2.59575 4.37726 2.50469 4.45667C2.41363 4.53609 2.35441 4.64579 2.33798 4.7655L2.33331 4.8335V11.1668C2.33331 11.4202 2.52131 11.6295 2.76531 11.6622L2.83331 11.6668H3.99998V4.33283ZM13.1666 4.3335L12 4.33283V11.6668H13.1666C13.2875 11.6668 13.4042 11.6231 13.4953 11.5437C13.5863 11.4642 13.6455 11.3545 13.662 11.2348L13.6666 11.1668V4.8335C13.6666 4.70089 13.614 4.57371 13.5202 4.47994C13.4264 4.38617 13.2993 4.3335 13.1666 4.3335Z" fill="#333333"/>
</svg>
