<svg width="16" height="16" viewBox="0 0 16 16" fill="none" xmlns="http://www.w3.org/2000/svg">
<path d="M10.5 1.3335C10.8978 1.3335 11.2794 1.49153 11.5607 1.77284C11.842 2.05414 12 2.43567 12 2.8335V13.1668C12 13.5647 11.842 13.9462 11.5607 14.2275C11.2794 14.5088 10.8978 14.6668 10.5 14.6668H5.5C5.10218 14.6668 4.72064 14.5088 4.43934 14.2275C4.15804 13.9462 4 13.5647 4 13.1668V2.8335C4 2.43567 4.15804 2.05414 4.43934 1.77284C4.72064 1.49153 5.10218 1.3335 5.5 1.3335H10.5ZM10.5 2.3335H5.5C5.36739 2.3335 5.24021 2.38617 5.14645 2.47994C5.05268 2.57371 5 2.70089 5 2.8335V13.1668C5 13.4428 5.224 13.6668 5.5 13.6668H10.5C10.6326 13.6668 10.7598 13.6142 10.8536 13.5204C10.9473 13.4266 11 13.2994 11 13.1668V2.8335C11 2.70089 10.9473 2.57371 10.8536 2.47994C10.7598 2.38617 10.6326 2.3335 10.5 2.3335ZM8.83267 11.6668C8.96527 11.6667 9.09252 11.7192 9.18642 11.8128C9.28031 11.9064 9.33316 12.0336 9.33333 12.1662C9.33351 12.2988 9.281 12.426 9.18736 12.5199C9.09372 12.6138 8.96661 12.6667 8.834 12.6668L7.16733 12.6695C7.03473 12.6697 6.90748 12.6172 6.81358 12.5235C6.71969 12.4299 6.66684 12.3028 6.66667 12.1702C6.66649 12.0376 6.719 11.9103 6.81264 11.8164C6.90629 11.7225 7.03339 11.6697 7.166 11.6695L8.83267 11.6668ZM9.66667 5.9995C9.74468 5.99947 9.82024 6.02681 9.88017 6.07676C9.94011 6.1267 9.98062 6.19609 9.99467 6.27283L10 6.33283V10.3335C10 10.4115 9.97269 10.4871 9.92274 10.547C9.8728 10.6069 9.80341 10.6475 9.72667 10.6615L9.66667 10.6668H6.33333C6.25532 10.6669 6.17976 10.6395 6.11983 10.5896C6.05989 10.5396 6.01938 10.4702 6.00533 10.3935L6 10.3342V6.3335C5.99997 6.25548 6.02731 6.17992 6.07726 6.11999C6.12721 6.06006 6.19659 6.01954 6.27333 6.0055L6.33333 6.00016H9.66667V5.9995ZM9.66667 3.3335C9.74468 3.33347 9.82024 3.36081 9.88017 3.41076C9.94011 3.4607 9.98062 3.53009 9.99467 3.60683L10 3.66683V5.0035C10 5.08151 9.97269 5.15707 9.92274 5.217C9.8728 5.27694 9.80341 5.31745 9.72667 5.3315L9.66667 5.33683H6.33333C6.25532 5.33686 6.17976 5.30951 6.11983 5.25957C6.05989 5.20962 6.01938 5.14024 6.00533 5.0635L6 5.00283V3.66683C5.99997 3.58881 6.02731 3.51326 6.07726 3.45332C6.12721 3.39339 6.19659 3.35287 6.27333 3.33883L6.33333 3.3335H9.66667Z" fill="#333333"/>
</svg>
