<svg width="16" height="16" viewBox="0 0 16 16" fill="none" xmlns="http://www.w3.org/2000/svg">
<path d="M6.5 10.3335C6.36739 10.3335 6.24021 10.3862 6.14645 10.4799C6.05268 10.5737 6 10.7009 6 10.8335C6 10.9661 6.05268 11.0933 6.14645 11.187C6.24021 11.2808 6.36739 11.3335 6.5 11.3335H8.16667C8.29927 11.3335 8.42645 11.2808 8.52022 11.187C8.61399 11.0933 8.66667 10.9661 8.66667 10.8335C8.66667 10.7009 8.61399 10.5737 8.52022 10.4799C8.42645 10.3862 8.29927 10.3335 8.16667 10.3335H6.5ZM5.5 1.3335C5.10218 1.3335 4.72064 1.49153 4.43934 1.77284C4.15804 2.05414 4 2.43567 4 2.8335V11.5002C4 11.898 4.15804 12.2795 4.43934 12.5608C4.72064 12.8421 5.10218 13.0002 5.5 13.0002H9.16667C9.56449 13.0002 9.94602 12.8421 10.2273 12.5608C10.5086 12.2795 10.6667 11.898 10.6667 11.5002V2.8335C10.6667 2.43567 10.5086 2.05414 10.2273 1.77284C9.94602 1.49153 9.56449 1.3335 9.16667 1.3335H5.5ZM5 2.8335C5 2.70089 5.05268 2.57371 5.14645 2.47994C5.24021 2.38617 5.36739 2.3335 5.5 2.3335H9.16667C9.29927 2.3335 9.42645 2.38617 9.52022 2.47994C9.61399 2.57371 9.66667 2.70089 9.66667 2.8335V11.5002C9.66667 11.6328 9.61399 11.7599 9.52022 11.8537C9.42645 11.9475 9.29927 12.0002 9.16667 12.0002H5.5C5.36739 12.0002 5.24021 11.9475 5.14645 11.8537C5.05268 11.7599 5 11.6328 5 11.5002V2.8335ZM7.16667 14.6668C6.8564 14.6669 6.55373 14.5708 6.30037 14.3917C6.04701 14.2126 5.85542 13.9594 5.752 13.6668H9.5C9.98623 13.6668 10.4525 13.4737 10.7964 13.1299C11.1402 12.786 11.3333 12.3197 11.3333 11.8335V3.0855C11.6259 3.18892 11.8791 3.38051 12.0582 3.63387C12.2373 3.88723 12.3334 4.18989 12.3333 4.50016V11.8335C12.3333 12.5849 12.0348 13.3056 11.5035 13.837C10.9721 14.3683 10.2514 14.6668 9.5 14.6668H7.16667Z" fill="#333333"/>
</svg>
