<svg width="16" height="16" viewBox="0 0 16 16" fill="none" xmlns="http://www.w3.org/2000/svg">
<path d="M3.49998 2.6665C2.92534 2.6665 2.37424 2.89478 1.96791 3.30111C1.56159 3.70743 1.33331 4.25853 1.33331 4.83317V11.1665C1.33331 11.7411 1.56159 12.2922 1.96791 12.6986C2.37424 13.1049 2.92534 13.3332 3.49998 13.3332H12.5C12.7845 13.3332 13.0663 13.2771 13.3291 13.1682C13.592 13.0594 13.8309 12.8998 14.032 12.6986C14.2332 12.4974 14.3928 12.2585 14.5017 11.9957C14.6106 11.7328 14.6666 11.451 14.6666 11.1665V4.83317C14.6666 4.54864 14.6106 4.2669 14.5017 4.00402C14.3928 3.74115 14.2332 3.5023 14.032 3.30111C13.8309 3.09991 13.592 2.94032 13.3291 2.83143C13.0663 2.72255 12.7845 2.6665 12.5 2.6665H3.49998ZM2.33331 4.83317C2.33331 4.18917 2.85598 3.6665 3.49998 3.6665H12.5C13.144 3.6665 13.6666 4.18917 13.6666 4.83317V11.1665C13.6666 11.4759 13.5437 11.7727 13.3249 11.9915C13.1061 12.2103 12.8094 12.3332 12.5 12.3332H3.49998C3.19056 12.3332 2.89381 12.2103 2.67502 11.9915C2.45623 11.7727 2.33331 11.4759 2.33331 11.1665V4.83317ZM12.1666 4.6665C12.034 4.6665 11.9069 4.71918 11.8131 4.81295C11.7193 4.90672 11.6666 5.0339 11.6666 5.1665V5.49984C11.6666 5.63245 11.7193 5.75962 11.8131 5.85339C11.9069 5.94716 12.034 5.99984 12.1666 5.99984C12.2993 5.99984 12.4264 5.94716 12.5202 5.85339C12.614 5.75962 12.6666 5.63245 12.6666 5.49984V5.1665C12.6666 5.0339 12.614 4.90672 12.5202 4.81295C12.4264 4.71918 12.2993 4.6665 12.1666 4.6665ZM11.6666 10.4998C11.6666 10.3672 11.7193 10.2401 11.8131 10.1463C11.9069 10.0525 12.034 9.99984 12.1666 9.99984C12.2993 9.99984 12.4264 10.0525 12.5202 10.1463C12.614 10.2401 12.6666 10.3672 12.6666 10.4998V10.8332C12.6666 10.9658 12.614 11.093 12.5202 11.1867C12.4264 11.2805 12.2993 11.3332 12.1666 11.3332C12.034 11.3332 11.9069 11.2805 11.8131 11.1867C11.7193 11.093 11.6666 10.9658 11.6666 10.8332V10.4998ZM12.1666 7.33317C12.034 7.33317 11.9069 7.38585 11.8131 7.47962C11.7193 7.57339 11.6666 7.70056 11.6666 7.83317V8.1665C11.6666 8.29911 11.7193 8.42629 11.8131 8.52006C11.9069 8.61383 12.034 8.6665 12.1666 8.6665C12.2993 8.6665 12.4264 8.61383 12.5202 8.52006C12.614 8.42629 12.6666 8.29911 12.6666 8.1665V7.83317C12.6666 7.70056 12.614 7.57339 12.5202 7.47962C12.4264 7.38585 12.2993 7.33317 12.1666 7.33317ZM3.33331 5.1665C3.33331 5.0339 3.38599 4.90672 3.47976 4.81295C3.57353 4.71918 3.7007 4.6665 3.83331 4.6665C3.96592 4.6665 4.0931 4.71918 4.18687 4.81295C4.28063 4.90672 4.33331 5.0339 4.33331 5.1665V5.49984C4.33331 5.63245 4.28063 5.75962 4.18687 5.85339C4.0931 5.94716 3.96592 5.99984 3.83331 5.99984C3.7007 5.99984 3.57353 5.94716 3.47976 5.85339C3.38599 5.75962 3.33331 5.63245 3.33331 5.49984V5.1665ZM3.83331 9.99984C3.7007 9.99984 3.57353 10.0525 3.47976 10.1463C3.38599 10.2401 3.33331 10.3672 3.33331 10.4998V10.8332C3.33331 10.9658 3.38599 11.093 3.47976 11.1867C3.57353 11.2805 3.7007 11.3332 3.83331 11.3332C3.96592 11.3332 4.0931 11.2805 4.18687 11.1867C4.28063 11.093 4.33331 10.9658 4.33331 10.8332V10.4998C4.33331 10.3672 4.28063 10.2401 4.18687 10.1463C4.0931 10.0525 3.96592 9.99984 3.83331 9.99984ZM3.33331 7.83317C3.33331 7.70056 3.38599 7.57339 3.47976 7.47962C3.57353 7.38585 3.7007 7.33317 3.83331 7.33317C3.96592 7.33317 4.0931 7.38585 4.18687 7.47962C4.28063 7.57339 4.33331 7.70056 4.33331 7.83317V8.1665C4.33331 8.29911 4.28063 8.42629 4.18687 8.52006C4.0931 8.61383 3.96592 8.6665 3.83331 8.6665C3.7007 8.6665 3.57353 8.61383 3.47976 8.52006C3.38599 8.42629 3.33331 8.29911 3.33331 8.1665V7.83317ZM6.66665 6.5005C6.66665 6.1145 7.05065 5.87384 7.35598 6.06917L9.80598 7.63117C10.0646 7.79584 10.0646 8.20384 9.80598 8.3685L7.35598 9.9305C7.05065 10.1258 6.66665 9.88517 6.66665 9.49917V6.49984V6.5005Z" fill="#333333"/>
</svg>
