<svg width="16" height="16" viewBox="0 0 16 16" fill="none" xmlns="http://www.w3.org/2000/svg">
<path d="M8.00802 1.5C8.49736 1.50533 8.98469 1.562 9.46269 1.66867C9.56438 1.69137 9.65644 1.74527 9.726 1.82284C9.79557 1.90041 9.83916 1.99778 9.85069 2.10133L9.96402 3.11933C9.98002 3.26286 10.0295 3.40062 10.1084 3.52154C10.1874 3.64246 10.2936 3.74315 10.4186 3.81553C10.5436 3.8879 10.6838 3.92993 10.828 3.93823C10.9721 3.94654 11.1162 3.92088 11.2487 3.86333L12.182 3.45333C12.2769 3.41157 12.3823 3.40029 12.4838 3.42108C12.5853 3.44186 12.6779 3.49366 12.7487 3.56933C13.4235 4.29001 13.9261 5.15435 14.2187 6.09733C14.2493 6.19649 14.2482 6.30271 14.2158 6.40126C14.1833 6.49981 14.1209 6.58581 14.0374 6.64733L13.21 7.258C13.0935 7.34344 12.9987 7.45515 12.9333 7.58406C12.868 7.71298 12.8339 7.85547 12.8339 8C12.8339 8.14453 12.868 8.28702 12.9333 8.41594C12.9987 8.54485 13.0935 8.65655 13.21 8.742L14.0387 9.352C14.1224 9.41357 14.1848 9.49968 14.2173 9.59837C14.2498 9.69706 14.2508 9.80342 14.22 9.90267C13.9276 10.8455 13.4252 11.7099 12.7507 12.4307C12.68 12.5063 12.5876 12.5582 12.4863 12.5791C12.3849 12.5999 12.2795 12.5889 12.1847 12.5473L11.2474 12.136C11.1151 12.078 10.971 12.052 10.8268 12.06C10.6826 12.068 10.5423 12.1099 10.4173 12.1822C10.2923 12.2545 10.186 12.3552 10.1072 12.4762C10.0283 12.5972 9.97904 12.7351 9.96336 12.8787L9.85002 13.896C9.83871 13.9983 9.79607 14.0947 9.72794 14.1719C9.6598 14.2491 9.5695 14.3034 9.46936 14.3273C8.50372 14.5571 7.49766 14.5571 6.53202 14.3273C6.43176 14.3035 6.3413 14.2493 6.27304 14.1721C6.20478 14.0948 6.16205 13.9984 6.15069 13.896L6.03802 12.88C6.02166 12.7369 5.97196 12.5996 5.89291 12.4791C5.81387 12.3587 5.70768 12.2585 5.58288 12.1865C5.45809 12.1146 5.31815 12.0729 5.17432 12.0648C5.03048 12.0567 4.88676 12.0825 4.75469 12.14L3.81735 12.5507C3.72246 12.5924 3.61695 12.6035 3.51543 12.5826C3.41391 12.5617 3.3214 12.5098 3.25069 12.434C2.57607 11.7124 2.07392 10.8471 1.78202 9.90333C1.75129 9.80408 1.75223 9.69772 1.78473 9.59903C1.81723 9.50035 1.87966 9.41424 1.96335 9.35267L2.79202 8.742C2.90859 8.65655 3.00338 8.54485 3.06872 8.41594C3.13406 8.28702 3.16811 8.14453 3.16811 8C3.16811 7.85547 3.13406 7.71298 3.06872 7.58406C3.00338 7.45515 2.90859 7.34344 2.79202 7.258L1.96335 6.64867C1.87966 6.5871 1.81723 6.50099 1.78473 6.4023C1.75223 6.30361 1.75129 6.19725 1.78202 6.098C2.07457 5.15502 2.57717 4.29067 3.25202 3.57C3.32281 3.49433 3.41536 3.44252 3.51688 3.42174C3.61839 3.40096 3.72386 3.41223 3.81869 3.454L4.75202 3.864C4.8847 3.92151 5.02902 3.94711 5.17339 3.93872C5.31775 3.93034 5.45814 3.88821 5.58327 3.81573C5.7084 3.74324 5.81479 3.64242 5.89388 3.52136C5.97297 3.4003 6.02257 3.26237 6.03869 3.11867L6.15202 2.10133C6.16346 1.99757 6.20709 1.89999 6.27679 1.82228C6.3465 1.74456 6.43878 1.69062 6.54069 1.668C7.02269 1.56148 7.51442 1.50517 8.00802 1.5ZM8.00802 2.5C7.70561 2.50355 7.40389 2.52963 7.10536 2.578L7.03202 3.22933C6.99867 3.52887 6.89542 3.81638 6.73058 4.0687C6.56575 4.32101 6.34395 4.53108 6.08305 4.68196C5.82215 4.83284 5.52945 4.92033 5.22855 4.93735C4.92764 4.95438 4.62694 4.90048 4.35069 4.78L3.75135 4.51733C3.37031 4.97993 3.06702 5.5014 2.85336 6.06133L3.38469 6.45267C3.62754 6.63106 3.82501 6.86409 3.96113 7.13292C4.09726 7.40175 4.16822 7.69883 4.16828 8.00016C4.16835 8.30149 4.09751 8.59861 3.9615 8.8675C3.82549 9.13639 3.62813 9.3695 3.38535 9.548L2.85269 9.94C3.06602 10.5013 3.37002 11.024 3.75135 11.488L4.35469 11.2233C4.63035 11.103 4.93042 11.049 5.23074 11.0658C5.53106 11.0826 5.82324 11.1697 6.08377 11.32C6.34429 11.4703 6.56588 11.6797 6.7307 11.9314C6.89551 12.183 6.99895 12.4698 7.03269 12.7687L7.10536 13.4247C7.69869 13.5247 8.30469 13.5247 8.89736 13.4247L8.97069 12.7687C9.00388 12.4694 9.10696 12.1821 9.27163 11.93C9.4363 11.6779 9.65793 11.4681 9.91864 11.3174C10.1793 11.1667 10.4718 11.0795 10.7725 11.0627C11.0731 11.0459 11.3735 11.1 11.6494 11.2207L12.252 11.4847C12.6334 11.0217 12.9369 10.4998 13.1507 9.93933L12.6187 9.54733C12.3757 9.36903 12.1781 9.13603 12.0419 8.86718C11.9057 8.59834 11.8347 8.30121 11.8346 7.99984C11.8346 7.69846 11.9055 7.4013 12.0415 7.1324C12.1776 6.8635 12.3751 6.63041 12.618 6.452L13.1494 6.06067C12.9355 5.50045 12.632 4.97875 12.2507 4.516L11.6527 4.778C11.3765 4.8989 11.0758 4.95316 10.7748 4.93641C10.4738 4.91966 10.1809 4.83236 9.91989 4.68156C9.65885 4.53076 9.43692 4.32068 9.27204 4.0683C9.10715 3.81592 9.00392 3.5283 8.97069 3.22867L8.89802 2.578C8.60393 2.52993 8.30599 2.50385 8.00802 2.5ZM8.00002 5.5C8.66306 5.5 9.29895 5.76339 9.76779 6.23223C10.2366 6.70107 10.5 7.33696 10.5 8C10.5 8.66304 10.2366 9.29893 9.76779 9.76777C9.29895 10.2366 8.66306 10.5 8.00002 10.5C7.33698 10.5 6.7011 10.2366 6.23225 9.76777C5.76341 9.29893 5.50002 8.66304 5.50002 8C5.50002 7.33696 5.76341 6.70107 6.23225 6.23223C6.7011 5.76339 7.33698 5.5 8.00002 5.5ZM8.00002 6.5C7.6022 6.5 7.22067 6.65804 6.93936 6.93934C6.65806 7.22064 6.50002 7.60217 6.50002 8C6.50002 8.39782 6.65806 8.77936 6.93936 9.06066C7.22067 9.34196 7.6022 9.5 8.00002 9.5C8.39785 9.5 8.77938 9.34196 9.06068 9.06066C9.34199 8.77936 9.50002 8.39782 9.50002 8C9.50002 7.60217 9.34199 7.22064 9.06068 6.93934C8.77938 6.65804 8.39785 6.5 8.00002 6.5Z" fill="#333333"/>
</svg>
