<svg width="16" height="16" viewBox="0 0 16 16" fill="none" xmlns="http://www.w3.org/2000/svg">
<path d="M8.66733 3.16813C8.66733 2.85871 8.54442 2.56197 8.32562 2.34317C8.10683 2.12438 7.81009 2.00146 7.50067 2.00146H3.16733C2.85791 2.00146 2.56117 2.12438 2.34238 2.34317C2.12358 2.56197 2.00067 2.85871 2.00067 3.16813V6.16813C2.00067 6.81213 2.52267 7.3348 3.16733 7.3348H7.50067C7.81009 7.3348 8.10683 7.21188 8.32562 6.99309C8.54442 6.7743 8.66733 6.47755 8.66733 6.16813V3.16813ZM5.99267 9.8228C5.99267 9.51338 5.86975 9.21663 5.65096 8.99784C5.43217 8.77905 5.13542 8.65613 4.826 8.65613H3.16667C2.85725 8.65613 2.5605 8.77905 2.34171 8.99784C2.12292 9.21663 2 9.51338 2 9.8228V12.8321C2 13.4768 2.522 13.9988 3.16667 13.9988H4.82533C5.13475 13.9988 5.4315 13.8759 5.65029 13.6571C5.86908 13.4383 5.992 13.1416 5.992 12.8321V9.8228H5.99267ZM7.66667 3.16813V6.16813C7.66667 6.21233 7.64911 6.25473 7.61785 6.28598C7.5866 6.31724 7.5442 6.3348 7.5 6.3348H3.16667C3.12246 6.3348 3.08007 6.31724 3.04882 6.28598C3.01756 6.25473 3 6.21233 3 6.16813V3.16813C3 3.12393 3.01756 3.08154 3.04882 3.05028C3.08007 3.01902 3.12246 3.00146 3.16667 3.00146H7.5C7.5442 3.00146 7.5866 3.01902 7.61785 3.05028C7.64911 3.08154 7.66667 3.12393 7.66667 3.16813ZM4.992 9.8228V12.8321C4.992 12.8763 4.97444 12.9187 4.94318 12.95C4.91193 12.9812 4.86954 12.9988 4.82533 12.9988H3.16667C3.12246 12.9988 3.08007 12.9812 3.04882 12.95C3.01756 12.9187 3 12.8763 3 12.8321V9.8228C3 9.7786 3.01756 9.7362 3.04882 9.70495C3.08007 9.67369 3.12246 9.65613 3.16667 9.65613H4.82533C4.86954 9.65613 4.91193 9.67369 4.94318 9.70495C4.97444 9.7362 4.992 9.7786 4.992 9.8228ZM14.0013 9.83213C14.0013 9.52271 13.8784 9.22597 13.6596 9.00717C13.4408 8.78838 13.1441 8.66547 12.8347 8.66547H8.50133C8.20832 8.66532 7.92598 8.77544 7.71044 8.97394C7.4949 9.17243 7.36194 9.44476 7.338 9.7368L7.33467 9.83213V12.8321C7.33467 13.4768 7.85667 13.9988 8.50133 13.9988H12.8347C13.1441 13.9988 13.4408 13.8759 13.6596 13.6571C13.8784 13.4383 14.0013 13.1416 14.0013 12.8321V9.83213ZM13.0013 9.83213V12.8321C13.0013 12.8763 12.9838 12.9187 12.9525 12.95C12.9213 12.9812 12.8789 12.9988 12.8347 12.9988H8.50133C8.45713 12.9988 8.41474 12.9812 8.38348 12.95C8.35223 12.9187 8.33467 12.8763 8.33467 12.8321V9.83213L8.33867 9.79413C8.34725 9.75746 8.36801 9.72478 8.39755 9.70141C8.42709 9.67805 8.46367 9.66538 8.50133 9.66547H12.8347C12.8789 9.66547 12.9213 9.68302 12.9525 9.71428C12.9838 9.74554 13.0013 9.78793 13.0013 9.83213ZM14.0013 3.16813C14.0013 2.85871 13.8784 2.56197 13.6596 2.34317C13.4408 2.12438 13.1441 2.00146 12.8347 2.00146H11.168C10.8586 2.00146 10.5618 2.12438 10.343 2.34317C10.1243 2.56197 10.0013 2.85871 10.0013 3.16813V6.16813C10.0013 6.81213 10.5233 7.3348 11.168 7.3348H12.8347C13.1441 7.3348 13.4408 7.21188 13.6596 6.99309C13.8784 6.7743 14.0013 6.47755 14.0013 6.16813V3.16813ZM13.0013 6.16813C13.0013 6.21233 12.9838 6.25473 12.9525 6.28598C12.9213 6.31724 12.8789 6.3348 12.8347 6.3348H11.168C11.1238 6.3348 11.0814 6.31724 11.0501 6.28598C11.0189 6.25473 11.0013 6.21233 11.0013 6.16813V3.16813C11.0013 3.12393 11.0189 3.08154 11.0501 3.05028C11.0814 3.01902 11.1238 3.00146 11.168 3.00146H12.8347C12.8789 3.00146 12.9213 3.01902 12.9525 3.05028C12.9838 3.08154 13.0013 3.12393 13.0013 3.16813V6.16813Z" fill="#333333"/>
</svg>
