<svg width="22" height="24" viewBox="0 0 22 24" fill="none" xmlns="http://www.w3.org/2000/svg">
<path d="M18.3924 4.71281C18.3758 4.59281 18.2707 4.5264 18.1838 4.51909C17.5432 4.47095 16.9026 4.4232 16.262 4.37583C16.262 4.37583 14.9874 3.11049 14.8475 2.97043C14.7075 2.83046 14.4342 2.87303 14.3281 2.90427C14.3124 2.90887 14.0496 2.98999 13.6148 3.12454C13.1891 1.89939 12.4377 0.773526 11.1158 0.773526C11.0793 0.773526 11.0417 0.775006 11.0042 0.777143C10.6282 0.279965 10.1625 0.0639648 9.76026 0.0639648C6.68095 0.0639648 5.2098 3.91342 4.74854 5.86958C3.55199 6.24035 2.70197 6.50394 2.59339 6.53805C1.9255 6.74755 1.90438 6.7686 1.81668 7.39794C1.75068 7.8744 0.00312042 21.3891 0.00312042 21.3891L13.6205 23.9405L20.9988 22.3444C20.9988 22.3444 18.4086 4.83281 18.3924 4.71281ZM12.8622 3.35731L11.7099 3.71394C11.7103 3.63273 11.7108 3.55284 11.7108 3.46547C11.7108 2.70405 11.6051 2.09098 11.4355 1.60498C12.1166 1.69046 12.5702 2.46544 12.8622 3.35731ZM10.5906 1.75596C10.7799 2.23046 10.9031 2.91142 10.9031 3.83032C10.9031 3.87734 10.9026 3.92032 10.9022 3.9638C10.1529 4.19591 9.33862 4.44791 8.52254 4.70073C8.98075 2.93229 9.83966 2.07816 10.5906 1.75596ZM9.67569 0.88991C9.80859 0.88991 9.94248 0.935033 10.0706 1.02323C9.08374 1.48761 8.02593 2.6572 7.57922 4.99284L5.69818 5.57542C6.22142 3.79391 7.46391 0.88991 9.67569 0.88991Z" fill="white"/>
<path d="M18.1838 4.51936C17.5432 4.47122 16.9026 4.42347 16.262 4.3761C16.262 4.3761 14.9874 3.11075 14.8475 2.9707C14.7952 2.91859 14.7246 2.89188 14.6508 2.88037L13.6211 23.9406L20.9988 22.3446C20.9988 22.3446 18.4086 4.83308 18.3924 4.71308C18.3758 4.59308 18.2707 4.52667 18.1838 4.51936Z" fill="#CCCCCC"/>
<path d="M11.1158 8.59581L10.206 11.3021C10.206 11.3021 9.4089 10.8766 8.4318 10.8766C6.99936 10.8766 6.92728 11.7756 6.92728 12.0021C6.92728 13.2381 10.1492 13.7117 10.1492 16.6068C10.1492 18.8846 8.70451 20.3513 6.75657 20.3513C4.41904 20.3513 3.22364 18.8965 3.22364 18.8965L3.84953 16.8285C3.84953 16.8285 5.0783 17.8835 6.11514 17.8835C6.79265 17.8835 7.06824 17.3501 7.06824 16.9603C7.06824 15.348 4.42495 15.2761 4.42495 12.6268C4.42495 10.397 6.02539 8.23926 9.25602 8.23926C10.5008 8.23926 11.1158 8.59581 11.1158 8.59581Z" fill="#67B21A"/>
</svg>
