<svg width="40" height="40" viewBox="0 0 40 40" fill="none" xmlns="http://www.w3.org/2000/svg">
<path d="M36.6667 15H30C29 15 28.3333 15.6667 28.3333 16.6667V36.6667C28.3333 37.6667 29 38.3333 30 38.3333H36.6667C37.6667 38.3333 38.3333 37.6667 38.3333 36.6667V16.6667C38.3333 15.6667 37.6667 15 36.6667 15Z" fill="#068BF7"/>
<path d="M16.6667 1.66602H23.3333C24.3333 1.66602 25 2.33268 25 3.33268V36.666C25 37.666 24.3333 38.3327 23.3333 38.3327H16.6667C15.6667 38.3327 15 37.666 15 36.666V3.33268C15 2.33268 15.6667 1.66602 16.6667 1.66602Z" fill="#67B31A"/>
<path d="M3.33341 21.666H10.0001C11.0001 21.666 11.6667 22.3327 11.6667 23.3327V36.666C11.6667 37.666 11.0001 38.3327 10.0001 38.3327H3.33341C2.33341 38.3327 1.66675 37.666 1.66675 36.666V23.3327C1.66675 22.3327 2.33341 21.666 3.33341 21.666Z" fill="#DD2E44"/>
</svg>
