<svg width="20" height="20" viewBox="0 0 20 20" fill="none" xmlns="http://www.w3.org/2000/svg">
<path d="M9.99988 0C10.2651 0 10.5194 0.105357 10.707 0.292893C10.8945 0.48043 10.9999 0.734784 10.9999 1V4C10.9999 4.26522 10.8945 4.51957 10.707 4.70711C10.5194 4.89464 10.2651 5 9.99988 5C9.73466 5 9.48031 4.89464 9.29277 4.70711C9.10524 4.51957 8.99988 4.26522 8.99988 4V1C8.99988 0.734784 9.10524 0.48043 9.29277 0.292893C9.48031 0.105357 9.73466 0 9.99988 0ZM9.99988 15C10.2651 15 10.5194 15.1054 10.707 15.2929C10.8945 15.4804 10.9999 15.7348 10.9999 16V19C10.9999 19.2652 10.8945 19.5196 10.707 19.7071C10.5194 19.8946 10.2651 20 9.99988 20C9.73466 20 9.48031 19.8946 9.29277 19.7071C9.10524 19.5196 8.99988 19.2652 8.99988 19V16C8.99988 15.7348 9.10524 15.4804 9.29277 15.2929C9.48031 15.1054 9.73466 15 9.99988 15ZM19.9999 10C19.9999 10.2652 19.8945 10.5196 19.707 10.7071C19.5194 10.8946 19.2651 11 18.9999 11H15.9999C15.7347 11 15.4803 10.8946 15.2928 10.7071C15.1052 10.5196 14.9999 10.2652 14.9999 10C14.9999 9.73478 15.1052 9.48043 15.2928 9.29289C15.4803 9.10536 15.7347 9 15.9999 9H18.9999C19.2651 9 19.5194 9.10536 19.707 9.29289C19.8945 9.48043 19.9999 9.73478 19.9999 10ZM4.99988 10C4.99988 10.2652 4.89452 10.5196 4.70698 10.7071C4.51945 10.8946 4.26509 11 3.99988 11H0.999878C0.734661 11 0.480307 10.8946 0.292771 10.7071C0.105235 10.5196 -0.00012207 10.2652 -0.00012207 10C-0.00012207 9.73478 0.105235 9.48043 0.292771 9.29289C0.480307 9.10536 0.734661 9 0.999878 9H3.99988C4.26509 9 4.51945 9.10536 4.70698 9.29289C4.89452 9.48043 4.99988 9.73478 4.99988 10ZM17.0709 17.071C16.8833 17.2585 16.629 17.3638 16.3639 17.3638C16.0987 17.3638 15.8444 17.2585 15.6569 17.071L13.5359 14.95C13.3537 14.7614 13.2529 14.5088 13.2552 14.2466C13.2575 13.9844 13.3627 13.7336 13.5481 13.5482C13.7335 13.3628 13.9843 13.2576 14.2465 13.2553C14.5087 13.253 14.7613 13.3538 14.9499 13.536L17.0709 15.656C17.1639 15.7489 17.2376 15.8592 17.2879 15.9806C17.3383 16.102 17.3642 16.2321 17.3642 16.3635C17.3642 16.4949 17.3383 16.625 17.2879 16.7464C17.2376 16.8678 17.1639 16.9781 17.0709 17.071ZM6.46388 6.464C6.27635 6.65147 6.02204 6.75679 5.75688 6.75679C5.49171 6.75679 5.23741 6.65147 5.04988 6.464L2.92988 4.344C2.74224 4.15649 2.63677 3.90212 2.63668 3.63685C2.63658 3.37158 2.74187 3.11714 2.92938 2.9295C3.11689 2.74186 3.37125 2.63639 3.63652 2.6363C3.90179 2.6362 4.15624 2.74149 4.34388 2.929L6.46388 5.05C6.65135 5.23753 6.75666 5.49184 6.75666 5.757C6.75666 6.02216 6.65135 6.27647 6.46388 6.464ZM2.92988 17.071C2.74241 16.8835 2.63709 16.6292 2.63709 16.364C2.63709 16.0988 2.74241 15.8445 2.92988 15.657L5.05088 13.536C5.23948 13.3538 5.49208 13.253 5.75428 13.2553C6.01648 13.2576 6.26729 13.3628 6.4527 13.5482C6.6381 13.7336 6.74327 13.9844 6.74555 14.2466C6.74783 14.5088 6.64704 14.7614 6.46488 14.95L4.34488 17.071C4.252 17.164 4.14172 17.2377 4.02032 17.2881C3.89892 17.3384 3.76879 17.3643 3.63738 17.3643C3.50596 17.3643 3.37584 17.3384 3.25444 17.2881C3.13304 17.2377 3.02275 17.164 2.92988 17.071ZM13.5359 6.464C13.3484 6.27647 13.2431 6.02216 13.2431 5.757C13.2431 5.49184 13.3484 5.23753 13.5359 5.05L15.6559 2.929C15.7487 2.83609 15.859 2.76238 15.9803 2.71207C16.1016 2.66176 16.2317 2.63584 16.363 2.6358C16.4944 2.63575 16.6244 2.66158 16.7458 2.7118C16.8672 2.76202 16.9775 2.83566 17.0704 2.9285C17.1633 3.02134 17.237 3.13158 17.2873 3.25291C17.3376 3.37424 17.3635 3.5043 17.3636 3.63565C17.3636 3.76699 17.3378 3.89707 17.2876 4.01843C17.2374 4.1398 17.1637 4.25009 17.0709 4.343L14.9499 6.464C14.7624 6.65147 14.508 6.75679 14.2429 6.75679C13.9777 6.75679 13.7234 6.65147 13.5359 6.464Z" fill="#999999"/>
</svg>
