<svg width="40" height="40" viewBox="0 0 40 40" fill="none" xmlns="http://www.w3.org/2000/svg">
<path d="M20 0C20.5304 0 21.0391 0.210714 21.4142 0.585786C21.7893 0.960859 22 1.46957 22 2V8C22 8.53043 21.7893 9.03914 21.4142 9.41421C21.0391 9.78929 20.5304 10 20 10C19.4696 10 18.9609 9.78929 18.5858 9.41421C18.2107 9.03914 18 8.53043 18 8V2C18 1.46957 18.2107 0.960859 18.5858 0.585786C18.9609 0.210714 19.4696 0 20 0ZM20 30C20.5304 30 21.0391 30.2107 21.4142 30.5858C21.7893 30.9609 22 31.4696 22 32V38C22 38.5304 21.7893 39.0391 21.4142 39.4142C21.0391 39.7893 20.5304 40 20 40C19.4696 40 18.9609 39.7893 18.5858 39.4142C18.2107 39.0391 18 38.5304 18 38V32C18 31.4696 18.2107 30.9609 18.5858 30.5858C18.9609 30.2107 19.4696 30 20 30ZM40 20C40 20.5304 39.7893 21.0391 39.4142 21.4142C39.0391 21.7893 38.5304 22 38 22H32C31.4696 22 30.9609 21.7893 30.5858 21.4142C30.2107 21.0391 30 20.5304 30 20C30 19.4696 30.2107 18.9609 30.5858 18.5858C30.9609 18.2107 31.4696 18 32 18H38C38.5304 18 39.0391 18.2107 39.4142 18.5858C39.7893 18.9609 40 19.4696 40 20ZM10 20C10 20.5304 9.78929 21.0391 9.41421 21.4142C9.03914 21.7893 8.53043 22 8 22H2C1.46957 22 0.960859 21.7893 0.585786 21.4142C0.210714 21.0391 0 20.5304 0 20C0 19.4696 0.210714 18.9609 0.585786 18.5858C0.960859 18.2107 1.46957 18 2 18H8C8.53043 18 9.03914 18.2107 9.41421 18.5858C9.78929 18.9609 10 19.4696 10 20ZM34.142 34.142C33.7669 34.5169 33.2583 34.7276 32.728 34.7276C32.1977 34.7276 31.6891 34.5169 31.314 34.142L27.072 29.9C26.7077 29.5228 26.5061 29.0176 26.5107 28.4932C26.5152 27.9688 26.7255 27.4672 27.0964 27.0964C27.4672 26.7255 27.9688 26.5152 28.4932 26.5107C29.0176 26.5061 29.5228 26.7077 29.9 27.072L34.142 31.312C34.3279 31.4977 34.4755 31.7183 34.5761 31.9611C34.6768 32.2039 34.7286 32.4642 34.7286 32.727C34.7286 32.9898 34.6768 33.2501 34.5761 33.4929C34.4755 33.7357 34.3279 33.9563 34.142 34.142ZM12.928 12.928C12.5529 13.3029 12.0443 13.5136 11.514 13.5136C10.9837 13.5136 10.4751 13.3029 10.1 12.928L5.86 8.688C5.48472 8.31298 5.27378 7.80425 5.27359 7.27371C5.27341 6.74317 5.48398 6.23428 5.859 5.859C6.23402 5.48372 6.74275 5.27278 7.27329 5.27259C7.80383 5.27241 8.31272 5.48298 8.688 5.858L12.928 10.1C13.3029 10.4751 13.5136 10.9837 13.5136 11.514C13.5136 12.0443 13.3029 12.5529 12.928 12.928ZM5.86 34.142C5.48506 33.7669 5.27443 33.2583 5.27443 32.728C5.27443 32.1977 5.48506 31.6891 5.86 31.314L10.102 27.072C10.4792 26.7077 10.9844 26.5061 11.5088 26.5107C12.0332 26.5152 12.5348 26.7255 12.9056 27.0964C13.2765 27.4672 13.4868 27.9688 13.4913 28.4932C13.4959 29.0176 13.2943 29.5228 12.93 29.9L8.69 34.142C8.50425 34.3279 8.28368 34.4755 8.04088 34.5761C7.79809 34.6768 7.53783 34.7286 7.275 34.7286C7.01217 34.7286 6.75191 34.6768 6.50912 34.5761C6.26632 34.4755 6.04575 34.3279 5.86 34.142ZM27.072 12.928C26.6971 12.5529 26.4864 12.0443 26.4864 11.514C26.4864 10.9837 26.6971 10.4751 27.072 10.1L31.312 5.858C31.4977 5.67218 31.7182 5.52475 31.9608 5.42414C32.2035 5.32352 32.4636 5.27169 32.7263 5.2716C32.989 5.2715 33.2491 5.32315 33.4919 5.4236C33.7346 5.52404 33.9552 5.67131 34.141 5.857C34.3268 6.04269 34.4742 6.26316 34.5749 6.50583C34.6755 6.74849 34.7273 7.0086 34.7274 7.27129C34.7275 7.53399 34.6758 7.79413 34.5754 8.03687C34.475 8.2796 34.3277 8.50018 34.142 8.686L29.9 12.928C29.5249 13.3029 29.0163 13.5136 28.486 13.5136C27.9557 13.5136 27.4471 13.3029 27.072 12.928Z" fill="#FFA24C"/>
</svg>
