<svg width="8" height="14" viewBox="0 0 8 14" fill="none" xmlns="http://www.w3.org/2000/svg">
<path d="M6.5 0.333496C6.89782 0.333496 7.27936 0.491531 7.56066 0.772836C7.84196 1.05414 8 1.43567 8 1.8335V12.1668C8 12.5647 7.84196 12.9462 7.56066 13.2275C7.27936 13.5088 6.89782 13.6668 6.5 13.6668H1.5C1.10218 13.6668 0.720645 13.5088 0.43934 13.2275C0.158035 12.9462 0 12.5647 0 12.1668V1.8335C0 1.43567 0.158035 1.05414 0.43934 0.772836C0.720645 0.491531 1.10218 0.333496 1.5 0.333496H6.5ZM6.5 1.3335H1.5C1.36739 1.3335 1.24021 1.38617 1.14645 1.47994C1.05268 1.57371 1 1.70089 1 1.8335V12.1668C1 12.4428 1.224 12.6668 1.5 12.6668H6.5C6.63261 12.6668 6.75979 12.6142 6.85355 12.5204C6.94732 12.4266 7 12.2994 7 12.1668V1.8335C7 1.70089 6.94732 1.57371 6.85355 1.47994C6.75979 1.38617 6.63261 1.3335 6.5 1.3335ZM4.83267 10.6668C4.96527 10.6667 5.09252 10.7192 5.18642 10.8128C5.28031 10.9064 5.33316 11.0336 5.33333 11.1662C5.33351 11.2988 5.281 11.426 5.18736 11.5199C5.09372 11.6138 4.96661 11.6667 4.834 11.6668L3.16733 11.6695C3.03473 11.6697 2.90748 11.6172 2.81358 11.5235C2.71969 11.4299 2.66684 11.3028 2.66667 11.1702C2.66649 11.0376 2.719 10.9103 2.81264 10.8164C2.90629 10.7225 3.03339 10.6697 3.166 10.6695L4.83267 10.6668ZM5.66667 4.9995C5.74468 4.99947 5.82024 5.02681 5.88017 5.07676C5.94011 5.1267 5.98062 5.19609 5.99467 5.27283L6 5.33283V9.3335C6.00003 9.41151 5.97269 9.48707 5.92274 9.547C5.8728 9.60694 5.80341 9.64745 5.72667 9.6615L5.66667 9.66683H2.33333C2.25532 9.66685 2.17976 9.63951 2.11983 9.58957C2.05989 9.53962 2.01938 9.47024 2.00533 9.3935L2 9.33416V5.3335C1.99997 5.25548 2.02731 5.17992 2.07726 5.11999C2.12721 5.06006 2.19659 5.01954 2.27333 5.0055L2.33333 5.00016H5.66667V4.9995ZM5.66667 2.3335C5.74468 2.33347 5.82024 2.36081 5.88017 2.41076C5.94011 2.4607 5.98062 2.53009 5.99467 2.60683L6 2.66683V4.0035C6.00003 4.08151 5.97269 4.15707 5.92274 4.217C5.8728 4.27694 5.80341 4.31745 5.72667 4.3315L5.66667 4.33683H2.33333C2.25532 4.33686 2.17976 4.30951 2.11983 4.25957C2.05989 4.20962 2.01938 4.14024 2.00533 4.0635L2 4.00283V2.66683C1.99997 2.58881 2.02731 2.51326 2.07726 2.45332C2.12721 2.39339 2.19659 2.35287 2.27333 2.33883L2.33333 2.3335H5.66667Z" fill="#333333"/>
</svg>
