<svg width="5" height="8" viewBox="0 0 5 8" fill="none" xmlns="http://www.w3.org/2000/svg">
<path d="M0.235016 0.110158C0.164791 0.180471 0.125346 0.275783 0.125346 0.375158C0.125346 0.474534 0.164791 0.569846 0.235016 0.640159L3.59501 4.00016L0.235016 7.36016C0.198173 7.39449 0.168621 7.43589 0.148125 7.48189C0.127629 7.52789 0.116608 7.57755 0.11572 7.6279C0.114832 7.67825 0.124094 7.72826 0.142955 7.77496C0.161815 7.82165 0.189888 7.86407 0.225497 7.89968C0.261106 7.93529 0.303523 7.96336 0.350217 7.98222C0.396911 8.00108 0.446925 8.01034 0.497277 8.00946C0.547628 8.00857 0.597285 7.99755 0.643285 7.97705C0.689285 7.95655 0.730685 7.927 0.765016 7.89016L4.39001 4.26516C4.46024 4.19485 4.49968 4.09953 4.49968 4.00016C4.49968 3.90078 4.46024 3.80547 4.39001 3.73516L0.765016 0.110158C0.694703 0.039933 0.599391 0.000488281 0.500016 0.000488281C0.40064 0.000488281 0.305329 0.039933 0.235016 0.110158Z" fill="#333333"/>
</svg>
