<svg width="10" height="10" viewBox="0 0 10 10" fill="none" xmlns="http://www.w3.org/2000/svg">
<path d="M3.085 0.38C3.69254 0.129974 4.34303 0.000895761 5 0C5.655 0 6.305 0.13 6.915 0.38C7.52 0.63 8.07 1 8.535 1.465C9 1.93 9.37 2.48 9.62 3.085C9.87 3.695 10 4.345 10 5C10 6.325 9.475 7.6 8.535 8.535C8.07124 8.9999 7.52024 9.36864 6.9136 9.62004C6.30697 9.87145 5.65666 10.0006 5 10C4.34303 9.9991 3.69254 9.87003 3.085 9.62C2.47888 9.36843 1.92836 8.99972 1.465 8.535C1.0001 8.07124 0.631365 7.52023 0.379961 6.9136C0.128556 6.30697 -0.000567021 5.65666 1.87166e-06 5C1.87166e-06 3.675 0.525002 2.4 1.465 1.465C1.93 1 2.48 0.63 3.085 0.38ZM5 7.5L5.78 5.79L7.5 5L5.78 4.22L5 2.5L4.215 4.22L2.5 5L4.215 5.79L5 7.5Z" fill="white"/>
</svg>
