<svg width="17" height="15" viewBox="0 0 17 15" fill="none" xmlns="http://www.w3.org/2000/svg">
<g filter="url(#filter0_d_5734_958)">
<path d="M7.30975 1.31991C7.37577 1.18594 7.47798 1.07312 7.6048 0.994234C7.73162 0.915346 7.878 0.873535 8.02735 0.873535C8.17671 0.873535 8.32308 0.915346 8.4499 0.994234C8.57673 1.07312 8.67893 1.18594 8.74495 1.31991L10.289 4.44791L13.7426 4.95031C13.8903 4.97177 14.0291 5.03415 14.1433 5.13039C14.2574 5.22664 14.3424 5.35291 14.3885 5.49492C14.4346 5.63693 14.44 5.78901 14.4042 5.93396C14.3684 6.07891 14.2927 6.21094 14.1858 6.31511L11.6866 8.75031L12.277 12.1903C12.3022 12.3374 12.2857 12.4887 12.2294 12.6269C12.1732 12.7652 12.0794 12.8849 11.9586 12.9727C11.8378 13.0604 11.6949 13.1126 11.5461 13.1233C11.3972 13.1341 11.2483 13.103 11.1162 13.0335L8.02815 11.4095L4.93855 13.0335C4.80639 13.1028 4.65748 13.1338 4.50865 13.1229C4.35981 13.112 4.21699 13.0597 4.09632 12.9719C3.97565 12.8841 3.88194 12.7643 3.82579 12.6261C3.76963 12.4878 3.75327 12.3366 3.77855 12.1895L4.36815 8.75031L1.86895 6.31511C1.76199 6.21094 1.68632 6.07891 1.65049 5.93396C1.61467 5.78901 1.62012 5.63693 1.66623 5.49492C1.71235 5.35291 1.79729 5.22664 1.91144 5.13039C2.02559 5.03415 2.16439 4.97177 2.31215 4.95031L5.76575 4.44871L7.30975 1.31911V1.31991Z" fill="#FFC61A"/>
</g>
<defs>
<filter id="filter0_d_5734_958" x="-0.372879" y="0.873535" width="16.8005" height="16.252" filterUnits="userSpaceOnUse" color-interpolation-filters="sRGB">
<feFlood flood-opacity="0" result="BackgroundImageFix"/>
<feColorMatrix in="SourceAlpha" type="matrix" values="0 0 0 0 0 0 0 0 0 0 0 0 0 0 0 0 0 0 127 0" result="hardAlpha"/>
<feOffset dy="2"/>
<feGaussianBlur stdDeviation="1"/>
<feComposite in2="hardAlpha" operator="out"/>
<feColorMatrix type="matrix" values="0 0 0 0 0 0 0 0 0 0 0 0 0 0 0 0 0 0 0.12 0"/>
<feBlend mode="normal" in2="BackgroundImageFix" result="effect1_dropShadow_5734_958"/>
<feBlend mode="normal" in="SourceGraphic" in2="effect1_dropShadow_5734_958" result="shape"/>
</filter>
</defs>
</svg>
