<svg width="17" height="18" viewBox="0 0 17 18" fill="none" xmlns="http://www.w3.org/2000/svg">
<path d="M8.66671 0.667969C13.2692 0.667969 17 4.3988 17 9.0013C17 13.6038 13.2692 17.3346 8.66671 17.3346C4.06421 17.3346 0.333374 13.6038 0.333374 9.0013C0.333374 4.3988 4.06421 0.667969 8.66671 0.667969ZM8.66671 1.91797C6.78809 1.91797 4.98642 2.66425 3.65803 3.99263C2.32965 5.32101 1.58337 7.12268 1.58337 9.0013C1.58337 10.8799 2.32965 12.6816 3.65803 14.01C4.98642 15.3384 6.78809 16.0846 8.66671 16.0846C10.5453 16.0846 12.347 15.3384 13.6754 14.01C15.0038 12.6816 15.75 10.8799 15.75 9.0013C15.75 7.12268 15.0038 5.32101 13.6754 3.99263C12.347 2.66425 10.5453 1.91797 8.66671 1.91797ZM7.62504 10.2013L11.35 6.4763C11.4617 6.3655 11.611 6.30089 11.7683 6.29535C11.9255 6.28982 12.079 6.34377 12.1982 6.44643C12.3173 6.5491 12.3934 6.69294 12.4112 6.84924C12.429 7.00553 12.3872 7.16279 12.2942 7.28963L12.2334 7.35963L8.06671 11.5263C7.96088 11.6321 7.82059 11.6965 7.67133 11.7077C7.52207 11.7188 7.37376 11.6761 7.25337 11.5871L7.18337 11.5263L5.10004 9.44297C4.98924 9.3313 4.92463 9.18196 4.91909 9.02475C4.91356 8.86754 4.9675 8.71402 5.07017 8.59484C5.17284 8.47566 5.31668 8.39957 5.47297 8.38177C5.62927 8.36397 5.78653 8.40576 5.91337 8.4988L5.98337 8.55963L7.62504 10.2013Z" fill="#333333"/>
</svg>
