<svg width="14" height="14" viewBox="0 0 14 14" fill="none" xmlns="http://www.w3.org/2000/svg">
<path d="M9.49998 0.333496C9.88006 0.333449 10.246 0.477693 10.5238 0.737076C10.8016 0.996458 10.9706 1.35164 10.9966 1.73083L11 1.8335V2.33283L12.1666 2.3335C12.5467 2.33345 12.9127 2.47769 13.1905 2.73708C13.4683 2.99646 13.6373 3.35164 13.6633 3.73083L13.6666 3.8335V10.1668C13.6667 10.5469 13.5224 10.9128 13.2631 11.1907C13.0037 11.4685 12.6485 11.6375 12.2693 11.6635L12.1666 11.6668H11V12.1668C11 12.5469 10.8558 12.9128 10.5964 13.1907C10.337 13.4685 9.98184 13.6375 9.60265 13.6635L9.49998 13.6668H4.49998C4.11989 13.6669 3.75397 13.5226 3.47614 13.2632C3.19832 13.0039 3.02933 12.6487 3.00331 12.2695L2.99998 12.1668V11.6668H1.83331C1.45323 11.6669 1.0873 11.5226 0.809477 11.2632C0.531656 11.0039 0.362661 10.6487 0.336646 10.2695L0.333313 10.1668V3.8335C0.333266 3.45341 0.47751 3.08748 0.736893 2.80966C0.996275 2.53184 1.35145 2.36284 1.73065 2.33683L1.83331 2.3335L2.99998 2.33283V1.8335C2.99993 1.45341 3.14418 1.08748 3.40356 0.80966C3.66294 0.531839 4.01812 0.362844 4.39731 0.33683L4.49998 0.333496H9.49998ZM9.49998 1.3335H4.49998C4.37915 1.3335 4.26242 1.37726 4.17136 1.45667C4.0803 1.53609 4.02108 1.64579 4.00465 1.7655L3.99998 1.8335V12.1668C3.99998 12.4202 4.18798 12.6295 4.43198 12.6622L4.49998 12.6668H9.49998C9.6208 12.6668 9.73754 12.6231 9.8286 12.5437C9.91966 12.4642 9.97888 12.3545 9.99531 12.2348L9.99998 12.1668V1.8335C9.99997 1.71267 9.95622 1.59593 9.8768 1.50488C9.79739 1.41382 9.68768 1.35459 9.56798 1.33816L9.49998 1.3335ZM2.99998 3.33283L1.83331 3.3335C1.71249 3.3335 1.59575 3.37726 1.50469 3.45667C1.41363 3.53609 1.35441 3.64579 1.33798 3.7655L1.33331 3.8335V10.1668C1.33331 10.4202 1.52131 10.6295 1.76531 10.6622L1.83331 10.6668H2.99998V3.33283ZM12.1666 3.3335L11 3.33283V10.6668H12.1666C12.2875 10.6668 12.4042 10.6231 12.4953 10.5437C12.5863 10.4642 12.6455 10.3545 12.662 10.2348L12.6666 10.1668V3.8335C12.6666 3.70089 12.614 3.57371 12.5202 3.47994C12.4264 3.38617 12.2993 3.3335 12.1666 3.3335Z" fill="#333333"/>
</svg>
