<svg width="17" height="18" viewBox="0 0 17 18" fill="none" xmlns="http://www.w3.org/2000/svg">
<path d="M8.66671 0.667969C13.2692 0.667969 17 4.3988 17 9.0013C17 13.6038 13.2692 17.3346 8.66671 17.3346C4.06421 17.3346 0.333374 13.6038 0.333374 9.0013C0.333374 4.3988 4.06421 0.667969 8.66671 0.667969ZM11.35 6.4763L7.62504 10.2013L5.98337 8.55963C5.86489 8.44923 5.70819 8.38913 5.54627 8.39199C5.38435 8.39485 5.22987 8.46044 5.11536 8.57495C5.00084 8.68946 4.93525 8.84395 4.93239 9.00587C4.92954 9.16778 4.98964 9.32449 5.10004 9.44297L7.18337 11.5263C7.30056 11.6433 7.45941 11.7091 7.62504 11.7091C7.79067 11.7091 7.94952 11.6433 8.06671 11.5263L12.2334 7.35963C12.2948 7.30242 12.344 7.23342 12.3782 7.15675C12.4123 7.08008 12.4307 6.99732 12.4322 6.9134C12.4337 6.82948 12.4182 6.74613 12.3868 6.6683C12.3554 6.59048 12.3086 6.51978 12.2492 6.46044C12.1899 6.40109 12.1192 6.3543 12.0414 6.32287C11.9635 6.29143 11.8802 6.27599 11.7963 6.27747C11.7124 6.27896 11.6296 6.29732 11.5529 6.33148C11.4763 6.36564 11.4073 6.4149 11.35 6.4763Z" fill="#666666"/>
</svg>
