<svg width="22" height="22" viewBox="0 0 22 22" fill="none" xmlns="http://www.w3.org/2000/svg">
<path d="M4.99994 12H0.999939C0.399939 12 -6.10352e-05 12.4 -6.10352e-05 13V21C-6.10352e-05 21.6 0.399939 22 0.999939 22H4.99994C5.59994 22 5.99994 21.6 5.99994 21V13C5.99994 12.4 5.59994 12 4.99994 12ZM20.9999 8H16.9999C16.3999 8 15.9999 8.4 15.9999 9V21C15.9999 21.6 16.3999 22 16.9999 22H20.9999C21.5999 22 21.9999 21.6 21.9999 21V9C21.9999 8.4 21.5999 8 20.9999 8ZM12.9999 0H8.99994C8.39994 0 7.99994 0.4 7.99994 1V21C7.99994 21.6 8.39994 22 8.99994 22H12.9999C13.5999 22 13.9999 21.6 13.9999 21V1C13.9999 0.4 13.5999 0 12.9999 0Z" fill="#999999"/>
</svg>
