<svg width="14" height="14" viewBox="0 0 14 14" fill="none" xmlns="http://www.w3.org/2000/svg">
<path d="M7.00802 0.5C7.49736 0.505333 7.98469 0.562 8.46269 0.668667C8.56438 0.691366 8.65644 0.745268 8.726 0.82284C8.79557 0.900412 8.83916 0.997778 8.85069 1.10133L8.96402 2.11933C8.98002 2.26286 9.02949 2.40062 9.10845 2.52154C9.1874 2.64246 9.29364 2.74315 9.4186 2.81553C9.54357 2.8879 9.68378 2.92993 9.82796 2.93823C9.97213 2.94654 10.1162 2.92088 10.2487 2.86333L11.182 2.45333C11.2769 2.41157 11.3823 2.40029 11.4838 2.42108C11.5853 2.44186 11.6779 2.49366 11.7487 2.56933C12.4235 3.29001 12.9261 4.15435 13.2187 5.09733C13.2493 5.19649 13.2482 5.30271 13.2158 5.40126C13.1833 5.49981 13.1209 5.58581 13.0374 5.64733L12.21 6.258C12.0935 6.34344 11.9987 6.45515 11.9333 6.58406C11.868 6.71298 11.8339 6.85547 11.8339 7C11.8339 7.14453 11.868 7.28702 11.9333 7.41594C11.9987 7.54485 12.0935 7.65655 12.21 7.742L13.0387 8.352C13.1224 8.41357 13.1848 8.49968 13.2173 8.59837C13.2498 8.69706 13.2508 8.80342 13.22 8.90267C12.9276 9.84554 12.4252 10.7099 11.7507 11.4307C11.68 11.5063 11.5876 11.5582 11.4863 11.5791C11.3849 11.5999 11.2795 11.5889 11.1847 11.5473L10.2474 11.136C10.1151 11.078 9.97101 11.052 9.82681 11.06C9.6826 11.068 9.54231 11.1099 9.41729 11.1822C9.29227 11.2545 9.18602 11.3552 9.10716 11.4762C9.0283 11.5972 8.97904 11.7351 8.96336 11.8787L8.85002 12.896C8.83871 12.9983 8.79607 13.0947 8.72794 13.1719C8.6598 13.2491 8.5695 13.3034 8.46936 13.3273C7.50372 13.5571 6.49766 13.5571 5.53202 13.3273C5.43176 13.3035 5.3413 13.2493 5.27304 13.1721C5.20478 13.0948 5.16205 12.9984 5.15069 12.896L5.03802 11.88C5.02166 11.7369 4.97196 11.5996 4.89291 11.4791C4.81387 11.3587 4.70768 11.2585 4.58288 11.1865C4.45809 11.1146 4.31815 11.0729 4.17432 11.0648C4.03048 11.0567 3.88676 11.0825 3.75469 11.14L2.81735 11.5507C2.72246 11.5924 2.61695 11.6035 2.51543 11.5826C2.41391 11.5617 2.3214 11.5098 2.25069 11.434C1.57607 10.7124 1.07392 9.84709 0.782022 8.90333C0.751286 8.80408 0.752233 8.69772 0.78473 8.59903C0.817228 8.50035 0.879662 8.41424 0.963355 8.35267L1.79202 7.742C1.90859 7.65655 2.00338 7.54485 2.06872 7.41594C2.13406 7.28702 2.16811 7.14453 2.16811 7C2.16811 6.85547 2.13406 6.71298 2.06872 6.58406C2.00338 6.45515 1.90859 6.34344 1.79202 6.258L0.963355 5.64867C0.879662 5.5871 0.817228 5.50099 0.78473 5.4023C0.752233 5.30361 0.751286 5.19725 0.782022 5.098C1.07457 4.15502 1.57717 3.29067 2.25202 2.57C2.32281 2.49433 2.41536 2.44252 2.51688 2.42174C2.61839 2.40096 2.72386 2.41223 2.81869 2.454L3.75202 2.864C3.8847 2.92151 4.02902 2.94711 4.17339 2.93872C4.31775 2.93034 4.45814 2.88821 4.58327 2.81573C4.7084 2.74324 4.81479 2.64242 4.89388 2.52136C4.97297 2.4003 5.02257 2.26237 5.03869 2.11867L5.15202 1.10133C5.16346 0.99757 5.20709 0.899989 5.27679 0.822276C5.3465 0.744563 5.43878 0.690616 5.54069 0.668C6.02269 0.561475 6.51442 0.505175 7.00802 0.5ZM7.00802 1.5C6.70561 1.50355 6.40389 1.52963 6.10536 1.578L6.03202 2.22933C5.99867 2.52887 5.89542 2.81638 5.73058 3.0687C5.56575 3.32101 5.34395 3.53108 5.08305 3.68196C4.82215 3.83284 4.52945 3.92033 4.22855 3.93735C3.92764 3.95438 3.62694 3.90048 3.35069 3.78L2.75135 3.51733C2.37031 3.97993 2.06702 4.5014 1.85336 5.06133L2.38469 5.45267C2.62754 5.63106 2.82501 5.86409 2.96113 6.13292C3.09726 6.40175 3.16822 6.69883 3.16828 7.00016C3.16835 7.30149 3.09751 7.59861 2.9615 7.8675C2.82549 8.13639 2.62813 8.3695 2.38535 8.548L1.85269 8.94C2.06602 9.50133 2.37002 10.024 2.75135 10.488L3.35469 10.2233C3.63035 10.103 3.93042 10.049 4.23074 10.0658C4.53106 10.0826 4.82324 10.1697 5.08377 10.32C5.34429 10.4703 5.56588 10.6797 5.7307 10.9314C5.89551 11.183 5.99895 11.4698 6.03269 11.7687L6.10536 12.4247C6.69869 12.5247 7.30469 12.5247 7.89736 12.4247L7.97069 11.7687C8.00388 11.4694 8.10696 11.1821 8.27163 10.93C8.4363 10.6779 8.65793 10.4681 8.91864 10.3174C9.17934 10.1667 9.47182 10.0795 9.77246 10.0627C10.0731 10.0459 10.3735 10.1 10.6494 10.2207L11.252 10.4847C11.6334 10.0217 11.9369 9.49975 12.1507 8.93933L11.6187 8.54733C11.3757 8.36903 11.1781 8.13603 11.0419 7.86718C10.9057 7.59834 10.8347 7.30121 10.8346 6.99984C10.8346 6.69846 10.9055 6.4013 11.0415 6.1324C11.1776 5.8635 11.3751 5.63041 11.618 5.452L12.1494 5.06067C11.9355 4.50045 11.632 3.97875 11.2507 3.516L10.6527 3.778C10.3765 3.8989 10.0758 3.95316 9.77479 3.93641C9.47379 3.91966 9.18094 3.83236 8.91989 3.68156C8.65885 3.53076 8.43692 3.32068 8.27204 3.0683C8.10715 2.81592 8.00392 2.5283 7.97069 2.22867L7.89802 1.578C7.60393 1.52993 7.30599 1.50385 7.00802 1.5ZM7.00002 4.5C7.66306 4.5 8.29895 4.76339 8.76779 5.23223C9.23663 5.70107 9.50002 6.33696 9.50002 7C9.50002 7.66304 9.23663 8.29893 8.76779 8.76777C8.29895 9.23661 7.66306 9.5 7.00002 9.5C6.33698 9.5 5.7011 9.23661 5.23225 8.76777C4.76341 8.29893 4.50002 7.66304 4.50002 7C4.50002 6.33696 4.76341 5.70107 5.23225 5.23223C5.7011 4.76339 6.33698 4.5 7.00002 4.5ZM7.00002 5.5C6.6022 5.5 6.22067 5.65804 5.93936 5.93934C5.65806 6.22064 5.50002 6.60217 5.50002 7C5.50002 7.39782 5.65806 7.77936 5.93936 8.06066C6.22067 8.34196 6.6022 8.5 7.00002 8.5C7.39785 8.5 7.77938 8.34196 8.06068 8.06066C8.34199 7.77936 8.50002 7.39782 8.50002 7C8.50002 6.60217 8.34199 6.22064 8.06068 5.93934C7.77938 5.65804 7.39785 5.5 7.00002 5.5Z" fill="#333333"/>
</svg>
