<svg width="9" height="14" viewBox="0 0 9 14" fill="none" xmlns="http://www.w3.org/2000/svg">
<path d="M2.5 9.3335C2.36739 9.3335 2.24021 9.38617 2.14645 9.47994C2.05268 9.57371 2 9.70089 2 9.8335C2 9.9661 2.05268 10.0933 2.14645 10.187C2.24021 10.2808 2.36739 10.3335 2.5 10.3335H4.16667C4.29927 10.3335 4.42645 10.2808 4.52022 10.187C4.61399 10.0933 4.66667 9.9661 4.66667 9.8335C4.66667 9.70089 4.61399 9.57371 4.52022 9.47994C4.42645 9.38617 4.29927 9.3335 4.16667 9.3335H2.5ZM1.5 0.333496C1.10218 0.333496 0.720644 0.491531 0.43934 0.772836C0.158035 1.05414 0 1.43567 0 1.8335V10.5002C0 10.898 0.158035 11.2795 0.43934 11.5608C0.720644 11.8421 1.10218 12.0002 1.5 12.0002H5.16667C5.56449 12.0002 5.94602 11.8421 6.22733 11.5608C6.50863 11.2795 6.66667 10.898 6.66667 10.5002V1.8335C6.66667 1.43567 6.50863 1.05414 6.22733 0.772836C5.94602 0.491531 5.56449 0.333496 5.16667 0.333496H1.5ZM1 1.8335C1 1.70089 1.05268 1.57371 1.14645 1.47994C1.24021 1.38617 1.36739 1.3335 1.5 1.3335H5.16667C5.29927 1.3335 5.42645 1.38617 5.52022 1.47994C5.61399 1.57371 5.66667 1.70089 5.66667 1.8335V10.5002C5.66667 10.6328 5.61399 10.7599 5.52022 10.8537C5.42645 10.9475 5.29927 11.0002 5.16667 11.0002H1.5C1.36739 11.0002 1.24021 10.9475 1.14645 10.8537C1.05268 10.7599 1 10.6328 1 10.5002V1.8335ZM3.16667 13.6668C2.8564 13.6669 2.55373 13.5708 2.30037 13.3917C2.04701 13.2126 1.85542 12.9594 1.752 12.6668H5.5C5.98623 12.6668 6.45255 12.4737 6.79636 12.1299C7.14018 11.786 7.33333 11.3197 7.33333 10.8335V2.0855C7.62586 2.18892 7.87911 2.38051 8.05821 2.63387C8.2373 2.88723 8.33343 3.18989 8.33333 3.50016V10.8335C8.33333 11.5849 8.03482 12.3056 7.50347 12.837C6.97212 13.3683 6.25145 13.6668 5.5 13.6668H3.16667Z" fill="#333333"/>
</svg>
