<svg width="12" height="12" viewBox="0 0 12 12" fill="none" xmlns="http://www.w3.org/2000/svg">
<path d="M6.66733 1.16813C6.66733 0.858712 6.54442 0.561966 6.32562 0.343174C6.10683 0.124381 5.81009 0.00146484 5.50067 0.00146484H1.16733C0.857914 0.00146484 0.561168 0.124381 0.342375 0.343174C0.123583 0.561966 0.000666618 0.858712 0.000666618 1.16813V4.16813C0.000666618 4.81213 0.522667 5.3348 1.16733 5.3348H5.50067C5.81009 5.3348 6.10683 5.21188 6.32562 4.99309C6.54442 4.7743 6.66733 4.47755 6.66733 4.16813V1.16813ZM3.99267 7.8228C3.99267 7.51338 3.86975 7.21663 3.65096 6.99784C3.43217 6.77905 3.13542 6.65613 2.826 6.65613H1.16667C0.857247 6.65613 0.560501 6.77905 0.341709 6.99784C0.122916 7.21663 0 7.51338 0 7.8228V10.8321C0 11.4768 0.522 11.9988 1.16667 11.9988H2.82533C3.13475 11.9988 3.4315 11.8759 3.65029 11.6571C3.86908 11.4383 3.992 11.1416 3.992 10.8321V7.8228H3.99267ZM5.66667 1.16813V4.16813C5.66667 4.21233 5.64911 4.25473 5.61785 4.28598C5.5866 4.31724 5.5442 4.3348 5.5 4.3348H1.16667C1.12246 4.3348 1.08007 4.31724 1.04882 4.28598C1.01756 4.25473 1 4.21233 1 4.16813V1.16813C1 1.12393 1.01756 1.08154 1.04882 1.05028C1.08007 1.01902 1.12246 1.00146 1.16667 1.00146H5.5C5.5442 1.00146 5.5866 1.01902 5.61785 1.05028C5.64911 1.08154 5.66667 1.12393 5.66667 1.16813ZM2.992 7.8228V10.8321C2.992 10.8763 2.97444 10.9187 2.94318 10.95C2.91193 10.9812 2.86954 10.9988 2.82533 10.9988H1.16667C1.12246 10.9988 1.08007 10.9812 1.04882 10.95C1.01756 10.9187 1 10.8763 1 10.8321V7.8228C1 7.7786 1.01756 7.7362 1.04882 7.70495C1.08007 7.67369 1.12246 7.65613 1.16667 7.65613H2.82533C2.86954 7.65613 2.91193 7.67369 2.94318 7.70495C2.97444 7.7362 2.992 7.7786 2.992 7.8228ZM12.0013 7.83213C12.0013 7.52271 11.8784 7.22597 11.6596 7.00717C11.4408 6.78838 11.1441 6.66547 10.8347 6.66547H6.50133C6.20832 6.66532 5.92598 6.77544 5.71044 6.97394C5.4949 7.17243 5.36194 7.44476 5.338 7.7368L5.33467 7.83213V10.8321C5.33467 11.4768 5.85667 11.9988 6.50133 11.9988H10.8347C11.1441 11.9988 11.4408 11.8759 11.6596 11.6571C11.8784 11.4383 12.0013 11.1416 12.0013 10.8321V7.83213ZM11.0013 7.83213V10.8321C11.0013 10.8763 10.9838 10.9187 10.9525 10.95C10.9213 10.9812 10.8789 10.9988 10.8347 10.9988H6.50133C6.45713 10.9988 6.41474 10.9812 6.38348 10.95C6.35223 10.9187 6.33467 10.8763 6.33467 10.8321V7.83213L6.33867 7.79413C6.34725 7.75746 6.36801 7.72478 6.39755 7.70141C6.42709 7.67805 6.46367 7.66538 6.50133 7.66547H10.8347C10.8789 7.66547 10.9213 7.68302 10.9525 7.71428C10.9838 7.74554 11.0013 7.78793 11.0013 7.83213ZM12.0013 1.16813C12.0013 0.858712 11.8784 0.561966 11.6596 0.343174C11.4408 0.124381 11.1441 0.00146484 10.8347 0.00146484H9.168C8.85858 0.00146484 8.56184 0.124381 8.34304 0.343174C8.12425 0.561966 8.00133 0.858712 8.00133 1.16813V4.16813C8.00133 4.81213 8.52333 5.3348 9.168 5.3348H10.8347C11.1441 5.3348 11.4408 5.21188 11.6596 4.99309C11.8784 4.7743 12.0013 4.47755 12.0013 4.16813V1.16813ZM11.0013 4.16813C11.0013 4.21233 10.9838 4.25473 10.9525 4.28598C10.9213 4.31724 10.8789 4.3348 10.8347 4.3348H9.168C9.1238 4.3348 9.08141 4.31724 9.05015 4.28598C9.01889 4.25473 9.00133 4.21233 9.00133 4.16813V1.16813C9.00133 1.12393 9.01889 1.08154 9.05015 1.05028C9.08141 1.01902 9.1238 1.00146 9.168 1.00146H10.8347C10.8789 1.00146 10.9213 1.01902 10.9525 1.05028C10.9838 1.08154 11.0013 1.12393 11.0013 1.16813V4.16813Z" fill="#333333"/>
</svg>
