<svg width="20" height="14" viewBox="0 0 20 14" fill="none" xmlns="http://www.w3.org/2000/svg">
<path d="M19 12H7.00001C6.74513 12.0003 6.49998 12.0979 6.31464 12.2728C6.1293 12.4478 6.01777 12.687 6.00284 12.9414C5.9879 13.1958 6.07068 13.4464 6.23427 13.6418C6.39786 13.8373 6.62991 13.9629 6.88301 13.993L7.00001 14H19C19.2549 13.9997 19.5 13.9021 19.6854 13.7272C19.8707 13.5522 19.9822 13.313 19.9972 13.0586C20.0121 12.8042 19.9293 12.5536 19.7657 12.3582C19.6022 12.1627 19.3701 12.0371 19.117 12.007L19 12ZM19 6H1.00001C0.745131 6.00028 0.499977 6.09788 0.314642 6.27285C0.129307 6.44782 0.0177746 6.68695 0.00283813 6.94139C-0.0120983 7.19584 0.0706844 7.44638 0.234274 7.64183C0.397863 7.83729 0.629913 7.9629 0.883009 7.993L1.00001 8H19C19.2549 7.99972 19.5 7.90212 19.6854 7.72715C19.8707 7.55218 19.9822 7.31305 19.9972 7.05861C20.0121 6.80416 19.9293 6.55362 19.7657 6.35817C19.6022 6.16271 19.3701 6.0371 19.117 6.007L19 6ZM19 0H4.00001C3.74513 0.000282707 3.49998 0.0978789 3.31464 0.272848C3.12931 0.447817 3.01777 0.686953 3.00284 0.941395C2.9879 1.19584 3.07068 1.44638 3.23427 1.64183C3.39786 1.83729 3.62991 1.9629 3.88301 1.993L4.00001 2H19C19.2549 1.99972 19.5 1.90212 19.6854 1.72715C19.8707 1.55218 19.9822 1.31305 19.9972 1.05861C20.0121 0.804163 19.9293 0.553621 19.7657 0.358168C19.6022 0.162715 19.3701 0.0371036 19.117 0.00699997L19 0Z" fill="#333333"/>
</svg>
