<svg width="14" height="12" viewBox="0 0 14 12" fill="none" xmlns="http://www.w3.org/2000/svg">
<path d="M2.49998 0.666504C1.92534 0.666504 1.37424 0.894777 0.967915 1.30111C0.561586 1.70743 0.333313 2.25853 0.333313 2.83317V9.1665C0.333313 9.74114 0.561586 10.2922 0.967915 10.6986C1.37424 11.1049 1.92534 11.3332 2.49998 11.3332H11.5C11.7845 11.3332 12.0663 11.2771 12.3291 11.1682C12.592 11.0594 12.8309 10.8998 13.032 10.6986C13.2332 10.4974 13.3928 10.2585 13.5017 9.99565C13.6106 9.73278 13.6666 9.45103 13.6666 9.1665V2.83317C13.6666 2.54864 13.6106 2.2669 13.5017 2.00402C13.3928 1.74115 13.2332 1.5023 13.032 1.30111C12.8309 1.09991 12.592 0.940317 12.3291 0.831432C12.0663 0.722547 11.7845 0.666504 11.5 0.666504H2.49998ZM1.33331 2.83317C1.33331 2.18917 1.85598 1.6665 2.49998 1.6665H11.5C12.144 1.6665 12.6666 2.18917 12.6666 2.83317V9.1665C12.6666 9.47592 12.5437 9.77267 12.3249 9.99146C12.1061 10.2103 11.8094 10.3332 11.5 10.3332H2.49998C2.19056 10.3332 1.89381 10.2103 1.67502 9.99146C1.45623 9.77267 1.33331 9.47592 1.33331 9.1665V2.83317ZM11.1666 2.6665C11.034 2.6665 10.9069 2.71918 10.8131 2.81295C10.7193 2.90672 10.6666 3.0339 10.6666 3.1665V3.49984C10.6666 3.63245 10.7193 3.75962 10.8131 3.85339C10.9069 3.94716 11.034 3.99984 11.1666 3.99984C11.2993 3.99984 11.4264 3.94716 11.5202 3.85339C11.614 3.75962 11.6666 3.63245 11.6666 3.49984V3.1665C11.6666 3.0339 11.614 2.90672 11.5202 2.81295C11.4264 2.71918 11.2993 2.6665 11.1666 2.6665ZM10.6666 8.49984C10.6666 8.36723 10.7193 8.24005 10.8131 8.14628C10.9069 8.05252 11.034 7.99984 11.1666 7.99984C11.2993 7.99984 11.4264 8.05252 11.5202 8.14628C11.614 8.24005 11.6666 8.36723 11.6666 8.49984V8.83317C11.6666 8.96578 11.614 9.09296 11.5202 9.18672C11.4264 9.28049 11.2993 9.33317 11.1666 9.33317C11.034 9.33317 10.9069 9.28049 10.8131 9.18672C10.7193 9.09296 10.6666 8.96578 10.6666 8.83317V8.49984ZM11.1666 5.33317C11.034 5.33317 10.9069 5.38585 10.8131 5.47962C10.7193 5.57339 10.6666 5.70056 10.6666 5.83317V6.1665C10.6666 6.29911 10.7193 6.42629 10.8131 6.52006C10.9069 6.61383 11.034 6.6665 11.1666 6.6665C11.2993 6.6665 11.4264 6.61383 11.5202 6.52006C11.614 6.42629 11.6666 6.29911 11.6666 6.1665V5.83317C11.6666 5.70056 11.614 5.57339 11.5202 5.47962C11.4264 5.38585 11.2993 5.33317 11.1666 5.33317ZM2.33331 3.1665C2.33331 3.0339 2.38599 2.90672 2.47976 2.81295C2.57353 2.71918 2.7007 2.6665 2.83331 2.6665C2.96592 2.6665 3.0931 2.71918 3.18687 2.81295C3.28063 2.90672 3.33331 3.0339 3.33331 3.1665V3.49984C3.33331 3.63245 3.28063 3.75962 3.18687 3.85339C3.0931 3.94716 2.96592 3.99984 2.83331 3.99984C2.7007 3.99984 2.57353 3.94716 2.47976 3.85339C2.38599 3.75962 2.33331 3.63245 2.33331 3.49984V3.1665ZM2.83331 7.99984C2.7007 7.99984 2.57353 8.05252 2.47976 8.14628C2.38599 8.24005 2.33331 8.36723 2.33331 8.49984V8.83317C2.33331 8.96578 2.38599 9.09296 2.47976 9.18672C2.57353 9.28049 2.7007 9.33317 2.83331 9.33317C2.96592 9.33317 3.0931 9.28049 3.18687 9.18672C3.28063 9.09296 3.33331 8.96578 3.33331 8.83317V8.49984C3.33331 8.36723 3.28063 8.24005 3.18687 8.14628C3.0931 8.05252 2.96592 7.99984 2.83331 7.99984ZM2.33331 5.83317C2.33331 5.70056 2.38599 5.57339 2.47976 5.47962C2.57353 5.38585 2.7007 5.33317 2.83331 5.33317C2.96592 5.33317 3.0931 5.38585 3.18687 5.47962C3.28063 5.57339 3.33331 5.70056 3.33331 5.83317V6.1665C3.33331 6.29911 3.28063 6.42629 3.18687 6.52006C3.0931 6.61383 2.96592 6.6665 2.83331 6.6665C2.7007 6.6665 2.57353 6.61383 2.47976 6.52006C2.38599 6.42629 2.33331 6.29911 2.33331 6.1665V5.83317ZM5.66665 4.5005C5.66665 4.1145 6.05065 3.87384 6.35598 4.06917L8.80598 5.63117C9.06465 5.79584 9.06465 6.20384 8.80598 6.3685L6.35598 7.9305C6.05065 8.12584 5.66665 7.88517 5.66665 7.49917V4.49984V4.5005Z" fill="#333333"/>
</svg>
